<?xml version="1.0" encoding="UTF-8"?><svg id="_イヤー_1" xmlns="http://www.w3.org/2000/svg" viewBox="0 0 245.498 79.639"><defs><style>.cls-1{fill:#c30d23;}.cls-2{fill:#231815;}</style></defs><g><path class="cls-2" d="M109.797,19.539c.187-.037,.41-.075,.635-.075,.262,0,.485,.038,.709,.075,.188,.038,.411,.075,.672,.075,.113,0,.262,0,.412-.037,.111-.038,.261-.038,.373-.038,.224,0,.447,.038,.672,.112,.187,.075,.41,.149,.635,.187,.262,.038,.561,.075,.858,.112,.262,.037,.561,.112,.821,.149,.188,.038,.336,.112,.523,.149,.148,.075,.299,.149,.484,.187,.113,.037,.262,.075,.486,.112,.224,.038,.447,.112,.635,.149,.187,.075,.373,.149,.561,.261,.148,.112,.223,.261,.223,.411,0,.112-.037,.262-.148,.485-.112,.262-.225,.486-.373,.709-.15,.262-.299,.448-.449,.635-.186,.187-.336,.262-.447,.262-.112,0-.225-.038-.336-.149-.112-.075-.225-.112-.373-.112-.113,0-.225,.149-.337,.411-.149,.299-.224,.486-.224,.598-.112,.187-.188,.374-.262,.56s-.187,.411-.299,.598c-.336,.485-.635,1.008-.934,1.493s-.635,1.008-.971,1.494c-.111,.112-.187,.261-.299,.411-.111,.187-.186,.336-.186,.485,0,.112,.074,.262,.223,.411,.113,.149,.299,.299,.486,.411,.187,.112,.336,.224,.522,.298,.187,.112,.299,.149,.411,.149,.111,.112,.261,.224,.447,.299,.15,.075,.299,.149,.411,.261,.261,.187,.485,.374,.71,.56,.224,.187,.447,.374,.709,.56,.187,.149,.373,.299,.561,.411,.186,.112,.336,.262,.521,.448,.262,.112,.523,.261,.748,.485,.224,.224,.447,.448,.635,.635,.224,.261,.484,.485,.783,.672,.262,.224,.486,.485,.672,.747,.038,.075,.112,.224,.225,.448,.111,.224,.262,.448,.373,.672,.112,.261,.225,.485,.336,.672,.112,.224,.15,.374,.15,.411,.037,.112,.037,.261,.037,.373v1.12c0,.075,0,.149-.037,.187-.038,.037-.038,.112-.038,.149,0,.149,.038,.298,.075,.448s.037,.299,.037,.448c0,.187-.037,.299-.149,.336-.112,.038-.299,.075-.485,.075-.112,0-.262,0-.373-.037h-.411c-.262,0-.522,.037-.747,.149-.262,.112-.447,.187-.561,.187-.186,0-.261-.149-.298-.448-.038-.261-.075-.485-.075-.597s0-.149,.037-.187c0-.075,0-.149,.038-.224,.037-.037,.037-.112,.037-.187s-.037-.261-.112-.522c-.074-.262-.148-.523-.262-.822-.111-.299-.186-.56-.298-.821s-.187-.411-.224-.485c-.187-.261-.374-.485-.635-.672-.262-.187-.486-.411-.748-.597-.298-.224-.672-.56-1.156-.971-.486-.411-1.009-.859-1.531-1.27-.561-.411-1.083-.747-1.605-1.083-.523-.299-.971-.448-1.344-.448-.188,0-.374,.075-.486,.187-.111,.112-.262,.261-.373,.448-.112,.149-.262,.336-.523,.597-.261,.261-.521,.523-.82,.784-.336,.261-.635,.522-.896,.784-.299,.261-.523,.448-.709,.56-.188,.112-.374,.261-.561,.411s-.373,.299-.523,.448c-.037,.074-.111,.149-.148,.224-.075,.075-.149,.149-.262,.187-.187,.112-.373,.187-.561,.224-.186,.074-.336,.187-.521,.298-.262,.187-.486,.374-.673,.56-.187,.187-.411,.374-.672,.523-.112,.075-.224,.149-.337,.187-.111,.038-.261,.112-.373,.149-.187,.112-.373,.224-.56,.336-.187,.112-.411,.187-.598,.299-.112,.038-.224,.075-.336,.112-.112,.038-.224,.112-.336,.149-.038,0-.149,.038-.262,.075-.112,.075-.261,.149-.373,.224-.112,.112-.261,.187-.374,.261-.111,.112-.224,.149-.299,.187-.635,.373-1.27,.672-1.941,.858-.671,.187-1.344,.411-2.053,.598-.261,.075-.522,.187-.784,.336-.298,.187-.56,.261-.821,.261s-.448-.149-.56-.411c-.112-.187-.261-.485-.448-.858-.187-.336-.298-.635-.298-.859,0-.149,.075-.262,.224-.374,.149-.112,.336-.187,.523-.261s.374-.149,.56-.187c.187-.037,.374-.112,.485-.149,.112-.038,.224-.075,.336-.075,.112,.037,.224,0,.336-.038,.037-.037,.149-.075,.298-.149,.112-.075,.262-.149,.411-.224,.112-.074,.262-.149,.374-.224,.112-.075,.149-.112,.187-.149,.187-.112,.373-.187,.56-.224,.187-.038,.411-.075,.597-.112,.111-.038,.262-.112,.373-.149,.112-.038,.225-.112,.336-.149,.411-.187,.822-.411,1.195-.672,.373-.224,.784-.448,1.195-.635,.186-.112,.41-.261,.597-.373,.187-.112,.411-.262,.598-.374,.112-.037,.224-.112,.299-.187,.037-.075,.112-.149,.224-.224,.188-.149,.411-.261,.635-.374,.188-.112,.411-.187,.635-.299,.112-.037,.188-.112,.262-.187s.149-.149,.225-.187c.074-.075,.148-.149,.261-.187,.075-.037,.149-.075,.261-.112,.113-.037,.188-.112,.262-.187,.037-.075,.112-.149,.225-.187,.187-.112,.299-.261,.41-.411,.074-.149,.188-.299,.299-.411,.262-.299,.561-.56,.896-.784,.299-.224,.598-.485,.858-.784,.112-.112,.224-.261,.336-.448,.112-.149,.224-.299,.337-.411,.186-.187,.373-.374,.56-.523,.187-.112,.373-.299,.522-.485,.112-.187,.225-.336,.336-.485,.112-.149,.188-.299,.299-.485,.074-.112,.187-.224,.299-.299,.111-.075,.187-.187,.262-.299,.187-.261,.336-.522,.484-.821,.113-.261,.299-.523,.486-.784,.111-.187,.299-.411,.522-.747,.187-.299,.411-.635,.597-1.008,.188-.336,.374-.672,.523-1.008,.111-.336,.187-.597,.187-.821,0-.112-.037-.149-.149-.149-.037,.038-.148,.038-.299,.038-.148,0-.299,0-.41-.038-.149-.037-.299-.037-.448-.037-.038-.038-.149-.038-.299-.038-.187,0-.411,0-.597,.038-.188,.037-.411,.037-.598,.037h-1.121c-.41,.038-.783,.038-1.156,.038-1.009,0-2.018,0-3.025-.038h-3.023c-.113,0-.262,0-.374,.038-.112,.037-.261,.075-.374,.075-.224,0-.447-.038-.635-.075-.224-.038-.447-.038-.672-.038-.111,0-.261,0-.373,.038-.111,.037-.262,.037-.373,.037h-.262c-.149,.038-.262,0-.299-.037-.336,0-.522-.149-.522-.411,0-.112,0-.224,.037-.336,.038-.112,.038-.224,.038-.336v-.896c0-.261,.111-.448,.299-.56,.186-.075,.373-.112,.635-.112h1.717c.149,0,.299,.038,.41,.075,.113,.038,.262,.075,.411,.075,.187,0,.411,0,.598-.037,.187-.038,.374-.038,.56-.038h1.084c.373,0,.746-.037,1.082-.075,.336-.075,.672-.112,1.008-.112,.262,0,.486,.037,.747,.075,.224,.037,.448,.075,.71,.075h1.68c.225,0,.448-.038,.635-.112Z"/><path class="cls-2" d="M153.524,19.688c.038,.038,.112,.075,.225,.075,.261,0,.485,0,.709-.037,.225-.038,.448-.038,.71-.038,.299,0,.597,.038,.934,.075,.298,.038,.597,.075,.896,.075h.747c.262,.038,.522,.075,.747,.112,.187,.037,.485,.112,.821,.224,.336,.112,.635,.224,.971,.374s.598,.336,.858,.523c.225,.187,.336,.411,.336,.635,0,.112-.037,.224-.111,.411-.075,.187-.149,.336-.262,.522-.112,.187-.262,.336-.373,.448-.149,.112-.262,.187-.374,.187-.111,0-.187-.037-.224-.112s-.149-.112-.262-.112h-.074q-.037,.038-.075,.038c-.037,.037-.111,.149-.224,.336s-.224,.411-.336,.635c-.112,.261-.225,.485-.336,.672-.112,.224-.149,.336-.149,.373v.112c-.037,.037-.037,.112-.037,.149-.038,.037-.038,.112-.038,.224-.037,.224-.074,.448-.187,.672-.112,.261-.224,.485-.336,.672-.074,.112-.149,.224-.187,.336-.075,.112-.149,.224-.225,.336-.111,.112-.187,.224-.298,.261-.112,.037-.225,.149-.262,.261-.149,.336-.262,.672-.373,1.008-.112,.336-.262,.672-.485,.971-.337,.485-.71,.971-1.083,1.456-.411,.485-.821,.934-1.232,1.344-.187,.187-.373,.448-.561,.709-.187,.261-.373,.523-.597,.709-.262,.261-.523,.485-.784,.672-.262,.224-.561,.448-.821,.672-.336,.261-.598,.56-.859,.859-.261,.298-.597,.56-.934,.784-.149,.112-.298,.224-.485,.298-.187,.075-.336,.187-.485,.299-.187,.112-.373,.261-.522,.448-.187,.187-.373,.336-.561,.448-.148,.112-.298,.187-.485,.262-.187,.075-.336,.149-.485,.261-.261,.149-.485,.299-.672,.448-.224,.187-.448,.336-.709,.448-.112,.038-.187,.112-.225,.187-.074,.075-.149,.149-.261,.187-.262,.187-.523,.299-.821,.336-.337,.037-.598,.149-.859,.336-.112,.075-.224,.149-.299,.224-.111,.112-.224,.187-.336,.261-.598,.336-1.232,.635-1.867,.822-.187,.037-.336,.112-.485,.224-.149,.112-.298,.187-.447,.262-.149,.075-.299,.112-.448,.149-.187,.037-.336,.075-.485,.149-.337,.187-.747,.374-1.195,.561-.485,.187-.896,.261-1.307,.261-.261,0-.485-.038-.635-.149-.187-.112-.299-.224-.411-.411-.111-.187-.224-.374-.299-.56-.074-.187-.148-.411-.261-.598-.038-.112-.075-.187-.112-.261s-.037-.149-.037-.261c0-.262,.149-.411,.485-.523,.336-.112,.56-.187,.71-.261,.56,0,1.119-.149,1.68-.485,.561-.336,1.083-.598,1.568-.822,.336-.149,.747-.298,1.232-.448,.447-.149,.821-.299,1.082-.448,.411-.224,.822-.448,1.232-.635,.411-.187,.859-.336,1.27-.522,.187-.075,.373-.187,.485-.299,.112-.112,.262-.187,.448-.299,.262-.149,.522-.299,.784-.448,.262-.112,.485-.299,.747-.486,.224-.187,.447-.373,.635-.56,.187-.187,.447-.336,.709-.448,.112,0,.299-.149,.522-.411,.187-.262,.374-.411,.523-.448,.074-.075,.187-.149,.298-.187,.112-.038,.188-.112,.299-.187,.188-.149,.336-.298,.485-.485,.112-.187,.262-.336,.411-.485,.187-.187,.448-.411,.784-.747s.672-.672,1.008-1.045c.336-.336,.635-.709,.934-1.046,.262-.336,.448-.597,.522-.784,.075-.187,.225-.411,.485-.672,.262-.224,.448-.448,.561-.635,.224-.373,.411-.784,.522-1.195,.112-.411,.299-.821,.485-1.232,.149-.336,.299-.598,.448-.822,.112-.187,.224-.411,.336-.597,.075-.187,.149-.448,.187-.709,.038-.261,.075-.56,.075-.971,0-.187-.037-.299-.112-.336-.112-.038-.224-.038-.336-.038-.262,0-.485,0-.709,.038-.262,.037-.485,.075-.747,.075-.561,0-1.12-.038-1.681-.075-.56-.038-1.082-.075-1.643-.075h-.934c-.187,.037-.373,.037-.522,.037-.149,.038-.262,.038-.336,.075-.112,.038-.187,.112-.225,.187-.074,.075-.149,.149-.224,.224-.187,.187-.299,.374-.373,.56-.112,.187-.225,.336-.337,.485-.111,.149-.261,.299-.41,.411-.187,.112-.336,.261-.485,.411-.299,.336-.598,.635-.859,.933-.298,.336-.597,.635-.896,.934-.187,.187-.411,.336-.672,.448-.262,.112-.485,.261-.673,.448-.261,.262-.597,.598-1.008,.934s-.821,.635-1.194,.821c-.112,.038-.188,.112-.262,.149-.112,.038-.187,.112-.299,.187-.149,.112-.262,.149-.336,.187-.373,.112-.747,.299-1.12,.485-.411,.224-.784,.448-1.12,.672-.112,.075-.262,.112-.373,.149-.112,.038-.262,.112-.374,.187-.187,.112-.411,.261-.597,.411-.225,.187-.449,.261-.635,.261-.188,0-.374-.075-.523-.224-.187-.112-.336-.298-.447-.485-.113-.187-.225-.411-.299-.635-.075-.224-.112-.411-.112-.56,0-.187,.075-.336,.187-.448,.111-.112,.225-.187,.41-.299,.112-.075,.262-.149,.411-.224,.112-.037,.262-.112,.374-.149,.148-.037,.299-.149,.41-.261,.112-.112,.225-.187,.373-.224,.262-.112,.486-.187,.672-.299,.188-.075,.411-.187,.636-.298,.187-.112,.373-.262,.522-.411,.149-.112,.336-.261,.522-.373,.336-.224,.784-.485,1.27-.747,.485-.261,.859-.56,1.12-.821,.448-.448,.934-.896,1.419-1.307,.262-.262,.522-.523,.747-.784,.187-.261,.41-.56,.672-.821,.448-.523,.821-.971,1.083-1.344,.261-.336,.522-.709,.746-1.083,.188-.336,.374-.747,.561-1.195,.149-.411,.336-.971,.56-1.605,.038-.187,.112-.411,.188-.598,.074-.187,.111-.373,.111-.56v-.373c-.037-.112-.037-.262-.037-.374,0-.187,.037-.411,.075-.598,.037-.187,.187-.261,.447-.261,.075-.037,.188-.075,.337-.075,.111,.038,.224,.038,.298,.038,.188,0,.448,.037,.859,.075,.373,.037,.635,.149,.746,.261,.075,.075,.112,.187,.149,.299v.373c0,.56-.074,1.158-.187,1.718-.149,.56-.224,1.157-.224,1.717,0,.336,.074,.561,.261,.635,.188,.112,.411,.149,.71,.149h1.531c.111,0,.148,0,.187,.038l.111,.037Zm6.497-1.792c-.037,.112-.112,.187-.224,.224-.112,.037-.225,.075-.374,.037-.148-.037-.336-.037-.56-.037h-.411c-.074,0-.111,0-.149,.037-.037,0-.111,0-.149,.038-.037,.037-.111,.037-.148,.037-.112,0-.149-.037-.149-.112,0-.262,0-.56-.038-.822-.037-.261-.074-.522-.074-.784v-.597c-.037-.187,0-.411,.037-.598,.037-.149,.075-.261,.075-.373,.037-.038,.037-.149,.037-.262v-1.195c0-.149,0-.298-.037-.485-.038-.149-.038-.298-.038-.485,0-.075,0-.187,.038-.336,.037-.112,.074-.187,.187-.187,.149,0,.299,.037,.41,.112h.523c.111,0,.224,0,.336-.037,.111-.038,.224-.038,.336-.038,.187,0,.299,.075,.299,.261v.112c-.075,.112-.112,.261-.112,.374v.411c0,.149,.037,.336,.074,.522,.038,.224,.075,.448,.075,.672,0,.336,0,.635-.037,.933-.038,.299-.038,.598-.038,.934,0,.187,.038,.374,.075,.523s.074,.336,.074,.522c0,.262,0,.485-.037,.598Zm4.22,.149c-.299,.112-.673,.187-1.12,.187-.225,0-.411-.037-.523-.112-.111-.038-.187-.224-.187-.485,0-.149,0-.299,.037-.486v-.448c0-.187-.037-.374-.074-.56-.037-.187-.075-.374-.075-.56,0-.411,.038-.859,.112-1.27,.037-.299,.075-.598,.112-.896v-.896c0-.187,0-.298,.037-.373,.037-.038,.075-.075,.149-.112,.037-.037,.112-.037,.149-.037h1.083c.187,.037,.41,.037,.598,.037,0,.112,0,.187-.038,.261-.037,.075-.074,.187-.074,.299,0,.187,.037,.374,.074,.56,.038,.187,.075,.374,.075,.56v.448c-.037,.149-.037,.299-.037,.448,0,.187,0,.411,.037,.635,.037,.224,.037,.448,.037,.634,0,.112,0,.262-.037,.374-.037,.112-.037,.261-.037,.374s.037,.187,.074,.261,.037,.149,.037,.261c0,.486-.149,.784-.41,.896Z"/><path class="cls-2" d="M178.322,42.203v-.709c0-.112,0-.224,.037-.336,.037-.075,.037-.187,.037-.299v-7.318c0-.075,0-.149-.037-.224s-.037-.149-.037-.224c0-.598,0-1.195,.037-1.83,.037-.598,.037-1.195,.037-1.792,0-.149,0-.299-.037-.448-.037-.112-.074-.261-.074-.373,0-.448,.037-.896,.074-1.344s.037-.896,.037-1.344v-.336c-.037-.149-.037-.299-.037-.485-.037-.149-.037-.299-.074-.411-.038-.112-.112-.187-.149-.187-.075,0-.149,.038-.187,.075-.262,.187-.561,.336-.822,.523-.298,.187-.597,.373-.858,.56-.411,.261-.858,.522-1.307,.747l-1.345,.672c-.074,.037-.149,.112-.224,.187-.112,.075-.187,.112-.299,.112s-.224-.112-.41-.298c-.188-.187-.337-.374-.486-.635-.187-.262-.336-.486-.447-.747-.112-.261-.188-.411-.188-.522,0-.149,.075-.262,.225-.336,.074-.037,.187-.074,.336-.187,.149-.075,.299-.149,.485-.261,.187-.075,.336-.149,.485-.224,.149-.037,.262-.075,.336-.075,.112-.037,.225-.112,.336-.224,.112-.112,.262-.187,.448-.224,.112-.037,.225-.112,.336-.224,.112-.075,.225-.149,.336-.187,.188-.075,.374-.149,.523-.261,.111-.112,.261-.224,.447-.336,.075-.038,.149-.112,.262-.149,.075-.038,.149-.112,.224-.149,.411-.261,.859-.523,1.27-.821,.411-.299,.859-.598,1.27-.859,.485-.336,1.009-.747,1.531-1.232,.485-.485,.971-.933,1.382-1.344,.074-.112,.224-.262,.448-.448,.224-.187,.373-.336,.41-.374,.112-.075,.262-.187,.411-.373,.111-.149,.224-.299,.299-.411,.037-.037,.037-.075,.074-.112,.037,0,.074-.037,.112-.075,.149-.112,.299-.299,.41-.522,.112-.187,.262-.374,.374-.523,.111-.187,.261-.336,.447-.485,.149-.112,.299-.299,.411-.485,.112-.149,.262-.374,.448-.709s.336-.56,.373-.672c.225-.224,.374-.373,.448-.485,.037-.112,.262-.149,.598-.149,.111,0,.187,0,.261-.037,.188,0,.411,0,.635-.037h.673c.187,0,.41,0,.672,.037,.261,.037,.448,.149,.56,.261,.112,.112,.225,.262,.336,.411,.112,.187,.225,.336,.337,.448,.148,.149,.298,.299,.41,.448s.262,.298,.411,.448c.635,.709,1.344,1.457,2.091,2.166,.747,.709,1.53,1.344,2.314,1.904,.112,.075,.262,.187,.411,.299,.112,.149,.224,.261,.336,.299,.037,.075,.149,.149,.299,.224,.149,.112,.262,.187,.373,.224,.411,.298,.859,.597,1.27,.933,.411,.336,.859,.56,1.345,.747,.187,.075,.41,.187,.597,.336,.188,.187,.374,.299,.598,.411,.299,.149,.598,.299,.934,.411,.336,.112,.635,.299,.896,.485,.41,.262,.858,.485,1.307,.598,.448,.149,.858,.373,1.27,.635,.074,.037,.112,.112,.149,.224,.037,.112,.037,.187,.037,.261,0,.112-.037,.261-.112,.411-.074,.149-.149,.299-.261,.448-.112,.187-.225,.336-.336,.448-.112,.149-.225,.261-.262,.374-.149,.224-.373,.336-.635,.336-.149,0-.485-.149-1.046-.411-.56-.261-1.157-.598-1.792-.934s-1.232-.672-1.792-1.008c-.561-.336-.934-.523-1.083-.598-.037,.149-.074,.299-.074,.411,0,.336,.037,.709,.074,1.045,.037,.336,.037,.709,.037,1.045,0,.112,0,.187-.037,.262-.037,.112-.074,.224-.074,.336,0,.336,.037,.709,.074,1.083,.037,.373,.037,.747,.037,1.083v.112c-.037,.037-.037,.112-.074,.149-.037,.112-.075,.336-.037,.672v.784c0,.261,0,.485,.037,.709,.037,.261,.037,.485,.037,.747s0,.523-.037,.747c-.037,.262-.037,.523-.037,.784v.448c0,.187,.037,.336,.111,.411,.038,0,.149-.075,.262-.187,.112-.112,.262-.224,.411-.374,.148-.149,.298-.299,.447-.448,.149-.112,.262-.224,.374-.261,.111,0,.261,.075,.522,.187,.224,.149,.448,.336,.709,.523,.262,.187,.485,.411,.673,.598,.187,.187,.261,.336,.261,.448s-.037,.224-.149,.261c-.111,.075-.187,.149-.261,.187-.336,.298-.747,.635-1.195,1.045s-.858,.709-1.27,.934c-.299,.187-.598,.373-.896,.56-.337,.224-.598,.448-.859,.672-.187,.224-.485,.411-.858,.598-.411,.187-.747,.411-1.009,.597-.037,.038-.111,.075-.148,.112-.075,.038-.112,.075-.112,.149,0,.187,.261,.374,.784,.635,.485,.262,1.083,.485,1.755,.747,.635,.261,1.27,.485,1.904,.672,.597,.224,1.008,.374,1.194,.448,.187,.112,.448,.149,.71,.112,.261,0,.485,.038,.709,.149,.112,.037,.299,.075,.561,.112,.261,.038,.485,.112,.746,.149,.262,.038,.485,.112,.673,.149,.187,.075,.298,.149,.298,.261s-.074,.336-.224,.598-.299,.523-.485,.821c-.187,.262-.411,.523-.598,.747-.224,.187-.373,.298-.485,.298h-.224c-.075-.037-.149,0-.187,.038-.262-.112-.561-.224-.859-.336-.299-.112-.598-.187-.858-.262-.075-.037-.149-.037-.225-.037-.111,0-.187-.038-.224-.075-.187,0-.411-.038-.672-.149-.262-.112-.522-.224-.71-.261-.41-.112-.821-.261-1.194-.411-.374-.149-.784-.299-1.195-.485-.111-.075-.261-.149-.41-.224-.149-.112-.299-.187-.448-.262-.224-.112-.448-.224-.709-.336-.262-.112-.486-.224-.673-.336-.336-.187-.635-.411-.934-.635-.298-.187-.597-.411-.933-.597-.262-.187-.635-.486-1.046-.896-.448-.411-.821-.709-1.083-.933-.56-.523-1.12-1.083-1.643-1.643-.187-.187-.336-.448-.485-.709-.187-.374-.448-.784-.71-1.195-.261-.411-.56-.747-.821-1.083-.037-.037-.037-.074-.074-.112-.037-.037-.112-.037-.149-.037-.522,0-1.046,0-1.531,.037-.522,.038-1.045,.038-1.568,.038-.261,0-.522,0-.784-.038-.261-.037-.56-.037-.821-.037-.187,0-.336,.037-.373,.112-.075,.075-.112,.224-.112,.411s0,.336,.037,.485c.038,.187,.038,.336,.038,.523,0,.112,0,.224-.038,.336-.037,.112-.037,.224-.037,.336,0,.262,0,.56,.037,.822,.038,.261,.038,.56,.038,.821,0,.075,0,.149-.038,.224-.037,.075-.037,.149-.037,.224,0,.112,0,.224,.037,.298,.038,.075,.038,.187,.038,.299s0,.187-.038,.261c-.037,.075-.037,.149-.037,.224,0,.336,.037,.709,.075,1.045,.037,.336,.037,.709,0,1.083,.261-.038,.522-.112,.784-.149,.224-.038,.485-.112,.746-.149,.336-.037,.635-.112,.971-.224,.299-.112,.598-.149,.934-.149,.225,0,.448-.037,.673-.112,.187-.075,.41-.112,.634-.112,.112-.038,.149-.075,.188-.075,.037-.038,.187-.038,.41-.075,.225,0,.374,0,.448-.038,.373-.075,.784-.187,1.195-.336,.41-.112,.783-.187,1.157-.224,.112,0,.224-.037,.336-.075,.074-.037,.187-.075,.299-.075,.074,0,.149,.075,.187,.187,.037,.149,.112,.298,.149,.485,.037,.187,.037,.336,.074,.522,.038,.187,.038,.299,.038,.336v.149c-.038,.038-.038,.112-.038,.224-.037,.038-.037,.075-.037,.112,0,.037,0,.075-.037,.112-.037,.112-.075,.149-.187,.187-.187,.038-.411,.112-.635,.187-.225,.075-.448,.149-.672,.187-.225,.038-.448,.112-.673,.149-.224,.037-.448,.112-.672,.149-.074,.037-.373,.149-.858,.299-.485,.112-1.046,.261-1.644,.411-.597,.112-1.157,.261-1.68,.373-.561,.112-.896,.187-1.046,.224-.111,.038-.224,.038-.336,.038s-.224,.037-.336,.075c-.709,.261-1.382,.411-2.054,.485-.299,.037-.598,.112-.858,.224-.299,.074-.598,.149-.934,.187-.037,.037-.149,.037-.262,.075-.149,0-.261-.038-.299-.075-.261,.075-.522,.149-.746,.224-.262,.075-.523,.112-.784,.112-.037,.038-.149,.038-.262,.038-.187,0-.373-.075-.56-.262-.188-.187-.336-.411-.448-.672-.149-.261-.262-.523-.336-.784-.112-.261-.149-.485-.149-.635,0-.075,0-.149,.037-.224s.074-.112,.187-.149c.262-.112,.598-.149,.934-.187s.672-.037,.971-.075c.112,0,.336-.037,.598-.112s.41-.075,.522-.038h.112c.187,0,.336-.037,.522-.112,.149-.075,.299-.112,.485-.112,.037-.224,.075-.448,.112-.672Zm16.69-17.399c-.262-.038-.523-.075-.821-.112-.337-.037-.635-.037-.934-.037h-.561c-.262,0-.56,0-.821,.037-.262,.038-.561,.038-.821,.038s-.561,0-.821-.038c-.262-.037-.561-.037-.821-.037-.112,0-.225,0-.299,.037-.075,.038-.188,.038-.299,.038h-3.436c-.187,0-.336,0-.485-.038-.149-.037-.299-.037-.448-.037-.111,0-.224,0-.336,.037-.111,.038-.261,.038-.373,.038h-2.128c-.112,.037-.225,.037-.337,.075-.111,.037-.149,.074-.149,.112q-.037,.037-.037,.075c0,.112,0,.187,.037,.261v.261c.038,.038,.038,.149,.038,.299,0,.112,0,.187-.038,.261-.037,.112-.037,.187-.037,.299,0,.075,0,.149,.037,.187v.224c0,.262,0,.411,.038,.523,0,.112,.149,.149,.41,.149s.561-.038,.821-.075c.262-.038,.561-.038,.822-.038,.485,0,.933,0,1.419,.038,.485,.037,.933,.075,1.418,.075,.075,0,.149,0,.225-.038,.074-.037,.149-.037,.261-.037,.112,0,.225,0,.337,.037,.074,.038,.187,.038,.298,.038,.262,0,.561-.038,.822-.075,.261-.038,.56-.038,.821-.038,.635,0,1.307,0,1.941,.038,.635,.037,1.307,.037,1.941,.037,.411,0,.859,0,1.307-.037,.448-.038,.896-.038,1.308-.038q.037,0,.074-.037h.037c.037-.112,.037-.261,.037-.448s0-.373-.037-.56c-.037-.187-.074-.373-.074-.56,0-.112,0-.224,.037-.336v-.261c0-.149-.112-.262-.373-.336Zm-.971,4.854h-.075c-.037,.038-.074,.038-.112,.038-.187,0-.41-.038-.597-.075-.188-.037-.411-.037-.598-.037s-.373,0-.522,.037c-.188,.037-.374,.075-.561,.075-.56,0-1.157,0-1.718-.038-.56-.037-1.157-.037-1.717-.037h-.225c-.112,.037-.187,.037-.262,.037h-.261c-.037-.037-.262-.037-.635-.074-.411,0-.821,0-1.307-.038h-2.203c-.112,0-.187,0-.262,.038-.074,.037-.149,.074-.261,.074-.561,0-.972,.038-1.232,.149-.262,.112-.411,.485-.411,1.158,0,.187,0,.411,.037,.597v.598c0,.037,.038,.075,.075,.187,.037,.112,.074,.187,.112,.149h.111c.112,0,.262,0,.374,.038,.111,.037,.261,.037,.373,.037h1.718c.112,0,.187-.037,.261-.075,.075-.037,.149-.037,.225-.037h2.203c.111,0,.187,0,.299,.037,.074,.038,.187,.075,.298,.075,.188,0,.374-.037,.561-.075,.149-.037,.336-.037,.522-.037s.374,0,.561,.037c.187,.038,.373,.075,.56,.075,.225,0,.448,0,.673-.037,.187-.038,.41-.038,.634-.038,.149,0,.299,0,.448,.038,.149,.037,.299,.074,.448,.074,.187,0,.336,0,.522-.037h.485c.299,0,.635,0,.972-.037,.336,0,.635-.038,.933-.149,.262-.075,.485-.224,.673-.448,.187-.187,.261-.523,.261-.934,0-.485-.037-.858-.149-1.083-.111-.187-.447-.299-1.008-.299-.112,0-.187,0-.224,.037Zm-7.132-7.505c-.037-.037-.037-.112-.037-.149,0-.187,.037-.373,.074-.56,.037-.149,.037-.336,.037-.522v-.934c-.037-.299-.037-.597-.037-.896,0-.187,.149-.262,.485-.299,.299-.037,.485-.037,.598-.037,.784,0,1.27,.187,1.419,.597s.224,.971,.224,1.643v1.008c0,.149,.037,.224,.075,.262,.037,.037,.111,.075,.224,.075,.037-.038,.112-.038,.187-.038,.262,0,.561,0,.821,.038,.262,.037,.561,.075,.822,.075,.111,0,.187,0,.261-.038,.075-.037,.149-.037,.262-.037,.149,0,.299,0,.448,.037,.149,.038,.298,.038,.447,.038,.112,0,.262-.038,.374-.075,.111-.038,.261-.038,.373-.038,.373,0,.747,0,1.12,.038,.373,.037,.747,.037,1.12,.037h.187c.038,.038,.112,.038,.149,0-.037-.112-.187-.187-.373-.299-.224-.112-.411-.187-.522-.261-.112-.112-.262-.224-.374-.336-.111-.112-.261-.187-.373-.299-.149-.112-.299-.224-.448-.336-.149-.112-.299-.187-.448-.299-.635-.485-1.231-.971-1.792-1.531-.56-.56-1.157-1.083-1.718-1.643-.111-.075-.261-.224-.485-.485-.224-.261-.448-.522-.672-.784-.262-.261-.485-.485-.672-.709-.225-.187-.374-.298-.448-.298s-.149,.075-.262,.187c-.111,.149-.261,.299-.373,.485s-.262,.336-.373,.485c-.112,.187-.225,.299-.299,.374-.262,.187-.485,.485-.747,.821-.262,.374-.522,.709-.709,.971-.411,.448-.821,.859-1.232,1.232-.411,.411-.858,.821-1.27,1.232-.037,.038-.112,.112-.149,.187-.074,.075-.149,.149-.187,.187-.037,.037-.149,.112-.262,.187-.111,.075-.261,.149-.373,.224-.112,.112-.225,.187-.336,.299-.112,.112-.149,.224-.149,.299,.112,.075,.299,.112,.56,.112,.262,.038,.448,.038,.598,.038,.112,0,.187,0,.299-.038,.074-.037,.149-.037,.262-.037h3.733c0-.038,0-.112-.037-.187Zm10.604,12.77c-.111,0-.261,0-.373-.038-.149-.037-.299-.037-.411-.037-.522,0-1.045,0-1.53,.037-.522,.038-1.046,.038-1.568,.038h-3.323c-.112,0-.187,0-.224-.038-.075-.037-.149-.037-.262-.037-.187,0-.336,0-.448,.037,.038,.075,.112,.187,.262,.336,.112,.112,.187,.262,.262,.374,.074,.112,.187,.261,.298,.374,.112,.112,.262,.298,.523,.56,.224,.261,.485,.56,.784,.821,.261,.299,.56,.56,.821,.784,.261,.224,.448,.374,.56,.411,.225-.112,.485-.261,.784-.448,.262-.187,.561-.411,.859-.635,.299-.224,.597-.448,.896-.672,.262-.224,.523-.411,.784-.56,.112-.075,.262-.187,.374-.336,.111-.149,.261-.299,.373-.411,.037,0,.187-.075,.373-.262,.187-.149,.336-.261,.374-.298h-.188Z"/><path class="cls-2" d="M223.804,23.534c-.149,0-.373,.074-.635,.187-.261,.149-.56,.299-.858,.485s-.561,.411-.821,.598c-.262,.187-.411,.336-.485,.448-.112,.112-.225,.261-.299,.374-.075,.112-.187,.261-.299,.373-.187,.187-.411,.374-.635,.486-.224,.112-.411,.261-.598,.448-.112,.112-.224,.224-.336,.336-.112,.112-.262,.224-.373,.336-.411,.261-.821,.522-1.158,.747-.373,.224-.783,.411-1.231,.598-.112,.037-.299,.112-.561,.224-.261,.112-.448,.149-.56,.149-.262,0-.598,0-.971-.037-.374,0-.747-.038-1.083-.149-.336-.075-.635-.224-.896-.411-.261-.187-.373-.485-.373-.822,0-.373,.112-.747,.336-1.12,.224-.373,.56-.56,.971-.56,.262,0,.522,.038,.784,.112,.224,.075,.485,.112,.747,.112s.56-.037,.934-.149c.373-.112,.672-.224,.858-.336s.373-.299,.522-.485c.112-.187,.262-.336,.448-.485,.336-.299,.709-.598,1.046-.934,.336-.299,.635-.597,.971-.934,.111-.112,.261-.224,.373-.261,.112-.037,.224-.112,.262-.187,.111-.112,.224-.224,.336-.336,.074-.112,.187-.224,.299-.336,.187-.187,.41-.336,.746-.485,.299-.112,.635-.224,.971-.336,.337-.112,.673-.187,1.009-.224,.336-.037,.597-.075,.821-.075,1.232,0,2.277,.224,3.137,.672,.821,.448,1.605,1.157,2.39,2.091,.187,.261,.373,.485,.522,.747,.112,.262,.299,.485,.485,.747,.149,.224,.336,.448,.522,.672s.374,.411,.561,.598c.187,.149,.373,.336,.522,.522,.187,.262,.411,.56,.598,.822,.187,.298,.373,.56,.597,.821,.337,.336,.673,.672,1.046,.934,.373,.298,.747,.597,1.083,.896,.41,.373,.858,.709,1.27,1.045,.41,.336,.858,.635,1.344,.934,.187,.112,.374,.187,.561,.187,.187,.037,.41,.075,.598,.187,.447,.224,.971,.411,1.567,.523,.561,.112,1.12,.224,1.605,.261,.262,.038,.561,.075,.822,.112,.261,.037,.56,.075,.821,.075,.111,0,.224,0,.336-.038h.56c.075,0,.149,.038,.188,.112,.111,.075,.187,.262,.187,.561-.038,.298-.038,.522,0,.634,.037,.038,.037,.112,.074,.149,.037,.075,.037,.149,.037,.187,0,.112-.037,.224-.074,.336-.037,.112-.112,.261-.149,.374-.187,.448-.448,.672-.747,.709-.299,.037-.672,.074-1.082,.074-.337,0-.673-.074-1.009-.224-.336-.112-.635-.187-.858-.187-.037,.038-.112,.075-.225,.038h-.224c-.074,0-.224-.038-.485-.112-.262-.037-.561-.112-.858-.187-.299-.075-.561-.149-.822-.224-.261-.075-.447-.112-.522-.149-.112-.037-.262-.112-.373-.224-.112-.112-.262-.187-.411-.224-.187-.038-.41-.112-.709-.224-.336-.075-.523-.187-.635-.336-.262-.149-.485-.299-.747-.411-.262-.112-.485-.262-.709-.448-.485-.336-.934-.709-1.345-1.083-.448-.373-.896-.784-1.307-1.195-.112-.112-.187-.224-.262-.336-.074-.112-.149-.187-.261-.299-.635-.635-1.232-1.381-1.83-2.24-.074-.112-.111-.224-.149-.336-.037-.112-.074-.224-.187-.336-.187-.262-.485-.635-.821-1.12-.336-.448-.71-.896-1.083-1.382-.41-.448-.784-.858-1.194-1.232-.411-.336-.747-.56-1.046-.672-.373-.112-.747-.149-1.12-.149h-.448Zm14.413-.112c-.112,.075-.225,.112-.336,.112-.112,.037-.262,.037-.411,0h-.373c-.112,0-.225,0-.336,.037-.112,.037-.225,.037-.337,.037-.074,0-.111-.074-.148-.224-.038-.112-.075-.262-.075-.448-.037-.149-.037-.299-.037-.448-.037-.149-.037-.261-.037-.298-.038-.038-.038-.149-.038-.262,0-.336,.038-.709,.075-1.083,.037-.336,.074-.709,.074-1.045v-1.12c0-.075,0-.149-.037-.187v-.224c-.037-.037-.037-.112-.037-.187,0-.149,.037-.299,.074-.485,.038-.187,.149-.261,.336-.261h.337c.148,.037,.261,.037,.298,.075h.374c.187,.037,.299,0,.373-.038h.224c.075,.038,.112,.075,.112,.187,0,.037,0,.112-.037,.187s-.037,.149-.037,.187c-.038,.038-.038,.075-.038,.187,0,.261,.038,.522,.112,.784,.037,.262,.075,.523,.075,.784,0,.336-.038,.672-.075,.971-.037,.336-.074,.672-.074,1.008,0,.224,.037,.448,.074,.635s.075,.448,.075,.784c0,.149-.038,.261-.149,.336Zm2.65,.187c-.037,0-.074,0-.111-.037-.038,0-.075-.037-.075-.112v-.224c0-.112,0-.261,.037-.411,.038-.149,.038-.299,.038-.411,0-.299-.038-.598-.075-.896s-.074-.597-.074-.896c0-.187,.037-.411,.074-.597,.037-.187,.075-.374,.075-.561v-1.493c0-.262,.074-.411,.224-.485,.149-.038,.336-.075,.522-.075h1.046c.187,0,.299,.037,.262,.112-.038,.112-.038,.224-.038,.336,0,.262,.038,.485,.075,.709s.037,.448,.037,.709v.374c-.037,.149-.037,.299-.037,.411s.037,.224,.074,.299c.037,.112,.037,.224,.037,.336,0,.149,0,.299-.037,.411-.037,.149-.037,.299-.037,.448,0,.187,0,.411,.037,.635v.971c0,.075-.037,.149-.149,.187-.111,.038-.261,.075-.373,.112-.149,.037-.299,.075-.411,.112-.149,.037-.261,.037-.298,.037h-.822Z"/></g><g><path class="cls-1" d="M47.786,55.121c-.263-.356-.776-1.538-1.249-1.576-1.102-.087-1.203-1.661-.297-1.873-.01-.026-.027-.052-.027-.077,0-.075,.038-.113,.113-.151,.038-.038,.113-.075,.151-.113,.264-.189,.603-.415,1.018-.603,.377-.189,.679-.377,.867-.604,.264-.226,.528-.453,.868-.679l.905-.566c.415-.226,.83-.528,1.282-.943,.453-.415,.867-.754,1.207-1.056,.075-.038,.151-.113,.264-.189,.113-.038,.151-.151,.151-.264s-.075-.264-.264-.453c-.189-.189-.415-.415-.679-.603-.264-.189-.49-.377-.716-.528-.264-.113-.415-.189-.528-.189-.113,.038-.226,.151-.377,.264l-.453,.453c-.151,.151-.302,.264-.415,.377-.113,.113-.226,.189-.264,.189-.075-.075-.113-.226-.113-.415v-.453c0-.264,0-.528,.038-.792,.038-.226,.038-.49,.038-.754s0-.49-.038-.754c-.038-.226-.038-.453-.038-.717v-.792c-.038-.34,0-.566,.038-.679,.038-.038,.038-.113,.075-.151v-.113c0-.34,0-.717-.038-1.094-.038-.377-.075-.754-.075-1.094,0-.113,.038-.226,.075-.34,.038-.075,.038-.151,.038-.264,0-.34,0-.717-.038-1.056-.038-.34-.075-.717-.075-1.056,0-.113,.038-.264,.075-.415,.039,.02,.094,.047,.163,.082-.58-.92-.401-1.966-.235-3.354l.017,.002c.002-.038,.006-.077,.008-.115-.348-.267-.707-.518-1.046-.764-.113-.038-.226-.113-.377-.226-.151-.075-.264-.151-.302-.226-.113-.038-.226-.151-.339-.302-.151-.113-.302-.226-.415-.302-.792-.566-1.584-1.207-2.338-1.923-.754-.717-1.471-1.471-2.112-2.187-.151-.151-.302-.302-.415-.453s-.264-.302-.415-.453c-.113-.113-.226-.264-.339-.453-.113-.151-.226-.302-.34-.415s-.302-.226-.566-.264-.49-.038-.679-.038h-.679c-.049,.008-.095,.01-.143,.015-.226-.06-.454-.105-.687-.132-.002-.091-.008-.193-.022-.316-.075-.34-.151-.679-.226-1.094-.113-.415-.189-.792-.302-1.169-.113-.34-.226-.604-.264-.717-.038-.075-.113-.189-.226-.34-.113-.113-.151-.226-.151-.302,0-.34,0-.717,.038-1.056,.038-.34,.038-.717,.038-1.056,0-.264,.038-.49,.075-.717,.038-.226,.075-.452,.075-.716,0-.113-.038-.302-.151-.566,.038-.113,.038-.302,.075-.528,.038-.226,.113-.377,.226-.415,.038,0,.226,0,.604-.038,.339,0,.754,0,1.207-.038h1.961c.189,0,.377,0,.566,.038,.151,.038,.34,.075,.528,.075,.377,0,.754,0,1.093-.038,.34-.038,.717-.038,1.094-.038h.981c.302,.038,.603,.038,.943,.038,.189,0,.377,0,.566-.038s.377-.038,.566-.038,.415,0,.604,.038,.377,.038,.566,.038c.264,0,.566,0,.867-.038,.264-.038,.415-.226,.415-.603v-.34c-.038-.113-.038-.226-.038-.34s0-.264,.038-.415v-.453c-.038-.113-.075-.226-.113-.34-.075-.075-.189-.113-.339-.113h-.415c-.151,.038-.302,.038-.453,.038-.264,0-.49-.038-.679-.075-.226-.038-.453-.038-.679-.038-.038-.038-.151-.038-.264-.038s-.264,.038-.377,.075c-.113,.038-.264,.075-.377,.075s-.226,0-.34-.038-.226-.038-.34-.038h-1.018c-.189,0-.339,0-.49,.038s-.302,.038-.453,.038c-.226,0-.453-.038-.641-.113-.189-.038-.415-.075-.641-.075-.189,0-.415,.038-.641,.075-.226,.038-.452,.075-.641,.075h-2.263c-.716,0-1.169-.113-1.433-.302s-.377-.641-.377-1.358v-.528c0-.189,.038-.377,.113-.566,.038-.151,.075-.339,.075-.528,0-.34,0-.679-.038-1.018-.038-.302-.038-.641-.038-.981,0-.189,0-.415,.038-.603,.038-.189,.038-.377,.038-.566s-.038-.34-.113-.415c-.075-.038-.226-.075-.415-.075h-.566c-.189,.038-.377,.038-.566,.038-.49,0-.792,.038-.943,.075-.151,.038-.226,.339-.226,.829,0,.151,0,.302,.038,.453v.453c0,.264,0,.49-.038,.717-.038,.226-.075,.453-.075,.717,0,.339,.038,.641,.113,.943,.075,.302,.113,.603,.113,.943,0,.113-.038,.226-.075,.34-.075,.151-.113,.377-.113,.641,0,.226-.038,.415-.151,.528-.189,.113-.377,.151-.603,.151-.264,.038-.491,.038-.754,.038-.264,.038-.491,.075-.755,.113-.151,.038-.264,.075-.377,.075-.339,0-.641-.038-.829-.113-.226-.038-.453-.075-.679-.075h-1.999c-.113,0-.189,0-.264,.038-.113,.038-.189,.038-.302,.038-.151,0-.302,0-.415-.038h-.453c-.151,0-.302,0-.415,.038s-.264,.038-.415,.038-.302-.038-.453-.075c-.151-.038-.302-.075-.49-.075-.302,0-.603,0-.905,.038-.302,.038-.603,.075-.905,.075h-4.865c-.075,0-.189,0-.339-.038h-.453c-.189,0-.34,0-.453,.038s-.189,.113-.226,.189c-.038,.075-.038,.189-.038,.34,0,.189,.038,.415,.113,.603,.038,.226,.075,.453,.075,.641,0,.075,0,.151-.038,.189,0,.038,0,.113-.038,.151-.038,.075-.038,.151-.038,.189,0,.189,.151,.264,.453,.302,.264,.038,.49,.038,.603,.038,.189,0,.415,0,.641-.038h.641c.264,0,.49,0,.754,.038,.226,.038,.453,.038,.717,.038,.113,0,.189,0,.264-.038,.038-.038,.113-.038,.226-.038h.302c.151,.038,.302,.038,.491,.038h.452c.113,0,.226,0,.264-.038h.226c.189,0,.339,0,.528,.038,.151,.038,.302,.038,.491,.038,.151,0,.302,0,.453-.038,.113,0,.264,0,.415-.038,.528-.075,1.094-.113,1.659-.075,.566,.038,1.094,.038,1.621,.038h2.489c.792,.038,1.622,.038,2.452,.038,.113,0,.226,0,.339-.038,.113-.038,.226-.038,.34-.038,.302,0,.49,.038,.566,.113,.075,.075,.113,.264,.113,.528,0,.34,0,.679-.038,1.018-.038,.34-.075,.717-.075,1.056v.264c.038,.038,.038,.075,.038,.113,0,.038,0,.075,.038,.113v.113c0,.113-.038,.189-.151,.226-.113,.038-.189,.038-.302,.038-.189,0-.34,0-.49-.038-.151-.038-.302-.038-.491-.038h-.452c-.151,0-.302,.038-.415,.075-.189,.075-.377,.151-.566,.189-.189,.075-.34,.189-.528,.302-.49,.34-.98,.717-1.471,1.169-.49,.49-.867,.98-1.093,1.508-.113,.302-.226,.641-.302,1.056-.075,.415-.113,.755-.113,1.094v.717c0,.264,.038,.49,.075,.679,.113,.717,.415,1.395,.83,2.036s.943,1.131,1.621,1.395c.151,.038,.302,.113,.453,.189,.151,.113,.302,.151,.491,.151s.339-.075,.528-.189c.151-.113,.264-.302,.377-.49,.113-.189,.189-.377,.264-.604,.038-.189,.075-.377,.075-.528,0-.264-.075-.453-.264-.603-.189-.113-.415-.264-.641-.453-.226-.189-.415-.377-.603-.641-.189-.226-.302-.566-.302-.981,0-.339,.038-.679,.113-1.093,.075-.415,.189-.792,.377-1.132,.189-.339,.415-.603,.679-.867,.264-.226,.641-.339,1.056-.339,.34,0,.641,.075,.943,.226,.264,.189,.528,.377,.754,.641,.189,.264,.377,.528,.49,.83,.113,.339,.189,.641,.189,.943,0,.113,0,.226-.038,.34-.038,.113-.038,.226-.038,.339-.038,.038-.038,.151-.038,.264s.038,.226,.075,.34c.038,.113,.038,.264,.038,.415,0,.264-.038,.528-.075,.83-.075,.302-.151,.566-.264,.83-.075,.226-.189,.528-.339,.867-.189,.377-.34,.755-.528,1.132s-.34,.716-.528,1.056-.377,.604-.528,.754l-1.584,1.584c-.113,.113-.264,.226-.453,.264-.189,.075-.34,.189-.491,.302-.339,.264-.716,.491-1.056,.679s-.717,.377-1.131,.566c-.113,.038-.226,.113-.302,.151-.113,.038-.226,.113-.34,.151-.189,.075-.377,.113-.566,.113s-.34,.038-.528,.151-.415,.226-.679,.302-.528,.113-.792,.113c-.302,0-.603,.075-.943,.189-.038,.038-.189,.075-.377,.113-.189,.075-.302,.151-.302,.226,0,.038,.038,.113,.151,.226,.113,.113,.189,.226,.226,.34,.075,.189,.189,.49,.302,.867s.264,.641,.377,.792c.038,.075,.189,.113,.377,.113,.264,0,.528-.038,.717-.113,.189-.113,.377-.189,.641-.264,.189-.038,.415-.075,.603-.113,.189-.038,.415-.075,.604-.113,.113-.038,.226-.113,.34-.189,.113-.075,.226-.151,.339-.189,.151-.038,.302-.075,.453-.075,.151-.038,.302-.075,.453-.113,.032-.006,.058-.018,.089-.026,.013,.085,.024,.176,.047,.271,0,.189,0,.34,.038,.49v.34c0,.453,0,.905-.038,1.358-.038,.453-.075,.905-.075,1.357,0,.113,.038,.264,.075,.377,.038,.151,.038,.302,.038,.453,0,.604,0,1.207-.038,1.81-.038,.641-.038,1.244-.038,1.848,0,.075,0,.151,.038,.226,.038,.075,.038,.151,.038,.226v7.391c0,.113,0,.226-.038,.302-.038,.113-.038,.226-.038,.34v.717c-.038,.226-.075,.453-.113,.679-.189,0-.339,.038-.49,.113-.189,.075-.34,.113-.528,.113h-.113c-.113-.038-.264-.038-.528,.038-.026,.007-.045,.01-.071,.017,.051,.109,.088,.226,.097,.352,.122,.072,.237,.165,.327,.304,.35,.543,.845,.862,1.406,1.032,.737-.007,1.473-.042,2.208-.093,.097-.067,.194-.133,.289-.203,0-.066,.006-.132,.02-.195,.133-.627,.254-1.256,.377-1.885,.01-.05,.039-.089,.058-.134-.024,.004-.047,.01-.071,.013,.038-.377,.038-.754,0-1.093-.038-.34-.075-.717-.075-1.056,0-.075,0-.151,.038-.226s.038-.151,.038-.264,0-.226-.038-.302-.038-.189-.038-.302c0-.075,0-.151,.038-.226s.038-.151,.038-.226c0-.264,0-.566-.038-.83s-.038-.566-.038-.83c0-.113,0-.226,.038-.34s.038-.226,.038-.34c0-.189,0-.339-.038-.528-.038-.151-.038-.302-.038-.491s.038-.339,.113-.415c.038-.075,.189-.113,.377-.113,.264,0,.566,0,.83,.038,.264,.038,.528,.038,.792,.038,.528,0,1.056,0,1.584-.038,.491-.038,1.018-.038,1.546-.038,.038,0,.113,0,.151,.038,.038,.038,.038,.075,.075,.113,.264,.34,.566,.679,.83,1.094,.264,.415,.528,.83,.717,1.207,.151,.264,.302,.528,.49,.717,.528,.566,1.094,1.131,1.659,1.659,.264,.226,.641,.528,1.094,.943,.415,.415,.792,.717,1.056,.905,.34,.189,.641,.415,.943,.603,.302,.226,.603,.453,.943,.641,.189,.113,.415,.226,.679,.34s.49,.226,.717,.339c.151,.075,.302,.151,.453,.264,.151,.075,.302,.151,.415,.226,.411,.187,.822,.337,1.197,.486-.308-.273-.58-.58-.831-.92Zm-13.55-21.722c.189-.189,.377-.415,.528-.603,.151-.189,.302-.377,.491-.604,.151-.226,.377-.528,.641-.867,.113-.113,.226-.264,.339-.377,.113-.113,.189-.226,.264-.34,.151-.264,.34-.641,.528-1.094s.339-.943,.49-1.471c.151-.49,.302-.98,.415-1.471,.012-.052,.018-.094,.028-.142,.502-.015,.989,.054,1.458,.234,.06,.046,.118,.088,.196,.154,.189,.226,.415,.453,.679,.717,.226,.264,.453,.528,.679,.792,.226,.264,.377,.415,.49,.491,.566,.566,1.169,1.093,1.735,1.659s1.169,1.056,1.81,1.546c.151,.113,.302,.189,.453,.302,.151,.113,.302,.226,.453,.34,.113,.113,.264,.189,.377,.302,.113,.113,.264,.226,.377,.34,.113,.075,.302,.151,.528,.264,.189,.113,.339,.189,.377,.302-.038,.038-.113,.038-.151,0h-.189c-.377,0-.754,0-1.131-.038-.377-.038-.754-.038-1.131-.038-.113,0-.264,0-.377,.038-.113,.038-.264,.075-.377,.075-.151,0-.302,0-.453-.038-.151-.038-.302-.038-.453-.038-.113,0-.189,0-.264,.038s-.151,.038-.264,.038c-.264,0-.566-.038-.83-.075-.264-.038-.566-.038-.83-.038-.075,0-.151,0-.189,.038-.113,0-.189-.038-.226-.075-.038-.038-.075-.113-.075-.264v-1.018c0-.679-.075-1.244-.226-1.659-.151-.415-.641-.603-1.433-.603-.113,0-.302,0-.603,.038-.34,.038-.491,.113-.491,.302,0,.302,0,.604,.038,.905v.943c0,.189,0,.377-.038,.528-.038,.189-.075,.377-.075,.566,0,.038,0,.113,.038,.151,.038,.075,.038,.151,.038,.189h-3.771c-.113,0-.189,0-.264,.038-.097,.032-.169,.035-.258,.036,.26-.189,.484-.37,.65-.508Zm-2.24,3.639v-.264c-.038-.075-.038-.151-.038-.264q0-.038,.038-.075c0-.038,.038-.075,.151-.113,.113-.038,.226-.038,.339-.075h2.15c.113,0,.264,0,.377-.038,.113-.038,.226-.038,.34-.038,.151,0,.302,0,.453,.038,.151,.038,.302,.038,.49,.038h3.47c.113,0,.226,0,.302-.038,.075-.038,.189-.038,.302-.038,.264,0,.566,0,.83,.038,.264,.038,.566,.038,.83,.038s.566,0,.83-.038c.264-.038,.566-.038,.83-.038h.566c.302,0,.603,0,.943,.038,.302,.038,.566,.075,.83,.113,.264,.075,.377,.189,.377,.34v.264c-.038,.113-.038,.226-.038,.34,0,.189,.038,.377,.075,.566,.038,.189,.038,.377,.038,.566s0,.339-.038,.453h-.038q-.038,.038-.075,.038c-.415,0-.867,0-1.32,.038-.453,.038-.905,.038-1.32,.038-.641,0-1.32,0-1.961-.038-.641-.038-1.32-.038-1.961-.038-.264,0-.566,0-.83,.038-.264,.038-.566,.075-.83,.075-.113,0-.226,0-.302-.038-.113-.038-.226-.038-.339-.038s-.189,0-.264,.038-.151,.038-.226,.038c-.491,0-.943-.038-1.433-.075-.49-.038-.943-.038-1.433-.038-.264,0-.566,0-.83,.038-.264,.038-.566,.075-.83,.075s-.415-.038-.415-.151c-.038-.113-.038-.264-.038-.528v-.226c-.038-.038-.038-.113-.038-.189,0-.113,0-.189,.038-.302,.038-.075,.038-.151,.038-.264,0-.151,0-.264-.038-.302Zm7.769,7.052c-.189-.038-.377-.038-.566-.038s-.377,0-.528,.038c-.189,.038-.377,.075-.566,.075-.113,0-.226-.038-.302-.075-.113-.038-.189-.038-.302-.038h-2.225c-.075,0-.151,0-.226,.038-.075,.038-.151,.075-.264,.075h-1.735c-.113,0-.264,0-.377-.038-.113-.038-.264-.038-.377-.038h-.113c-.038,.038-.075-.038-.113-.151-.038-.113-.075-.151-.075-.189v-.604c-.038-.189-.038-.415-.038-.603,0-.679,.151-1.056,.415-1.169s.679-.151,1.244-.151c.113,0,.189-.038,.264-.075,.075-.038,.151-.038,.264-.038h2.225c.49,.038,.905,.038,1.32,.038,.377,.038,.604,.038,.641,.075h.264c.075,0,.151,0,.264-.038h.226c.566,0,1.169,0,1.735,.038,.566,.038,1.169,.038,1.735,.038,.189,0,.377-.038,.566-.075,.151-.038,.339-.038,.528-.038s.415,0,.604,.038c.189,.038,.415,.075,.603,.075,.038,0,.075,0,.113-.038h.075c.038-.038,.113-.038,.226-.038,.566,0,.905,.113,1.018,.302,.113,.226,.151,.604,.151,1.094,0,.415-.075,.754-.264,.943-.189,.226-.415,.377-.679,.453-.302,.113-.603,.151-.943,.151-.339,.038-.679,.038-.98,.038h-.491c-.189,.038-.339,.038-.528,.038-.151,0-.302-.038-.453-.075-.151-.038-.302-.038-.453-.038-.226,0-.453,0-.641,.038-.226,.038-.453,.038-.679,.038-.189,0-.377-.038-.566-.075Zm4.902,5.657c-.302,.189-.566,.34-.792,.453-.113-.038-.302-.189-.566-.415-.264-.226-.566-.491-.83-.792-.302-.264-.566-.566-.792-.83-.264-.264-.415-.453-.528-.566-.113-.113-.226-.264-.302-.377-.075-.113-.151-.264-.264-.377-.151-.151-.226-.264-.264-.34,.113-.038,.264-.038,.453-.038,.113,0,.189,0,.264,.038,.038,.038,.113,.038,.226,.038h3.356c.528,0,1.056,0,1.584-.038,.49-.038,1.018-.038,1.546-.038,.113,0,.264,0,.415,.038,.113,.038,.264,.038,.377,.038h.189c-.038,.038-.189,.151-.377,.302-.189,.189-.339,.264-.377,.264-.113,.113-.264,.264-.377,.415-.113,.151-.264,.264-.377,.34-.264,.151-.528,.339-.792,.566-.302,.226-.604,.453-.905,.679-.302,.226-.604,.453-.868,.641Z"/><path class="cls-1" d="M39.169,50.915c-.151,0-.377,.075-.641,.189-.264,.151-.566,.302-.868,.49s-.566,.415-.83,.603c-.264,.189-.415,.34-.49,.453-.113,.113-.226,.264-.302,.377-.075,.113-.189,.264-.302,.377-.189,.189-.415,.377-.641,.49-.226,.113-.415,.264-.604,.453-.113,.113-.226,.226-.34,.339-.113,.113-.264,.226-.377,.34-.415,.264-.83,.528-1.169,.754-.377,.226-.792,.415-1.245,.604-.113,.038-.302,.113-.566,.226s-.453,.151-.566,.151c-.264,0-.603,0-.98-.038-.377,0-.754-.038-1.094-.151-.34-.075-.641-.226-.905-.415s-.377-.49-.377-.83c0-.377,.113-.754,.34-1.131,.226-.377,.566-.566,.98-.566,.264,0,.528,.038,.792,.113,.226,.075,.49,.113,.754,.113s.566-.038,.943-.151,.679-.226,.867-.34,.377-.302,.528-.49c.113-.189,.264-.34,.453-.49,.34-.302,.717-.604,1.056-.943,.34-.302,.641-.603,.981-.943,.113-.113,.264-.226,.377-.264,.113-.038,.226-.113,.264-.189l.339-.339c.075-.113,.189-.226,.302-.34,.189-.189,.415-.34,.754-.49,.302-.113,.641-.226,.98-.34,.34-.113,.679-.189,1.018-.226,.34-.038,.604-.075,.83-.075,1.245,0,2.301,.226,3.168,.679,.83,.453,1.622,1.169,2.414,2.112,.189,.264,.377,.49,.528,.754,.113,.264,.302,.49,.49,.754,.151,.226,.34,.453,.528,.679,.189,.226,.377,.415,.566,.604,.189,.151,.377,.34,.528,.528,.189,.264,.415,.566,.603,.83,.189,.302,.377,.566,.604,.83,.34,.339,.679,.679,1.056,.943,.377,.302,.754,.603,1.094,.905,.415,.377,.867,.717,1.282,1.056,.415,.339,.867,.641,1.358,.943,.189,.113,.377,.189,.566,.189,.189,.038,.415,.075,.603,.189,.453,.226,.981,.415,1.584,.528,.566,.113,1.131,.226,1.622,.264,.264,.038,.566,.075,.83,.113,.264,.038,.566,.075,.829,.075,.113,0,.226,0,.34-.038h.566c.075,0,.151,.038,.189,.113,.113,.075,.189,.264,.189,.566-.038,.302-.038,.528,0,.641,.038,.038,.038,.113,.075,.151,.038,.075,.038,.151,.038,.189,0,.113-.038,.226-.075,.34-.038,.113-.113,.264-.151,.377-.189,.453-.453,.679-.754,.716-.302,.038-.679,.075-1.094,.075-.339,0-.679-.075-1.018-.226-.339-.113-.641-.189-.867-.189-.038,.038-.113,.075-.226,.038h-.226c-.075,0-.226-.038-.49-.113-.264-.038-.566-.113-.868-.189-.302-.075-.566-.151-.83-.226-.264-.075-.452-.113-.528-.151-.113-.038-.264-.113-.377-.226s-.264-.189-.415-.226c-.189-.038-.415-.113-.717-.226-.339-.075-.528-.189-.641-.34-.264-.151-.491-.302-.755-.415-.264-.113-.49-.264-.716-.452-.491-.34-.943-.717-1.358-1.094-.453-.377-.905-.792-1.32-1.207-.113-.113-.189-.226-.264-.34s-.151-.189-.264-.302c-.641-.641-1.244-1.395-1.848-2.263-.075-.113-.113-.226-.151-.34-.038-.113-.075-.226-.189-.34-.189-.264-.491-.641-.83-1.131-.34-.453-.717-.905-1.094-1.395-.415-.453-.792-.867-1.207-1.244-.415-.34-.754-.566-1.056-.679-.377-.113-.755-.151-1.132-.151h-.452Zm14.557,6.3c-.113,.075-.226,.113-.339,.113-.113,.038-.264,.038-.415,0h-.377c-.113,0-.226,0-.34,.038-.113,.038-.226,.038-.339,.038-.075,0-.113-.075-.151-.226-.038-.113-.075-.264-.075-.453-.038-.151-.038-.302-.038-.453-.038-.151-.038-.264-.038-.302-.038-.038-.038-.151-.038-.264,0-.339,.038-.716,.075-1.094,.038-.339,.075-.716,.075-1.056v-1.131c0-.075,0-.151-.038-.189v-.226c-.038-.038-.038-.113-.038-.189,0-.151,.038-.302,.075-.49,.038-.189,.151-.264,.339-.264h.34c.151,.038,.264,.038,.302,.075h.377c.189,.038,.302,0,.377-.038h.226c.075,.038,.113,.075,.113,.189,0,.038,0,.113-.038,.189-.038,.075-.038,.151-.038,.189-.038,.038-.038,.075-.038,.189,0,.264,.038,.528,.113,.792,.038,.264,.075,.528,.075,.792,0,.339-.038,.679-.075,.98-.038,.34-.075,.679-.075,1.018,0,.226,.038,.453,.075,.641,.038,.189,.075,.453,.075,.792,0,.151-.038,.264-.151,.339Zm2.678,.189c-.038,0-.075,0-.113-.038-.038,0-.075-.038-.075-.113v-.226c0-.113,0-.264,.038-.415,.038-.151,.038-.302,.038-.415,0-.302-.038-.603-.075-.905-.038-.302-.075-.604-.075-.905,0-.189,.038-.415,.075-.604,.038-.189,.075-.377,.075-.566v-1.508c0-.264,.075-.415,.226-.49,.151-.038,.34-.075,.528-.075h1.056c.189,0,.302,.038,.264,.113-.038,.113-.038,.226-.038,.34,0,.264,.038,.49,.075,.717,.038,.226,.038,.453,.038,.716v.377c-.038,.151-.038,.302-.038,.415s.038,.226,.075,.302c.038,.113,.038,.226,.038,.34,0,.151,0,.302-.038,.415-.038,.151-.038,.302-.038,.453,0,.189,0,.415,.038,.641v.981c0,.075-.038,.151-.151,.189-.113,.038-.264,.075-.377,.113-.151,.038-.302,.075-.415,.113-.151,.038-.264,.038-.302,.038h-.83Z"/><path class="cls-1" d="M63.983,47.9c-.038,.038-.151,.038-.302,.038-.264,0-.528,0-.792-.038-.264-.038-.528-.038-.792-.038-.226,0-.453,0-.641,.038-.226,.038-.452,.038-.679,.038-.075,0-.113,0-.151-.038,0-.679-.113-1.357-.339-1.999-.264-.641-.566-1.282-.905-1.848-.189-.34-.415-.641-.679-.905l-.83-.83-.83-.83c-.302-.264-.604-.528-.943-.792h-.189c-.302-.302-.641-.566-1.018-.83-.377-.226-.754-.453-1.094-.679-.264-.151-.49-.302-.679-.491s-.415-.339-.679-.49c-.377-.226-.754-.49-1.131-.792-.415-.302-.792-.641-1.131-.98-.377-.34-.679-.717-.943-1.131-.264-.415-.453-.83-.566-1.282-.038-.113-.075-.264-.113-.453-.038-.189-.075-.34-.075-.453,0-.339,.038-.679,.113-1.018,.075-.302,.113-.603,.151-.943v-.49c0-.075,.038-.189,.113-.34s.151-.302,.264-.49c.113-.151,.189-.302,.302-.415,.113-.113,.151-.226,.189-.264,.038-.075,.113-.151,.189-.226,.075-.038,.151-.113,.189-.189,.566-.867,1.244-1.735,1.999-2.64,.755-.868,1.622-1.546,2.565-2.036,.113,0,.302-.113,.528-.34l.453-.453c.113-.113,.264-.264,.415-.415,.113-.113,.264-.264,.415-.377,.113-.075,.264-.189,.528-.377,.264-.151,.491-.34,.754-.528,.264-.189,.491-.34,.679-.528s.302-.302,.302-.415-.038-.226-.151-.34c-.113-.113-.189-.189-.302-.264-.151-.113-.302-.264-.415-.377-.151-.113-.302-.226-.415-.377s-.264-.377-.415-.641c-.189-.264-.34-.528-.491-.83-.189-.302-.302-.603-.415-.905-.113-.264-.189-.491-.189-.679,0-.113,.075-.226,.189-.302,.038-.038,.151-.075,.34-.151,.189-.038,.377-.113,.603-.189,.189-.075,.415-.151,.604-.189,.189-.038,.302-.075,.339-.075,.113,0,.226,.075,.264,.226,.038,.189,.075,.302,.113,.415,.226,.566,.491,1.094,.792,1.546s.754,.792,1.357,1.018c.189,.075,.415,.151,.604,.189,.189,.075,.415,.113,.603,.113s.377-.038,.566-.151c.189-.075,.377-.113,.566-.113,.151,0,.302,.075,.453,.189,.151,.113,.302,.264,.452,.415,.113,.189,.226,.34,.302,.528,.075,.189,.113,.377,.113,.49,0,.226-.075,.453-.264,.641-.189,.226-.415,.415-.679,.603s-.491,.34-.754,.491c-.264,.189-.491,.302-.679,.415s-.302,.226-.377,.34c-.113,.113-.264,.189-.453,.302-.415,.189-.792,.415-1.207,.603-.415,.226-.83,.491-1.169,.755-.113,.075-.226,.189-.34,.302-.151,.113-.302,.264-.415,.377-.151,.151-.302,.264-.415,.377s-.226,.189-.302,.226c-.113,.075-.226,.151-.34,.189-.113,.038-.264,.151-.377,.264s-.189,.189-.264,.302c-.075,.113-.151,.226-.264,.34-.189,.189-.377,.302-.603,.377-.226,.113-.415,.226-.603,.415-.264,.264-.604,.641-.981,1.093-.377,.453-.717,.943-1.056,1.471-.34,.528-.641,1.056-.868,1.584-.226,.528-.339,.981-.339,1.395l.038,.151c.189,.415,.453,.83,.792,1.207,.339,.377,.679,.717,1.056,1.018,.189,.151,.377,.302,.566,.49s.377,.377,.603,.491c.189,.113,.415,.226,.679,.339,.226,.113,.453,.226,.641,.34s.415,.264,.603,.415c.189,.151,.377,.264,.604,.34,.113,.038,.189,.075,.264,.113,.075,.038,.151,.075,.264,.113,.34,.189,.679,.453,.943,.792,.264,.34,.566,.641,.905,.83,.34,.189,.641,.415,.981,.603,.302,.189,.566,.453,.83,.755,.113,.151,.226,.302,.339,.49,.075,.189,.189,.339,.302,.528,.226,.34,.415,.641,.603,.905,.151,.302,.34,.641,.528,.981,.113,.189,.226,.453,.377,.754,.113,.34,.264,.679,.377,1.018s.189,.679,.302,1.018c.075,.339,.113,.603,.113,.792s-.038,.34-.075,.377Zm.754-18.026c-.113,0-.189,0-.226-.038-.264,0-.453-.038-.49-.151-.075-.113-.113-.302-.113-.566,.038-.038,.038-.075,.038-.151,.038-.113,.075-.189,.075-.264,.038-.038,.038-.113,.075-.151,0-.038,0-.075,.038-.113,0-.075,0-.151,.038-.189-.038-.34-.113-.641-.151-.981-.038-.302-.075-.603-.075-.943,0-.226,0-.453,.038-.679,.038-.189,.038-.415,.038-.641v-.453c-.038-.113-.038-.264-.038-.377,0-.264,.075-.415,.264-.453,.189-.038,.377-.038,.566-.038h.302c.49,0,.792,.113,.905,.377,.075,.264,.113,.641,.113,1.056v1.508l-.113,.151c.038,.189,.075,.415,.075,.603v1.848c0,.038,0,.151-.038,.264-.038,.151-.113,.226-.151,.264-.038,.038-.075,.075-.151,.075-.075,.038-.151,.038-.189,.038h-.83Zm5.053,.075c-.113,0-.226,0-.339,.038-.113,.038-.226,.038-.34,.038-.226,0-.34-.075-.377-.189-.038-.113-.038-.264-.038-.453,0-.34,0-.641,.038-.981v-.943c0-.189,0-.415,.038-.603,.038-.189,.038-.415,.038-.604,0-.226,0-.453-.038-.641-.038-.189-.075-.415-.075-.641,0-.075,0-.189,.038-.302,0-.113,0-.264,.038-.377,.038-.113,.075-.226,.113-.34,.038-.113,.113-.151,.226-.151h.189c.038,.038,.113,.038,.151,.038,.038,.038,.113,.038,.189,.038h.377c.038,0,.113,0,.189-.038h.151c.151,0,.264,.113,.377,.34,.075,.226,.151,.49,.189,.792,.038,.302,.038,.604,.038,.868v1.848c0,.151-.038,.264-.075,.377-.075,.113-.113,.264-.113,.415,0,.189,.038,.34,.075,.491,.038,.151,.075,.302,.075,.49v.377c0,.075-.113,.113-.302,.113h-.83Z"/></g><g><path class="cls-2" d="M113.504,57.109c0,.332-.062,.624-.186,.874-.124,.25-.292,.46-.503,.627-.212,.167-.459,.294-.742,.378s-.586,.127-.908,.127c-.219,0-.421-.018-.608-.054-.187-.036-.353-.079-.495-.129-.144-.05-.263-.104-.359-.159-.096-.055-.165-.104-.207-.146-.043-.042-.072-.104-.091-.183-.018-.08-.026-.194-.026-.344,0-.101,.003-.186,.01-.254,.006-.068,.017-.124,.031-.166s.034-.072,.059-.09,.053-.027,.086-.027c.045,0,.109,.027,.192,.081s.189,.113,.32,.178c.13,.065,.285,.125,.466,.178s.39,.081,.628,.081c.156,0,.296-.019,.42-.056,.123-.038,.229-.09,.314-.159,.087-.068,.152-.153,.198-.254,.045-.101,.068-.213,.068-.337,0-.143-.039-.266-.117-.369s-.18-.194-.306-.273c-.125-.08-.268-.155-.427-.225-.16-.07-.324-.144-.493-.222-.17-.078-.334-.167-.493-.266-.16-.099-.302-.218-.428-.356-.125-.138-.227-.302-.305-.491s-.117-.415-.117-.679c0-.303,.056-.569,.168-.798s.264-.42,.454-.571,.415-.265,.674-.339,.533-.112,.823-.112c.149,0,.299,.011,.449,.034,.149,.023,.289,.054,.42,.093,.13,.039,.245,.083,.347,.132,.101,.049,.167,.089,.2,.122,.032,.033,.055,.06,.065,.083,.012,.023,.021,.053,.029,.09,.009,.038,.014,.084,.018,.142,.003,.057,.005,.128,.005,.212,0,.094-.003,.174-.008,.239s-.013,.119-.024,.161c-.011,.042-.027,.073-.049,.093-.021,.02-.05,.029-.085,.029-.036,0-.093-.023-.171-.068s-.175-.095-.288-.149c-.114-.054-.246-.103-.396-.146-.15-.044-.314-.066-.493-.066-.141,0-.263,.017-.366,.051-.104,.034-.191,.082-.262,.142-.069,.06-.122,.133-.156,.217s-.051,.174-.051,.269c0,.14,.038,.261,.114,.364,.077,.103,.18,.194,.308,.273,.129,.08,.274,.155,.438,.225,.162,.07,.328,.144,.498,.222,.169,.078,.335,.167,.498,.266,.162,.099,.308,.218,.435,.356s.229,.301,.308,.488,.117,.408,.117,.662Z"/><path class="cls-2" d="M126.769,56.65c0,.387-.058,.734-.171,1.04-.114,.306-.282,.565-.503,.776-.222,.211-.495,.373-.82,.483-.326,.111-.7,.166-1.123,.166-.397,0-.754-.05-1.069-.149-.316-.099-.583-.25-.801-.452-.219-.202-.385-.453-.501-.754-.115-.301-.173-.653-.173-1.057v-3.843c0-.033,.01-.062,.029-.088s.055-.047,.104-.063c.051-.016,.116-.029,.198-.039,.081-.01,.186-.015,.312-.015,.123,0,.226,.005,.308,.015,.081,.01,.146,.023,.195,.039s.084,.038,.104,.063c.021,.026,.032,.055,.032,.088v3.73c0,.25,.03,.468,.093,.652,.062,.184,.15,.336,.266,.457,.116,.121,.254,.211,.415,.271s.341,.09,.54,.09c.201,0,.382-.031,.542-.093,.159-.062,.294-.152,.405-.271,.11-.119,.196-.265,.256-.439,.061-.174,.091-.372,.091-.593v-3.804c0-.033,.01-.062,.029-.088s.054-.047,.103-.063,.114-.029,.197-.039,.187-.015,.311-.015c.123,0,.226,.005,.305,.015,.08,.01,.145,.023,.193,.039s.083,.038,.103,.063,.029,.055,.029,.088v3.789Z"/><path class="cls-2" d="M140.348,53.667c0,.094-.004,.176-.012,.244-.009,.068-.02,.123-.034,.164s-.033,.069-.054,.085c-.021,.016-.047,.024-.076,.024-.042,0-.11-.029-.205-.088-.094-.059-.22-.122-.376-.19s-.343-.132-.559-.19c-.217-.059-.468-.088-.755-.088-.306,0-.582,.053-.83,.159-.247,.106-.459,.255-.635,.449s-.311,.426-.405,.698c-.094,.272-.142,.572-.142,.901,0,.361,.048,.68,.145,.955,.096,.275,.23,.505,.402,.691,.173,.186,.38,.326,.623,.42,.242,.094,.51,.142,.803,.142,.144,0,.285-.016,.425-.049,.141-.033,.271-.082,.391-.146v-1.465h-1.196c-.059,0-.104-.037-.137-.11-.032-.073-.049-.198-.049-.374,0-.091,.004-.167,.013-.229,.008-.062,.021-.111,.036-.149,.017-.038,.036-.065,.059-.083,.023-.018,.049-.027,.078-.027h2.134c.053,0,.099,.009,.14,.027,.04,.018,.076,.045,.107,.081,.03,.036,.055,.079,.07,.129,.017,.05,.024,.108,.024,.173v2.515c0,.098-.017,.183-.051,.256s-.104,.131-.21,.173c-.106,.042-.237,.086-.394,.132s-.318,.084-.485,.117c-.168,.033-.337,.057-.508,.073s-.343,.024-.516,.024c-.504,0-.956-.072-1.354-.217-.399-.145-.736-.355-1.014-.63-.276-.275-.488-.61-.635-1.006s-.22-.844-.22-1.345c0-.518,.078-.982,.234-1.394s.378-.762,.664-1.05c.287-.288,.633-.509,1.038-.662s.856-.229,1.354-.229c.273,0,.522,.019,.747,.056s.421,.083,.589,.137c.167,.054,.307,.111,.417,.173,.111,.062,.188,.116,.232,.161,.044,.045,.075,.11,.095,.193s.029,.206,.029,.369Z"/><path class="cls-2" d="M153.947,56.65c0,.387-.057,.734-.171,1.04-.113,.306-.281,.565-.503,.776-.221,.211-.494,.373-.82,.483-.325,.111-.699,.166-1.123,.166-.396,0-.753-.05-1.069-.149-.315-.099-.582-.25-.801-.452-.218-.202-.385-.453-.5-.754-.116-.301-.174-.653-.174-1.057v-3.843c0-.033,.01-.062,.029-.088s.055-.047,.105-.063c.05-.016,.116-.029,.197-.039,.082-.01,.186-.015,.312-.015,.124,0,.227,.005,.308,.015,.082,.01,.146,.023,.195,.039s.084,.038,.105,.063c.021,.026,.031,.055,.031,.088v3.73c0,.25,.031,.468,.093,.652,.062,.184,.15,.336,.267,.457,.115,.121,.254,.211,.415,.271s.341,.09,.539,.09c.202,0,.383-.031,.542-.093,.16-.062,.295-.152,.405-.271,.111-.119,.196-.265,.257-.439,.06-.174,.09-.372,.09-.593v-3.804c0-.033,.01-.062,.029-.088s.054-.047,.103-.063,.115-.029,.198-.039,.187-.015,.31-.015c.124,0,.226,.005,.306,.015,.079,.01,.144,.023,.192,.039s.083,.038,.103,.063,.029,.055,.029,.088v3.789Z"/><path class="cls-2" d="M175.984,53.213c0,.094-.004,.175-.012,.242s-.02,.121-.037,.161c-.016,.041-.037,.071-.061,.09-.025,.02-.051,.029-.08,.029h-1.583v5.093c0,.033-.011,.062-.031,.088-.021,.026-.057,.047-.105,.063s-.114,.029-.197,.039-.187,.015-.311,.015c-.123,0-.227-.005-.31-.015s-.149-.023-.198-.039-.084-.038-.104-.063c-.021-.026-.032-.055-.032-.088v-5.093h-1.582c-.032,0-.06-.01-.083-.029-.022-.02-.042-.05-.059-.09-.016-.041-.028-.094-.036-.161-.009-.067-.013-.147-.013-.242,0-.098,.004-.181,.013-.249,.008-.068,.021-.123,.036-.164,.017-.041,.036-.07,.059-.088,.023-.018,.051-.027,.083-.027h4.454c.029,0,.055,.009,.08,.027,.023,.018,.045,.047,.061,.088,.018,.041,.029,.095,.037,.164s.012,.151,.012,.249Z"/><path class="cls-2" d="M188.524,58.525c.039,.117,.063,.21,.073,.278s-.003,.12-.039,.154-.1,.055-.19,.063-.217,.012-.376,.012c-.166,0-.295-.002-.389-.007-.092-.005-.163-.015-.212-.029s-.083-.035-.103-.061-.036-.06-.049-.103l-.425-1.27h-2.373l-.4,1.235c-.013,.045-.03,.084-.052,.115-.021,.031-.055,.055-.102,.073-.048,.018-.114,.03-.201,.037-.086,.006-.199,.01-.339,.01-.149,0-.267-.005-.352-.015s-.144-.033-.176-.071-.044-.09-.034-.159,.034-.16,.073-.273l1.948-5.605c.02-.055,.042-.1,.068-.134s.067-.06,.125-.078c.057-.018,.136-.029,.236-.034s.234-.007,.4-.007c.192,0,.345,.002,.459,.007s.203,.016,.266,.034c.064,.018,.109,.045,.137,.081,.028,.036,.052,.084,.071,.146l1.953,5.601Zm-2.9-4.634h-.005l-.894,2.686h1.792l-.894-2.686Z"/><path class="cls-2" d="M201.147,57.109c0,.225-.031,.428-.093,.61s-.147,.343-.257,.483c-.108,.14-.238,.26-.391,.361-.15,.101-.317,.184-.5,.249-.183,.065-.377,.113-.584,.144-.206,.031-.437,.046-.69,.046h-1.68c-.107,0-.198-.032-.271-.095-.074-.063-.11-.167-.11-.31v-5.508c0-.143,.036-.247,.11-.31,.072-.063,.163-.095,.271-.095h1.587c.388,0,.715,.033,.984,.098,.268,.065,.494,.164,.678,.295,.185,.132,.325,.299,.423,.5s.146,.439,.146,.713c0,.153-.02,.297-.059,.432s-.096,.258-.171,.369-.167,.208-.275,.293c-.109,.084-.234,.153-.374,.205,.179,.033,.345,.089,.495,.171,.152,.082,.283,.187,.396,.315,.111,.128,.2,.279,.266,.452s.098,.366,.098,.581Zm-1.66-2.661c0-.127-.02-.241-.059-.342s-.098-.185-.176-.251-.177-.118-.295-.154c-.119-.036-.278-.054-.477-.054h-.649v1.641h.718c.186,0,.334-.022,.444-.066s.202-.104,.276-.181c.072-.077,.127-.166,.163-.269s.054-.211,.054-.325Zm.327,2.705c0-.146-.024-.277-.073-.393s-.12-.212-.215-.291-.215-.138-.361-.181-.337-.063-.571-.063h-.762v1.797h.928c.179,0,.329-.019,.452-.056,.121-.038,.228-.093,.316-.166,.09-.073,.16-.165,.211-.273,.05-.109,.075-.233,.075-.374Z"/><path class="cls-2" d="M213.087,58.501c0,.094-.004,.173-.012,.237-.009,.063-.021,.115-.037,.154s-.037,.067-.061,.085c-.025,.018-.052,.027-.081,.027h-3.174c-.107,0-.198-.032-.271-.095-.074-.063-.11-.167-.11-.31v-5.508c0-.143,.036-.247,.11-.31,.072-.063,.163-.095,.271-.095h3.154c.029,0,.056,.008,.078,.024s.042,.045,.059,.085,.028,.093,.036,.156c.009,.063,.013,.144,.013,.242,0,.091-.004,.168-.013,.232-.008,.063-.02,.115-.036,.154s-.036,.067-.059,.085-.049,.027-.078,.027h-2.256v1.543h1.909c.029,0,.057,.009,.08,.027,.025,.018,.045,.045,.062,.083s.028,.088,.036,.151c.009,.063,.013,.141,.013,.232,0,.094-.004,.172-.013,.234-.008,.062-.02,.111-.036,.149s-.036,.064-.062,.081c-.023,.016-.051,.024-.08,.024h-1.909v1.782h2.275c.029,0,.056,.009,.081,.027,.023,.018,.044,.046,.061,.085s.028,.09,.037,.154c.008,.063,.012,.143,.012,.237Z"/></g><path class="cls-1" d="M41.541,69.935c-19.281,0-34.968-15.687-34.968-34.968S22.26,0,41.541,0s34.967,15.686,34.967,34.967-15.686,34.968-34.967,34.968Zm0-66.935c-17.627,0-31.968,14.34-31.968,31.967s14.341,31.968,31.968,31.968,31.967-14.341,31.967-31.968S59.168,3,41.541,3Z"/></svg>