<svg xmlns="http://www.w3.org/2000/svg" width="209.487" height="61.323" viewBox="0 0 209.487 61.323"><g transform="translate(0 0)"><g transform="translate(77.207 10.663)"><path d="M309.036,187.513a2.852,2.852,0,0,1,.549-.065,3.6,3.6,0,0,1,.613.065,2.855,2.855,0,0,0,.58.065,1.464,1.464,0,0,0,.356-.032,1.08,1.08,0,0,1,.323-.033,1.843,1.843,0,0,1,.58.1,2.7,2.7,0,0,0,.549.162c.227.032.485.064.743.1.226.032.484.1.71.129.162.033.29.1.452.129a1.6,1.6,0,0,0,.419.162,2.676,2.676,0,0,0,.42.1c.194.033.386.1.549.13a3.233,3.233,0,0,1,.484.226.445.445,0,0,1,.193.355.979.979,0,0,1-.128.419,3.709,3.709,0,0,1-.323.613,3.9,3.9,0,0,1-.388.549.614.614,0,0,1-.386.226.394.394,0,0,1-.29-.13.551.551,0,0,0-.322-.1c-.1,0-.194.13-.291.355a1.494,1.494,0,0,0-.194.516,3.236,3.236,0,0,0-.226.484,3.8,3.8,0,0,1-.258.517c-.29.419-.549.871-.807,1.291s-.548.872-.839,1.291a3.331,3.331,0,0,0-.258.355.86.86,0,0,0-.161.419.56.56,0,0,0,.193.355,1.561,1.561,0,0,0,.42.355,3.253,3.253,0,0,0,.452.258.678.678,0,0,0,.355.129,1.133,1.133,0,0,0,.386.258,1.332,1.332,0,0,1,.355.226c.226.162.42.322.614.484s.386.322.613.484a4.567,4.567,0,0,0,.485.354,2.432,2.432,0,0,1,.45.388,2,2,0,0,1,.647.419l.549.549a2.939,2.939,0,0,0,.677.581,3.531,3.531,0,0,1,.581.646c.033.064.1.194.195.387s.226.387.322.581a4.892,4.892,0,0,0,.29.581,1.162,1.162,0,0,1,.13.355,1.105,1.105,0,0,1,.032.322v.968a.245.245,0,0,1-.032.162.191.191,0,0,0-.033.129,1.636,1.636,0,0,0,.065.387,1.583,1.583,0,0,1,.032.387c0,.162-.032.258-.129.29a1.412,1.412,0,0,1-.419.065,1.107,1.107,0,0,1-.323-.032h-.355a1.45,1.45,0,0,0-.646.129,1.618,1.618,0,0,1-.484.162c-.161,0-.226-.13-.258-.387-.033-.226-.065-.42-.065-.517s0-.129.032-.162a.4.4,0,0,1,.033-.194.242.242,0,0,0,.032-.161,2.23,2.23,0,0,0-.1-.452c-.065-.226-.129-.452-.226-.711s-.161-.484-.258-.71-.161-.354-.194-.419a2.4,2.4,0,0,0-.548-.582c-.227-.161-.421-.354-.647-.516-.258-.194-.581-.484-1-.839s-.871-.743-1.323-1.1c-.484-.355-.936-.646-1.387-.936a2.452,2.452,0,0,0-1.162-.387.613.613,0,0,0-.42.162,2.006,2.006,0,0,0-.322.387,4.637,4.637,0,0,1-.453.516c-.226.226-.45.452-.709.678a8.4,8.4,0,0,0-.775.679,4.932,4.932,0,0,1-.613.484,4.435,4.435,0,0,0-.484.354,5.853,5.853,0,0,0-.453.388c-.032.064-.1.128-.128.193a.572.572,0,0,1-.227.162,1.507,1.507,0,0,1-.484.194,3.248,3.248,0,0,0-.451.258,4.6,4.6,0,0,0-.582.484,2.786,2.786,0,0,1-.581.452,1.3,1.3,0,0,1-.29.161c-.1.033-.226.1-.322.13-.162.1-.323.194-.484.29s-.355.162-.517.258l-.291.1c-.1.033-.193.1-.29.13a1.311,1.311,0,0,0-.226.064c-.1.065-.226.13-.322.194a1.988,1.988,0,0,1-.323.226.821.821,0,0,1-.258.162,7.013,7.013,0,0,1-1.679.742c-.58.162-1.161.355-1.775.517a3.028,3.028,0,0,0-.678.29,1.3,1.3,0,0,1-.71.226.511.511,0,0,1-.484-.355c-.1-.161-.227-.419-.388-.742a1.707,1.707,0,0,1-.258-.743.4.4,0,0,1,.194-.323,2.009,2.009,0,0,1,.452-.226,2.917,2.917,0,0,1,.484-.162,3.378,3.378,0,0,0,.419-.129.95.95,0,0,1,.29-.064.454.454,0,0,0,.29-.033,1.778,1.778,0,0,1,.258-.129,3.526,3.526,0,0,1,.354-.195c.1-.064.226-.128.323-.193a.931.931,0,0,0,.162-.13,1.507,1.507,0,0,1,.484-.194c.162-.032.355-.064.516-.1.1-.032.227-.1.322-.129s.195-.1.29-.129a6.469,6.469,0,0,0,1.033-.582,10.958,10.958,0,0,1,1.034-.549c.16-.1.354-.226.515-.322s.356-.226.517-.322a.7.7,0,0,0,.258-.162.552.552,0,0,1,.194-.194,3.115,3.115,0,0,1,.548-.322c.163-.1.355-.162.549-.258a.571.571,0,0,0,.227-.162.84.84,0,0,1,.194-.161.575.575,0,0,1,.226-.162,1.625,1.625,0,0,1,.226-.1.578.578,0,0,0,.226-.161.332.332,0,0,1,.194-.163,1.214,1.214,0,0,0,.354-.354,1.454,1.454,0,0,1,.258-.355,3.907,3.907,0,0,1,.775-.678,4.816,4.816,0,0,0,.742-.678,2,2,0,0,0,.29-.387,3.357,3.357,0,0,1,.291-.355,6.108,6.108,0,0,1,.484-.452,1.821,1.821,0,0,0,.451-.419,4.943,4.943,0,0,1,.29-.419,4.849,4.849,0,0,0,.258-.42.951.951,0,0,1,.258-.258.891.891,0,0,0,.226-.258,5.057,5.057,0,0,0,.419-.711,3.939,3.939,0,0,1,.42-.678c.1-.161.258-.354.451-.645a9.927,9.927,0,0,0,.516-.872c.162-.29.323-.58.453-.871a2.426,2.426,0,0,0,.161-.71c0-.1-.032-.13-.129-.13-.032.033-.129.033-.258.033a1.184,1.184,0,0,1-.354-.033,1.592,1.592,0,0,0-.388-.032c-.033-.032-.129-.032-.258-.032a2.791,2.791,0,0,0-.516.032,2.812,2.812,0,0,1-.517.032h-.969c-.354.033-.677.033-1,.033-.872,0-1.744,0-2.615-.033h-2.614a1.08,1.08,0,0,0-.323.033,1.155,1.155,0,0,1-.323.065,2.879,2.879,0,0,1-.549-.065,3.437,3.437,0,0,0-.581-.033,1.083,1.083,0,0,0-.322.033,1.1,1.1,0,0,1-.322.032h-.226a.293.293,0,0,1-.258-.032c-.29,0-.452-.129-.452-.355a.9.9,0,0,1,.032-.29.857.857,0,0,0,.034-.29v-.775a.53.53,0,0,1,.258-.484,1.383,1.383,0,0,1,.549-.1h1.484a1.162,1.162,0,0,1,.354.064,1.152,1.152,0,0,0,.355.065,2.807,2.807,0,0,0,.517-.032,2.4,2.4,0,0,1,.483-.033h.937a8.589,8.589,0,0,0,.935-.064,3.988,3.988,0,0,1,.871-.1,4.28,4.28,0,0,1,.646.065,3.616,3.616,0,0,0,.614.064h1.452A1.5,1.5,0,0,0,309.036,187.513Z" transform="translate(-294.06 -180.993)" fill="#fff"/><path d="M352.49,186.629a.274.274,0,0,0,.195.065,3.738,3.738,0,0,0,.613-.032,3.652,3.652,0,0,1,.614-.033,7.444,7.444,0,0,1,.806.065,6.138,6.138,0,0,0,.775.065h.646c.226.032.451.064.646.1a6.163,6.163,0,0,1,.71.194c.29.1.549.194.839.322a4.1,4.1,0,0,1,.742.452.719.719,0,0,1,.29.549.989.989,0,0,1-.1.355,2.9,2.9,0,0,1-.227.451,2.037,2.037,0,0,1-.322.387.6.6,0,0,1-.323.162.194.194,0,0,1-.193-.1.251.251,0,0,0-.227-.1h-.064c-.032.032-.032.032-.065.032a2.025,2.025,0,0,0-.194.29c-.1.162-.194.355-.29.549a5.059,5.059,0,0,1-.29.581,1.134,1.134,0,0,0-.129.322v.1a.2.2,0,0,0-.032.129c-.034.032-.034.1-.034.194a1.946,1.946,0,0,1-.161.581,4.9,4.9,0,0,1-.29.581,1.358,1.358,0,0,0-.162.29l-.194.29c-.1.1-.162.194-.258.226a.389.389,0,0,0-.227.226c-.129.29-.226.581-.322.871a2.946,2.946,0,0,1-.419.839c-.291.419-.614.839-.936,1.259q-.533.629-1.066,1.162a5.153,5.153,0,0,0-.484.614,3.243,3.243,0,0,1-.516.613,5.533,5.533,0,0,1-.678.581c-.226.194-.485.387-.71.581a5.437,5.437,0,0,0-.743.743,4.019,4.019,0,0,1-.807.678,1.832,1.832,0,0,1-.42.258,1.814,1.814,0,0,0-.419.258,1.679,1.679,0,0,0-.451.387,2.544,2.544,0,0,1-.485.387,1.689,1.689,0,0,1-.419.226,1.73,1.73,0,0,0-.42.227,4.634,4.634,0,0,0-.581.386,2.409,2.409,0,0,1-.613.387.334.334,0,0,0-.194.162.584.584,0,0,1-.226.162,1.511,1.511,0,0,1-.71.29,1.5,1.5,0,0,0-.743.29,1.8,1.8,0,0,0-.258.194,1.738,1.738,0,0,1-.29.226,7.922,7.922,0,0,1-1.614.711,1,1,0,0,0-.42.194,2.354,2.354,0,0,1-.386.226,1.855,1.855,0,0,1-.387.13,1.616,1.616,0,0,0-.42.129,10.622,10.622,0,0,1-1.033.484,3.049,3.049,0,0,1-1.13.226.923.923,0,0,1-.548-.13.943.943,0,0,1-.356-.355,3.654,3.654,0,0,1-.258-.484,3.609,3.609,0,0,0-.226-.516,1.647,1.647,0,0,0-.1-.226.474.474,0,0,1-.033-.227c0-.226.13-.354.42-.452a5.3,5.3,0,0,0,.614-.226,2.777,2.777,0,0,0,1.451-.419,13.816,13.816,0,0,1,1.356-.711,9.851,9.851,0,0,1,1.065-.387,5.43,5.43,0,0,0,.935-.387c.355-.194.711-.387,1.066-.549s.743-.29,1.1-.451a1.342,1.342,0,0,0,.42-.258,2,2,0,0,1,.387-.258l.678-.387a3.6,3.6,0,0,0,.646-.42c.194-.161.386-.322.549-.484a1.962,1.962,0,0,1,.613-.386c.1,0,.258-.13.451-.355a.924.924,0,0,1,.453-.387.689.689,0,0,1,.258-.162,1.094,1.094,0,0,0,.258-.162,2.536,2.536,0,0,0,.42-.419,2.184,2.184,0,0,1,.355-.419c.161-.162.387-.355.678-.646s.581-.581.871-.9c.29-.291.549-.614.807-.9a3.393,3.393,0,0,0,.452-.678,1.83,1.83,0,0,1,.419-.581,2.355,2.355,0,0,0,.485-.549,4.177,4.177,0,0,0,.451-1.033,7.341,7.341,0,0,1,.42-1.065,4.612,4.612,0,0,1,.387-.711c.1-.161.194-.354.29-.516a2.771,2.771,0,0,0,.161-.613,5.461,5.461,0,0,0,.066-.839c0-.162-.033-.258-.1-.29a.877.877,0,0,0-.29-.033,3.641,3.641,0,0,0-.613.033,4.408,4.408,0,0,1-.646.065c-.484,0-.968-.033-1.452-.065s-.935-.065-1.42-.065h-.807a2.3,2.3,0,0,1-.451.032,2.173,2.173,0,0,0-.29.065.339.339,0,0,0-.194.162l-.193.194a1.4,1.4,0,0,0-.322.484,4.814,4.814,0,0,1-.291.419,1.839,1.839,0,0,1-.354.355,2.249,2.249,0,0,0-.42.355c-.258.29-.516.549-.743.807-.258.29-.516.549-.775.807a1.844,1.844,0,0,1-.58.387,1.827,1.827,0,0,0-.582.387,11.531,11.531,0,0,1-.871.807,5.978,5.978,0,0,1-1.032.711,1.352,1.352,0,0,0-.226.129,1.146,1.146,0,0,0-.258.162,1.4,1.4,0,0,1-.29.161,6.248,6.248,0,0,0-.968.42q-.533.29-.968.581a1.372,1.372,0,0,1-.322.129,1.5,1.5,0,0,0-.323.162,4.76,4.76,0,0,0-.516.355.878.878,0,0,1-.549.226.638.638,0,0,1-.452-.194,1.192,1.192,0,0,1-.386-.419,2.74,2.74,0,0,1-.258-.549,1.59,1.59,0,0,1-.1-.484.538.538,0,0,1,.162-.387,1.7,1.7,0,0,1,.354-.258,3.559,3.559,0,0,1,.355-.194c.1-.032.226-.1.323-.129a.837.837,0,0,0,.354-.227.681.681,0,0,1,.323-.194,4.864,4.864,0,0,0,.58-.258c.162-.064.356-.161.55-.258a2.462,2.462,0,0,0,.452-.355,5.493,5.493,0,0,1,.451-.322c.29-.194.678-.419,1.1-.646a4.179,4.179,0,0,0,.968-.71c.387-.388.806-.775,1.227-1.13.226-.226.451-.452.646-.678a5.525,5.525,0,0,1,.581-.711c.387-.452.71-.839.936-1.162a9.733,9.733,0,0,0,.645-.936,10.213,10.213,0,0,0,.484-1.033c.13-.354.29-.839.484-1.387a3.206,3.206,0,0,1,.162-.517,1.285,1.285,0,0,0,.1-.484v-.322a1.108,1.108,0,0,1-.032-.322,2.783,2.783,0,0,1,.065-.517c.032-.162.161-.226.386-.226a.654.654,0,0,1,.291-.065.785.785,0,0,0,.258.033c.162,0,.387.032.743.064a1.12,1.12,0,0,1,.645.226.636.636,0,0,1,.13.258v.322a7.743,7.743,0,0,1-.162,1.485,5.87,5.87,0,0,0-.194,1.484c0,.291.065.485.226.549a1.149,1.149,0,0,0,.614.13h1.323c.1,0,.129,0,.162.032Zm5.616-1.549a.29.29,0,0,1-.193.194.531.531,0,0,1-.323.033,2.1,2.1,0,0,0-.484-.033h-.355c-.064,0-.1,0-.129.033a.2.2,0,0,0-.13.032.192.192,0,0,1-.128.032c-.1,0-.13-.032-.13-.1a5.135,5.135,0,0,0-.033-.71,4.869,4.869,0,0,1-.064-.678v-.517a1.409,1.409,0,0,1,.032-.516,1.442,1.442,0,0,0,.065-.322c.032-.033.032-.13.032-.226v-1.033a2,2,0,0,0-.032-.419,1.678,1.678,0,0,1-.033-.42,1.1,1.1,0,0,1,.033-.29c.032-.1.065-.161.162-.161a.645.645,0,0,1,.354.1h.452a.9.9,0,0,0,.29-.032.879.879,0,0,1,.29-.033c.162,0,.258.065.258.226v.1a.617.617,0,0,0-.1.322v.355a2.539,2.539,0,0,0,.064.451,3.5,3.5,0,0,1,.065.582,6.55,6.55,0,0,1-.032.807,6.368,6.368,0,0,0-.033.807,1.92,1.92,0,0,0,.065.452,1.924,1.924,0,0,1,.064.452A2.167,2.167,0,0,1,358.106,185.08Zm3.648.13a2.759,2.759,0,0,1-.968.161.851.851,0,0,1-.452-.1c-.1-.032-.162-.194-.162-.419a2.009,2.009,0,0,1,.032-.42v-.386a2.526,2.526,0,0,0-.064-.485,2.511,2.511,0,0,1-.065-.484,6.366,6.366,0,0,1,.1-1.1c.032-.258.065-.517.1-.775v-.775a.817.817,0,0,1,.032-.322.483.483,0,0,1,.13-.1.2.2,0,0,1,.129-.032h.936a2.8,2.8,0,0,0,.517.032.469.469,0,0,1-.033.226.616.616,0,0,0-.064.258,2.508,2.508,0,0,0,.064.484,2.457,2.457,0,0,1,.065.484v.387a1.591,1.591,0,0,0-.032.388,3.342,3.342,0,0,0,.032.548,3.353,3.353,0,0,1,.032.549,1.107,1.107,0,0,1-.032.322,1.113,1.113,0,0,0-.032.323.47.47,0,0,0,.064.226.482.482,0,0,1,.032.226C362.108,184.855,361.98,185.112,361.754,185.21Z" transform="translate(-299.715 -179.981)" fill="#fff"/><path d="M378.994,206.123v-.614a.9.9,0,0,1,.032-.29.635.635,0,0,0,.032-.258v-6.326a.41.41,0,0,0-.032-.194.415.415,0,0,1-.032-.194c0-.517,0-1.033.032-1.581.032-.517.032-1.033.032-1.55a1.582,1.582,0,0,0-.032-.387,1.156,1.156,0,0,1-.064-.322c0-.387.032-.775.064-1.162s.032-.775.032-1.163v-.29a1.712,1.712,0,0,1-.032-.419c-.032-.129-.032-.258-.064-.355s-.1-.162-.129-.162a.246.246,0,0,0-.162.065c-.226.162-.484.29-.711.452-.258.162-.516.322-.743.484a12.922,12.922,0,0,1-1.129.646l-1.163.581a.862.862,0,0,0-.194.162.43.43,0,0,1-.258.1c-.1,0-.194-.1-.355-.258a2.487,2.487,0,0,1-.42-.549,3.4,3.4,0,0,1-.386-.646,1.532,1.532,0,0,1-.162-.451.312.312,0,0,1,.195-.291,1.422,1.422,0,0,0,.29-.161c.129-.065.258-.13.419-.226.162-.065.29-.13.42-.194a1.639,1.639,0,0,1,.29-.064.75.75,0,0,0,.29-.194.746.746,0,0,1,.388-.195.756.756,0,0,0,.29-.193,1.287,1.287,0,0,1,.29-.162,2.009,2.009,0,0,0,.452-.226,1.959,1.959,0,0,1,.386-.29,1.4,1.4,0,0,1,.227-.13c.065-.032.129-.1.194-.129.355-.226.743-.452,1.1-.71s.743-.517,1.1-.743a11.879,11.879,0,0,0,1.323-1.066c.419-.419.839-.806,1.195-1.162a2.084,2.084,0,0,1,.387-.387c.194-.161.322-.29.354-.322a1.511,1.511,0,0,0,.355-.322c.1-.13.194-.258.258-.355.032-.033.032-.065.064-.1.032,0,.065-.032.1-.065a1.3,1.3,0,0,0,.354-.451,5.384,5.384,0,0,1,.323-.452,1.577,1.577,0,0,1,.386-.42,1.527,1.527,0,0,0,.355-.419,5.357,5.357,0,0,0,.388-.614c.161-.29.29-.484.322-.581a3.517,3.517,0,0,0,.387-.419c.032-.1.227-.13.516-.13a.48.48,0,0,0,.226-.032,3.345,3.345,0,0,0,.549-.032h.582a3.958,3.958,0,0,1,.581.032.851.851,0,0,1,.483.226,3.33,3.33,0,0,1,.29.355,2.04,2.04,0,0,0,.291.387,3.9,3.9,0,0,1,.354.388,4,4,0,0,0,.355.386c.549.614,1.162,1.259,1.808,1.872a18.621,18.621,0,0,0,2,1.646c.1.065.226.162.355.258a.7.7,0,0,0,.29.258.592.592,0,0,0,.258.194,1.217,1.217,0,0,0,.322.194c.355.258.743.516,1.1.807a4.131,4.131,0,0,0,1.163.646,2.119,2.119,0,0,1,.516.29,1.857,1.857,0,0,0,.516.355,6.044,6.044,0,0,0,.807.354,2.984,2.984,0,0,1,.775.42,3.955,3.955,0,0,0,1.13.516,4.992,4.992,0,0,1,1.1.549.294.294,0,0,1,.13.194.637.637,0,0,1,.032.226.837.837,0,0,1-.1.354,2.457,2.457,0,0,1-.226.387,2.039,2.039,0,0,1-.29.387,1.479,1.479,0,0,0-.226.323.633.633,0,0,1-.548.29,3.535,3.535,0,0,1-.9-.355c-.484-.226-1-.517-1.549-.807s-1.066-.58-1.549-.87-.807-.452-.936-.517a1.683,1.683,0,0,0-.065.355,8.569,8.569,0,0,0,.065.9,8.535,8.535,0,0,1,.032.9.484.484,0,0,1-.032.226.951.951,0,0,0-.065.29c0,.29.033.614.065.936s.032.646.032.936v.1c-.032.032-.032.1-.064.129a1.4,1.4,0,0,0-.033.581v.678a3.643,3.643,0,0,0,.033.614,4.352,4.352,0,0,1,.032.645,4.147,4.147,0,0,1-.032.646,4.686,4.686,0,0,0-.033.678v.387a.523.523,0,0,0,.1.355.58.58,0,0,0,.226-.161c.1-.1.226-.195.356-.323s.257-.258.386-.387a1.469,1.469,0,0,1,.323-.226,1.52,1.52,0,0,1,.451.161c.194.129.388.291.613.452a4.691,4.691,0,0,1,.582.517.613.613,0,0,1,.226.386.216.216,0,0,1-.129.226c-.1.064-.162.129-.226.162-.29.258-.646.548-1.034.9a5.558,5.558,0,0,1-1.1.807l-.775.484a7.16,7.16,0,0,0-.742.581,2.3,2.3,0,0,1-.742.516,5.255,5.255,0,0,0-.872.516c-.032.033-.1.065-.129.1-.065.033-.1.065-.1.13,0,.162.226.322.678.548a14.328,14.328,0,0,0,1.517.647,16.693,16.693,0,0,0,1.646.58c.516.195.871.323,1.033.388a.959.959,0,0,0,.614.1,1.309,1.309,0,0,1,.613.13,3.1,3.1,0,0,0,.484.1c.226.032.42.1.645.129s.42.1.582.129c.162.065.258.13.258.227a1.278,1.278,0,0,1-.194.516c-.129.226-.258.452-.419.711-.161.226-.355.452-.517.646-.193.161-.322.258-.419.258h-.194a.14.14,0,0,0-.161.033c-.226-.1-.485-.194-.743-.29s-.517-.162-.743-.226a.413.413,0,0,0-.194-.032.274.274,0,0,1-.194-.065,1.462,1.462,0,0,1-.581-.129,3.652,3.652,0,0,0-.614-.226,9.968,9.968,0,0,1-1.032-.355c-.323-.129-.678-.258-1.034-.419a3.359,3.359,0,0,0-.354-.194,2.365,2.365,0,0,0-.387-.226c-.194-.1-.387-.194-.613-.29a4.856,4.856,0,0,1-.582-.29,7.071,7.071,0,0,1-.806-.549c-.258-.161-.516-.355-.807-.516a7.352,7.352,0,0,1-.9-.775c-.387-.354-.71-.613-.936-.807-.483-.452-.968-.936-1.419-1.42a2.929,2.929,0,0,1-.42-.613,11.963,11.963,0,0,0-.614-1.033,11.54,11.54,0,0,0-.71-.936c-.032-.032-.032-.064-.064-.1a.2.2,0,0,0-.13-.032c-.451,0-.9,0-1.323.032-.451.033-.9.033-1.355.033a4.7,4.7,0,0,1-.679-.033,5.261,5.261,0,0,0-.71-.032c-.161,0-.29.032-.322.1a.517.517,0,0,0-.1.354,1.728,1.728,0,0,0,.032.42,2.1,2.1,0,0,1,.033.452.878.878,0,0,1-.033.29.9.9,0,0,0-.032.29,5.276,5.276,0,0,0,.032.71,5.149,5.149,0,0,1,.033.711.4.4,0,0,1-.033.194.413.413,0,0,0-.032.194.631.631,0,0,0,.032.258.621.621,0,0,1,.033.258.468.468,0,0,1-.033.226.415.415,0,0,0-.032.194,8.361,8.361,0,0,0,.065.9,4.576,4.576,0,0,1,0,.936c.226-.033.452-.1.678-.129.194-.033.42-.1.645-.13a3.924,3.924,0,0,0,.839-.194,2.232,2.232,0,0,1,.807-.129,1.843,1.843,0,0,0,.581-.1,1.5,1.5,0,0,1,.548-.1c.1-.033.13-.065.163-.065a1.348,1.348,0,0,1,.354-.064,1.091,1.091,0,0,0,.387-.033,7.291,7.291,0,0,0,1.033-.29,6.023,6.023,0,0,1,1-.194.932.932,0,0,0,.29-.065.607.607,0,0,1,.258-.065c.065,0,.13.065.162.162.032.13.1.258.129.42s.033.29.065.451a1.4,1.4,0,0,1,.033.291v.129c-.033.032-.033.1-.033.194a.118.118,0,0,0-.032.1.117.117,0,0,1-.033.1.206.206,0,0,1-.161.161,5.234,5.234,0,0,0-.549.162,3.86,3.86,0,0,1-.581.162c-.194.033-.387.1-.582.129s-.387.1-.58.13a7.452,7.452,0,0,1-.743.258c-.419.1-.9.226-1.42.354-.516.1-1,.226-1.452.322-.485.1-.775.162-.9.194a.876.876,0,0,1-.29.033.926.926,0,0,0-.29.065,7.462,7.462,0,0,1-1.776.419,2.78,2.78,0,0,0-.742.194,6.142,6.142,0,0,1-.807.162c-.032.032-.129.032-.226.064a.421.421,0,0,1-.258-.064c-.226.064-.452.129-.645.194a2.455,2.455,0,0,1-.678.1c-.033.032-.13.032-.226.032a.669.669,0,0,1-.484-.227,1.82,1.82,0,0,1-.387-.58,3.057,3.057,0,0,1-.29-.679,1.445,1.445,0,0,1-.129-.548.411.411,0,0,1,.032-.194.227.227,0,0,1,.161-.13,2.976,2.976,0,0,1,.807-.161c.29-.032.581-.032.839-.065a2.217,2.217,0,0,0,.516-.1.764.764,0,0,1,.452-.033h.1a1.142,1.142,0,0,0,.451-.1.894.894,0,0,1,.42-.1C378.929,206.51,378.962,206.317,378.994,206.123Zm14.428-15.041c-.227-.033-.453-.065-.711-.1a7.083,7.083,0,0,0-.807-.032h-.485a5.271,5.271,0,0,0-.71.032,7.9,7.9,0,0,1-1.42,0,5.271,5.271,0,0,0-.71-.032.634.634,0,0,0-.258.032.637.637,0,0,1-.258.032h-2.969a1.727,1.727,0,0,1-.42-.032,1.582,1.582,0,0,0-.387-.032.906.906,0,0,0-.29.032,1.1,1.1,0,0,1-.322.032h-1.839c-.1.032-.194.032-.291.065s-.129.064-.129.1c-.032.032-.032.032-.032.065a.484.484,0,0,0,.032.226v.226c.033.033.033.129.033.258a.47.47,0,0,1-.033.226.719.719,0,0,0-.032.258.245.245,0,0,0,.032.162v.194a1.564,1.564,0,0,0,.033.452c0,.1.129.129.354.129a5.3,5.3,0,0,0,.71-.065,5.3,5.3,0,0,1,.711-.032c.419,0,.806,0,1.227.032s.806.065,1.226.065a.4.4,0,0,0,.194-.033.482.482,0,0,1,.226-.032.907.907,0,0,1,.291.032.614.614,0,0,0,.258.033,5.337,5.337,0,0,0,.711-.065,5.272,5.272,0,0,1,.71-.032c.549,0,1.13,0,1.679.032s1.129.032,1.678.032c.355,0,.743,0,1.13-.032s.774-.032,1.13-.032c.033,0,.033,0,.065-.032h.032a1.346,1.346,0,0,0,.032-.388,2.466,2.466,0,0,0-.032-.484,2.5,2.5,0,0,1-.064-.484.9.9,0,0,1,.032-.29v-.226C393.744,191.244,393.647,191.146,393.422,191.082Zm-.839,4.2h-.065a.12.12,0,0,1-.1.032,2.764,2.764,0,0,1-.515-.065,2.813,2.813,0,0,0-.517-.032,2,2,0,0,0-.451.032,2.465,2.465,0,0,1-.485.065c-.484,0-1,0-1.485-.032s-1-.033-1.484-.033h-.194a.622.622,0,0,1-.227.033h-.226a2.463,2.463,0,0,0-.548-.065c-.356,0-.711,0-1.13-.032h-1.9a.485.485,0,0,0-.226.032.467.467,0,0,1-.226.065,2.954,2.954,0,0,0-1.065.129c-.227.1-.355.419-.355,1a2.8,2.8,0,0,0,.032.516v.517c0,.032.033.064.065.161s.064.162.1.129h.1a1.083,1.083,0,0,1,.323.033,1.1,1.1,0,0,0,.322.032H383.8a.454.454,0,0,0,.225-.065.418.418,0,0,1,.195-.032h1.9a.721.721,0,0,1,.258.032.6.6,0,0,0,.258.065,2.438,2.438,0,0,0,.484-.065,2.008,2.008,0,0,1,.452-.032,2.465,2.465,0,0,1,.484.032,2.448,2.448,0,0,0,.484.065,3.549,3.549,0,0,0,.582-.032,2.892,2.892,0,0,1,.548-.033,1.548,1.548,0,0,1,.387.033,1.633,1.633,0,0,0,.387.064,2.14,2.14,0,0,0,.451-.032h.42a7.668,7.668,0,0,0,.84-.032,2.242,2.242,0,0,0,.806-.129,1.164,1.164,0,0,0,.582-.388,1.147,1.147,0,0,0,.226-.807,2.289,2.289,0,0,0-.13-.936c-.1-.162-.386-.258-.87-.258C392.678,195.245,392.615,195.245,392.583,195.278Zm-6.165-6.488a.2.2,0,0,1-.032-.13,2.519,2.519,0,0,1,.064-.484,2,2,0,0,0,.032-.451v-.807a6.286,6.286,0,0,1-.032-.775c0-.162.13-.226.42-.258a3.837,3.837,0,0,1,.516-.032c.678,0,1.1.162,1.227.516a4.289,4.289,0,0,1,.194,1.42v.871a.308.308,0,0,0,.065.226.272.272,0,0,0,.194.065.237.237,0,0,1,.161-.033,5.118,5.118,0,0,1,.71.033,5.343,5.343,0,0,0,.711.064.478.478,0,0,0,.225-.032.487.487,0,0,1,.227-.032,1.581,1.581,0,0,1,.387.032,1.586,1.586,0,0,0,.387.032,1.166,1.166,0,0,0,.323-.064,1.071,1.071,0,0,1,.322-.033,9.529,9.529,0,0,1,.968.033c.322.032.646.032.968.032h.161a.1.1,0,0,0,.13,0c-.032-.1-.162-.162-.322-.258-.194-.1-.355-.162-.452-.226-.1-.1-.226-.194-.323-.29s-.225-.162-.322-.258l-.387-.29c-.129-.1-.258-.162-.387-.258A15.052,15.052,0,0,1,391,186.079c-.484-.484-1-.936-1.485-1.42a2.462,2.462,0,0,1-.419-.419c-.194-.226-.388-.451-.581-.678-.227-.226-.42-.419-.581-.614-.195-.161-.323-.258-.387-.258s-.13.065-.226.162a4.832,4.832,0,0,0-.322.419,4.94,4.94,0,0,1-.322.419,1.6,1.6,0,0,1-.258.323,3.514,3.514,0,0,0-.646.71c-.226.323-.451.614-.613.839q-.533.581-1.065,1.065c-.356.355-.743.711-1.1,1.065a.712.712,0,0,0-.129.162l-.162.162a2.073,2.073,0,0,1-.226.161c-.1.065-.225.13-.322.194-.1.1-.194.162-.29.258a.385.385,0,0,0-.129.258.9.9,0,0,0,.484.1,3.373,3.373,0,0,0,.516.032.716.716,0,0,0,.258-.032.482.482,0,0,1,.226-.032h3.227A.352.352,0,0,0,386.417,188.791Zm9.166,11.039a1.077,1.077,0,0,1-.322-.033,1.469,1.469,0,0,0-.356-.032c-.451,0-.9,0-1.323.032-.451.033-.9.033-1.355.033h-2.872c-.1,0-.162,0-.194-.033a.486.486,0,0,0-.227-.032,1.344,1.344,0,0,0-.387.032,1.168,1.168,0,0,0,.226.29,1.98,1.98,0,0,1,.226.323,2.389,2.389,0,0,0,.258.322c.1.1.227.258.453.484A21.622,21.622,0,0,0,391.1,202.6a2.085,2.085,0,0,0,.484.354q.29-.144.678-.387c.226-.161.484-.355.743-.549s.516-.386.775-.581a4.446,4.446,0,0,1,.678-.484,1.29,1.29,0,0,0,.323-.29,3.455,3.455,0,0,1,.322-.354.776.776,0,0,0,.322-.226c.162-.129.29-.226.323-.258Z" transform="translate(-304.782 -180.011)" fill="#fff"/><path d="M423.743,190.679a1.632,1.632,0,0,0-.549.161c-.226.129-.484.258-.743.419s-.484.355-.71.517a1.666,1.666,0,0,0-.419.387,2.167,2.167,0,0,0-.258.322,2.291,2.291,0,0,1-.807.743,1.965,1.965,0,0,0-.516.387l-.29.29c-.1.1-.226.194-.322.29-.355.227-.711.452-1,.646a8.24,8.24,0,0,1-1.065.517q-.145.048-.484.193a1.32,1.32,0,0,1-.484.13,8.248,8.248,0,0,1-.839-.032,2.983,2.983,0,0,1-.936-.13,2.125,2.125,0,0,1-.775-.355.831.831,0,0,1-.322-.71,1.868,1.868,0,0,1,.29-.968.934.934,0,0,1,.839-.484,2.451,2.451,0,0,1,.679.1,2.068,2.068,0,0,0,.646.1,2.739,2.739,0,0,0,.807-.13,3.558,3.558,0,0,0,.743-.29,1.854,1.854,0,0,0,.451-.419,1.58,1.58,0,0,1,.387-.419c.29-.258.613-.517.9-.807.29-.258.549-.516.839-.807a.994.994,0,0,1,.322-.226.416.416,0,0,0,.226-.161c.1-.1.193-.194.29-.29a2.148,2.148,0,0,1,.9-.711c.258-.1.548-.194.839-.29a4.227,4.227,0,0,1,.872-.194c.29-.032.516-.065.71-.065a5.793,5.793,0,0,1,2.712.582,7.484,7.484,0,0,1,2.066,1.807c.161.226.322.42.451.646a3.69,3.69,0,0,0,.419.646,7.165,7.165,0,0,0,.452.581c.161.194.323.355.484.517a2.941,2.941,0,0,1,.452.451c.161.226.355.484.517.711a5.753,5.753,0,0,0,.515.71,7.173,7.173,0,0,0,.9.807c.322.258.646.516.936.775.354.322.743.613,1.1.9a10.551,10.551,0,0,0,1.161.807.971.971,0,0,0,.485.161,1.6,1.6,0,0,1,.517.162,5.159,5.159,0,0,0,1.355.452,12.486,12.486,0,0,0,1.388.226c.226.033.484.065.711.1a5.309,5.309,0,0,0,.71.065.88.88,0,0,0,.29-.033h.484a.179.179,0,0,1,.162.1.575.575,0,0,1,.162.485,1.464,1.464,0,0,0,0,.548c.032.033.032.1.064.129a.356.356,0,0,1,.032.162.949.949,0,0,1-.064.29c-.032.1-.1.226-.13.323-.161.387-.387.581-.646.613a7.564,7.564,0,0,1-.935.065,2.136,2.136,0,0,1-.872-.194,2.577,2.577,0,0,0-.742-.162.181.181,0,0,1-.194.033h-.193a2.147,2.147,0,0,1-.42-.1c-.226-.032-.484-.1-.742-.161s-.485-.13-.711-.194-.387-.1-.452-.13a.855.855,0,0,1-.322-.194.764.764,0,0,0-.355-.194,4.187,4.187,0,0,1-.613-.194.87.87,0,0,1-.549-.29,6.187,6.187,0,0,0-.646-.354,2.478,2.478,0,0,1-.613-.388,11.182,11.182,0,0,1-1.162-.936c-.388-.322-.775-.678-1.13-1.032a1.831,1.831,0,0,1-.227-.29,1.587,1.587,0,0,0-.226-.258,14.268,14.268,0,0,1-1.582-1.936,1.2,1.2,0,0,1-.129-.29.649.649,0,0,0-.162-.29c-.161-.227-.419-.549-.71-.968-.29-.388-.614-.775-.936-1.195-.354-.387-.678-.743-1.032-1.065a3.472,3.472,0,0,0-.9-.582,3.359,3.359,0,0,0-.968-.128Zm12.459-.1a.524.524,0,0,1-.29.1.667.667,0,0,1-.355,0h-.322a.9.9,0,0,0-.29.032.909.909,0,0,1-.291.032c-.065,0-.1-.064-.129-.194a1.189,1.189,0,0,1-.065-.387,1.59,1.59,0,0,1-.032-.387,1.049,1.049,0,0,1-.032-.258c-.033-.032-.033-.129-.033-.226,0-.29.033-.614.065-.936a8.582,8.582,0,0,0,.064-.9v-.968a.244.244,0,0,0-.032-.162v-.194a.241.241,0,0,1-.032-.161,2.223,2.223,0,0,1,.064-.419.258.258,0,0,1,.29-.226h.291c.128.032.226.032.258.065h.323a.466.466,0,0,0,.322-.033h.194a.15.15,0,0,1,.1.162.354.354,0,0,1-.032.162.353.353,0,0,0-.032.161c-.033.033-.033.065-.033.162a2.474,2.474,0,0,0,.1.678,4.876,4.876,0,0,1,.065.678,6.858,6.858,0,0,1-.065.839,7.983,7.983,0,0,0-.064.871,2.864,2.864,0,0,0,.064.549,3.448,3.448,0,0,1,.065.678A.315.315,0,0,1,436.2,190.581Zm2.291.162a.118.118,0,0,1-.1-.032c-.033,0-.065-.032-.065-.1v-.194a1.457,1.457,0,0,1,.032-.355,1.424,1.424,0,0,0,.033-.355,6.339,6.339,0,0,0-.065-.775,6.159,6.159,0,0,1-.065-.775,2.765,2.765,0,0,1,.065-.516,2.523,2.523,0,0,0,.065-.485v-1.291c0-.227.064-.355.193-.419a1.88,1.88,0,0,1,.452-.065h.9c.161,0,.258.032.226.1a.878.878,0,0,0-.033.29,3.518,3.518,0,0,0,.066.613,3.746,3.746,0,0,1,.032.614v.322a1.466,1.466,0,0,0-.032.355.614.614,0,0,0,.064.258.9.9,0,0,1,.032.29,1.218,1.218,0,0,1-.032.354,1.589,1.589,0,0,0-.032.388,3.339,3.339,0,0,0,.032.548v.839a.165.165,0,0,1-.13.162c-.1.032-.225.064-.322.1-.129.032-.259.065-.355.1a1.043,1.043,0,0,1-.258.032h-.711Z" transform="translate(-310.215 -180.705)" fill="#fff"/></g><g transform="translate(8.689 4.259)"><path d="M245.15,217.146c-.227-.314-.672-1.355-1.08-1.389-.953-.077-1.041-1.464-.257-1.651a.218.218,0,0,1-.023-.068c0-.067.032-.1.1-.133.033-.034.1-.066.131-.1a5.14,5.14,0,0,1,.88-.531,2.314,2.314,0,0,0,.749-.532,7.491,7.491,0,0,1,.75-.6l.782-.5a5.665,5.665,0,0,0,1.108-.831c.392-.366.749-.664,1.043-.931.065-.033.131-.1.228-.167a.222.222,0,0,0,.131-.233.639.639,0,0,0-.228-.4,4.806,4.806,0,0,0-.587-.532c-.228-.166-.424-.332-.619-.465a.477.477,0,0,0-.783.067l-.391.4c-.131.133-.261.233-.359.332a.575.575,0,0,1-.228.167.543.543,0,0,1-.1-.366v-.4a4.967,4.967,0,0,1,.033-.7,4.4,4.4,0,0,0,.032-.665,4.619,4.619,0,0,0-.032-.664,3.854,3.854,0,0,1-.033-.631v-.7a1.486,1.486,0,0,1,.033-.6c.032-.033.032-.1.065-.133v-.1c0-.3,0-.632-.033-.964s-.065-.664-.065-.963a1.007,1.007,0,0,1,.065-.3.5.5,0,0,0,.033-.233,8.822,8.822,0,0,0-.033-.931,9.072,9.072,0,0,1-.065-.931,1.785,1.785,0,0,1,.065-.366l.141.073c-.5-.811-.347-1.733-.2-2.956l.015,0c0-.033.005-.067.006-.1-.3-.235-.611-.457-.9-.673a1.2,1.2,0,0,1-.326-.2.606.606,0,0,1-.261-.2.718.718,0,0,1-.294-.266c-.131-.1-.26-.2-.359-.266a19.13,19.13,0,0,1-2.021-1.695c-.652-.632-1.271-1.3-1.826-1.927a4.024,4.024,0,0,1-.358-.4,3.932,3.932,0,0,0-.359-.4,2.076,2.076,0,0,1-.293-.4,3.607,3.607,0,0,0-.294-.366.855.855,0,0,0-.489-.233,3.951,3.951,0,0,0-.586-.033h-.587c-.042.007-.083.008-.124.012a4.108,4.108,0,0,0-.594-.116c0-.08-.007-.17-.019-.278-.065-.3-.131-.6-.2-.964-.1-.366-.163-.7-.261-1.03-.1-.3-.2-.531-.228-.631a2.168,2.168,0,0,0-.2-.3.4.4,0,0,1-.13-.266,8.8,8.8,0,0,1,.033-.93,8.831,8.831,0,0,0,.033-.931,3.718,3.718,0,0,1,.065-.631,3.714,3.714,0,0,0,.066-.632,1.393,1.393,0,0,0-.13-.5c.032-.1.032-.266.065-.465s.1-.332.2-.366a5.114,5.114,0,0,0,.522-.034c.293,0,.652,0,1.043-.033H239.3a2.465,2.465,0,0,1,.489.033,1.881,1.881,0,0,0,.456.067,8.627,8.627,0,0,0,.946-.033,8.6,8.6,0,0,1,.945-.034h.848a6.371,6.371,0,0,0,.815.034,2.4,2.4,0,0,0,.488-.034,2.474,2.474,0,0,1,.489-.033,2.809,2.809,0,0,1,.522.033,2.4,2.4,0,0,0,.488.034,5.873,5.873,0,0,0,.75-.034c.228-.033.358-.2.358-.531v-.3a.952.952,0,0,1-.032-.3,1.549,1.549,0,0,1,.032-.366v-.4c-.032-.1-.065-.2-.1-.3a.394.394,0,0,0-.293-.1h-.359a1.549,1.549,0,0,1-.392.033,2.84,2.84,0,0,1-.586-.067,3.539,3.539,0,0,0-.587-.033c-.033-.033-.131-.033-.228-.033a1.157,1.157,0,0,0-.326.066,1.138,1.138,0,0,1-.326.067.88.88,0,0,1-.294-.033.878.878,0,0,0-.293-.033h-.881a1.679,1.679,0,0,0-.424.033,1.543,1.543,0,0,1-.391.033,1.5,1.5,0,0,1-.554-.1,2.806,2.806,0,0,0-.555-.067,3.556,3.556,0,0,0-.554.067,3.622,3.622,0,0,1-.554.066H237.25a2.139,2.139,0,0,1-1.238-.266c-.228-.166-.327-.565-.327-1.2V177.1a1.346,1.346,0,0,1,.1-.5,2.03,2.03,0,0,0,.065-.465,8.192,8.192,0,0,0-.033-.9,7.515,7.515,0,0,1-.032-.865,2.97,2.97,0,0,1,.032-.531,2.548,2.548,0,0,0,.033-.5.546.546,0,0,0-.1-.366.874.874,0,0,0-.359-.066H234.9a2.4,2.4,0,0,1-.488.034,3.641,3.641,0,0,0-.815.066c-.131.034-.2.3-.2.731a1.63,1.63,0,0,0,.033.4v.4a3.854,3.854,0,0,1-.033.631,3.829,3.829,0,0,0-.065.632,3.434,3.434,0,0,0,.1.831,3.422,3.422,0,0,1,.1.831,1,1,0,0,1-.065.3,1.339,1.339,0,0,0-.1.565.659.659,0,0,1-.131.465.944.944,0,0,1-.521.133,4.266,4.266,0,0,1-.653.033c-.228.033-.424.066-.652.1a1.4,1.4,0,0,1-.326.066,2.063,2.063,0,0,1-.717-.1,3.493,3.493,0,0,0-.587-.066h-1.727a.48.48,0,0,0-.228.033.7.7,0,0,1-.261.033,1.192,1.192,0,0,1-.359-.033h-.391a1.192,1.192,0,0,0-.359.033,1.191,1.191,0,0,1-.359.033,1.6,1.6,0,0,1-.392-.067,1.638,1.638,0,0,0-.424-.066,6.126,6.126,0,0,0-.782.033,6.321,6.321,0,0,1-.782.066h-4.205a1.091,1.091,0,0,1-.293-.033h-.392a1.307,1.307,0,0,0-.391.033.338.338,0,0,0-.2.167.762.762,0,0,0-.032.3,1.514,1.514,0,0,0,.1.531,3.75,3.75,0,0,1,.065.565.258.258,0,0,1-.032.167.2.2,0,0,1-.033.133.365.365,0,0,0-.033.167c0,.166.131.233.392.265a3.5,3.5,0,0,0,.521.034,3.263,3.263,0,0,0,.554-.034h.554a4.249,4.249,0,0,1,.652.034,3.653,3.653,0,0,0,.62.033.471.471,0,0,0,.228-.033c.033-.034.1-.034.2-.034h.261a1.677,1.677,0,0,0,.424.034h.392c.1,0,.2,0,.228-.034h.2a2.1,2.1,0,0,1,.456.034,1.678,1.678,0,0,0,.424.033,1.549,1.549,0,0,0,.392-.033,1.425,1.425,0,0,0,.359-.034,6.822,6.822,0,0,1,1.434-.066c.489.033.946.033,1.4.033h2.152c.686.033,1.4.033,2.12.033a.9.9,0,0,0,.293-.033.886.886,0,0,1,.294-.033.763.763,0,0,1,.488.1.743.743,0,0,1,.1.465,8.41,8.41,0,0,1-.032.9,8.88,8.88,0,0,0-.066.931v.233a.123.123,0,0,1,.033.1.123.123,0,0,0,.033.1v.1a.183.183,0,0,1-.131.2.719.719,0,0,1-.261.033,1.723,1.723,0,0,1-.424-.033,1.679,1.679,0,0,0-.424-.033h-.392a1.171,1.171,0,0,0-.359.066,2.805,2.805,0,0,1-.488.167,3.26,3.26,0,0,0-.456.266,11.363,11.363,0,0,0-1.272,1.03,4.347,4.347,0,0,0-.946,1.329,5.618,5.618,0,0,0-.359,1.895v.631a3.013,3.013,0,0,0,.066.6,4.715,4.715,0,0,0,.717,1.8,2.964,2.964,0,0,0,1.4,1.229,1.965,1.965,0,0,1,.392.167.647.647,0,0,0,.424.132.855.855,0,0,0,.456-.166,1.486,1.486,0,0,0,.326-.432,2.653,2.653,0,0,0,.228-.532,2.619,2.619,0,0,0,.065-.465.624.624,0,0,0-.228-.531,4.465,4.465,0,0,1-.554-.4,2.87,2.87,0,0,1-.521-.565,1.36,1.36,0,0,1-.261-.865,5.334,5.334,0,0,1,.1-.963,3.234,3.234,0,0,1,.326-1,3.363,3.363,0,0,1,.586-.764,1.378,1.378,0,0,1,.913-.3,1.738,1.738,0,0,1,.815.2,3.483,3.483,0,0,1,.652.565,3.251,3.251,0,0,1,.424.731,2.679,2.679,0,0,1,.163.831.953.953,0,0,1-.032.3.928.928,0,0,0-.033.3c-.033.033-.033.133-.033.233a.977.977,0,0,0,.066.3,1.294,1.294,0,0,1,.032.366,6,6,0,0,1-.065.731,4.837,4.837,0,0,1-.228.731c-.066.2-.163.465-.294.764-.163.333-.293.665-.456,1s-.293.631-.456.931a3.193,3.193,0,0,1-.456.664l-1.369,1.4a.785.785,0,0,1-.392.233,1.816,1.816,0,0,0-.424.266,7.252,7.252,0,0,1-.913.6q-.441.248-.979.5a1.891,1.891,0,0,0-.26.133c-.1.034-.2.1-.294.133a1.29,1.29,0,0,1-.488.1.8.8,0,0,0-.456.133,2.383,2.383,0,0,1-1.272.366,2.544,2.544,0,0,0-.815.166.948.948,0,0,1-.326.1c-.163.066-.261.132-.261.2,0,.033.033.1.131.2a.779.779,0,0,1,.2.3c.066.167.163.432.261.765a2.292,2.292,0,0,0,.326.7c.033.066.163.1.326.1a1.746,1.746,0,0,0,.62-.1,2.141,2.141,0,0,1,.554-.233c.163-.033.359-.067.521-.1s.359-.067.522-.1a1.339,1.339,0,0,0,.293-.167,1.3,1.3,0,0,1,.293-.167,1.6,1.6,0,0,1,.392-.066l.392-.1c.028-.006.05-.016.076-.023.011.075.021.155.041.239a1.822,1.822,0,0,0,.032.432v.3c0,.4,0,.8-.032,1.2s-.066.8-.066,1.2a1.194,1.194,0,0,0,.066.332,1.677,1.677,0,0,1,.032.4c0,.532,0,1.064-.032,1.6-.033.565-.033,1.1-.033,1.629a.427.427,0,0,0,.033.2.435.435,0,0,1,.032.2v6.514a.667.667,0,0,1-.032.265.937.937,0,0,0-.033.3v.631c-.033.2-.065.4-.1.6a.891.891,0,0,0-.424.1,1.129,1.129,0,0,1-.457.1h-.1a.755.755,0,0,0-.456.033c-.022.007-.039.009-.061.015a.885.885,0,0,1,.083.31.828.828,0,0,1,.283.268,2.129,2.129,0,0,0,1.215.91c.638-.006,1.274-.036,1.909-.082.084-.059.169-.116.25-.179a.878.878,0,0,1,.017-.172c.115-.553.219-1.107.326-1.661a.6.6,0,0,1,.05-.118c-.021,0-.041.009-.061.011a4.718,4.718,0,0,0,0-.963,8.871,8.871,0,0,1-.065-.932.437.437,0,0,1,.032-.2.5.5,0,0,0,.033-.233.651.651,0,0,0-.033-.265.674.674,0,0,1-.032-.266.435.435,0,0,1,.032-.2.427.427,0,0,0,.033-.2,5.441,5.441,0,0,0-.033-.731,5.6,5.6,0,0,1-.032-.731.952.952,0,0,1,.032-.3.933.933,0,0,0,.033-.3,2.222,2.222,0,0,0-.033-.465,1.82,1.82,0,0,1-.032-.432.54.54,0,0,1,.1-.366c.032-.066.163-.1.326-.1a5.146,5.146,0,0,1,.717.033,4.676,4.676,0,0,0,.684.033c.456,0,.914,0,1.369-.033.424-.033.881-.033,1.337-.033a.194.194,0,0,1,.131.033c.032.033.032.066.065.1.228.3.488.6.717.963s.457.731.62,1.064a3.052,3.052,0,0,0,.424.632c.456.5.946,1,1.435,1.462.228.2.554.465.945.831a7.419,7.419,0,0,0,.913.8c.294.167.554.366.815.531a7.11,7.11,0,0,0,.815.566,4.907,4.907,0,0,0,.587.3c.228.1.424.2.619.3a2.469,2.469,0,0,1,.392.233,3.52,3.52,0,0,1,.359.2c.355.165.711.3,1.034.428A5.15,5.15,0,0,1,245.15,217.146ZM233.436,198a6.723,6.723,0,0,0,.456-.531c.131-.167.261-.333.424-.532.13-.2.326-.465.554-.764.1-.1.2-.233.293-.332a1.9,1.9,0,0,0,.228-.3,9.016,9.016,0,0,0,.456-.964,11.855,11.855,0,0,0,.424-1.3c.131-.432.261-.864.359-1.3.01-.046.016-.083.024-.126a3.169,3.169,0,0,1,1.26.206c.052.041.1.078.169.136.163.2.359.4.587.632q.293.349.587.7a2.519,2.519,0,0,0,.424.433c.489.5,1.01.963,1.5,1.462a15.431,15.431,0,0,0,1.565,1.362c.131.1.261.167.392.266l.391.3c.1.1.228.167.326.266s.228.2.326.3c.1.067.261.133.456.233.163.1.294.167.327.266a.1.1,0,0,1-.131,0h-.163c-.326,0-.652,0-.978-.033a9.553,9.553,0,0,0-.979-.033,1.081,1.081,0,0,0-.326.033,1.158,1.158,0,0,1-.326.066,1.54,1.54,0,0,1-.391-.033,1.589,1.589,0,0,0-.392-.033.484.484,0,0,0-.228.033.471.471,0,0,1-.228.033,5.333,5.333,0,0,1-.717-.066,5.139,5.139,0,0,0-.717-.033.24.24,0,0,0-.163.033.27.27,0,0,1-.2-.067.321.321,0,0,1-.066-.233v-.9a4.51,4.51,0,0,0-.2-1.463c-.131-.365-.554-.531-1.239-.531a3.742,3.742,0,0,0-.521.033c-.294.033-.424.1-.424.265a6.488,6.488,0,0,0,.033.8v.83a2.065,2.065,0,0,1-.033.465,2.665,2.665,0,0,0-.065.5.2.2,0,0,0,.033.133.374.374,0,0,1,.032.167h-3.26a.484.484,0,0,0-.228.033.628.628,0,0,1-.222.032C233.1,198.284,233.294,198.124,233.436,198ZM231.5,201.21v-.233a.51.51,0,0,1-.032-.233c0-.033,0-.033.032-.066,0-.033.033-.067.131-.1s.2-.033.294-.066h1.858a1.081,1.081,0,0,0,.326-.033.908.908,0,0,1,.294-.033,1.582,1.582,0,0,1,.391.033,1.679,1.679,0,0,0,.424.033h3a.623.623,0,0,0,.261-.033.632.632,0,0,1,.26-.033,5.283,5.283,0,0,1,.717.033,7.7,7.7,0,0,0,1.434,0,5.288,5.288,0,0,1,.717-.033h.489a7.1,7.1,0,0,1,.815.033c.26.033.488.067.717.1.228.067.326.167.326.3v.233a.952.952,0,0,0-.032.3,2.593,2.593,0,0,0,.065.5,2.548,2.548,0,0,1,.033.5,1.383,1.383,0,0,1-.033.4h-.033c-.032.033-.032.033-.065.033-.359,0-.749,0-1.141.033s-.782.033-1.141.033c-.554,0-1.141,0-1.7-.033s-1.141-.033-1.7-.033a5.152,5.152,0,0,0-.717.033,5.326,5.326,0,0,1-.717.066.618.618,0,0,1-.261-.034.9.9,0,0,0-.293-.033.483.483,0,0,0-.228.033.406.406,0,0,1-.2.034c-.424,0-.815-.034-1.239-.066s-.815-.033-1.239-.033a5.134,5.134,0,0,0-.717.033,5.338,5.338,0,0,1-.717.066c-.228,0-.359-.034-.359-.133a1.653,1.653,0,0,1-.033-.465v-.2a.258.258,0,0,1-.032-.167.755.755,0,0,1,.032-.265.5.5,0,0,0,.033-.234C231.533,201.343,231.533,201.244,231.5,201.21Zm6.716,6.215a2.46,2.46,0,0,0-.488-.033,2.01,2.01,0,0,0-.457.033,2.447,2.447,0,0,1-.488.067.6.6,0,0,1-.261-.067.719.719,0,0,0-.261-.033h-1.923a.414.414,0,0,0-.2.033.461.461,0,0,1-.228.067h-1.5a1.08,1.08,0,0,1-.326-.033,1.08,1.08,0,0,0-.326-.033h-.1c-.033.033-.066-.033-.1-.133a1.64,1.64,0,0,1-.066-.166v-.532a2.96,2.96,0,0,1-.032-.531c0-.6.13-.931.358-1.03a2.934,2.934,0,0,1,1.076-.133.464.464,0,0,0,.228-.067.483.483,0,0,1,.228-.033h1.923c.424.033.782.033,1.141.033a2.513,2.513,0,0,1,.554.067h.228a.622.622,0,0,0,.228-.033h.2c.489,0,1.01,0,1.5.033s1.01.033,1.5.033a2.465,2.465,0,0,0,.489-.067,1.942,1.942,0,0,1,.456-.034,2.733,2.733,0,0,1,.522.034,2.77,2.77,0,0,0,.521.067.117.117,0,0,0,.1-.033h.066c.033-.033.1-.033.2-.033.489,0,.782.1.88.266a2.421,2.421,0,0,1,.131.964,1.2,1.2,0,0,1-.228.83,1.164,1.164,0,0,1-.587.4,2.211,2.211,0,0,1-.815.133,7.442,7.442,0,0,1-.847.033h-.424a2.157,2.157,0,0,1-.456.033,1.6,1.6,0,0,1-.392-.066,1.543,1.543,0,0,0-.391-.033,2.9,2.9,0,0,0-.554.033,3.458,3.458,0,0,1-.587.033A2.456,2.456,0,0,1,238.216,207.425Zm4.237,4.985q-.39.248-.684.4a2.149,2.149,0,0,1-.489-.366,21.384,21.384,0,0,1-1.4-1.429c-.228-.233-.358-.4-.456-.5a2.246,2.246,0,0,1-.261-.332,2.053,2.053,0,0,0-.228-.332,1.2,1.2,0,0,1-.228-.3,1.307,1.307,0,0,1,.391-.033.471.471,0,0,1,.228.033c.033.033.1.033.2.033h2.9c.456,0,.913,0,1.369-.033.424-.033.88-.033,1.336-.033a1.426,1.426,0,0,1,.359.033,1.08,1.08,0,0,0,.326.033h.162c-.032.033-.162.132-.326.265a.775.775,0,0,1-.326.233,3.588,3.588,0,0,0-.326.366,1.321,1.321,0,0,1-.326.3,4.484,4.484,0,0,0-.685.5l-.782.6C242.943,212.044,242.682,212.243,242.453,212.41Z" transform="translate(-218.213 -172.911)" fill="#b40019"/><path d="M239.09,218.536a1.65,1.65,0,0,0-.554.163c-.228.13-.489.26-.75.424s-.488.359-.717.521a1.71,1.71,0,0,0-.424.392,2.257,2.257,0,0,0-.26.326,2.33,2.33,0,0,1-.261.326,2.3,2.3,0,0,1-.554.424,2.007,2.007,0,0,0-.522.391l-.293.293c-.1.1-.228.2-.326.294-.359.228-.717.456-1.011.652a8.191,8.191,0,0,1-1.076.522c-.1.032-.26.1-.488.2a1.349,1.349,0,0,1-.489.131,8.2,8.2,0,0,1-.847-.033,3.014,3.014,0,0,1-.946-.131,2.132,2.132,0,0,1-.782-.359.839.839,0,0,1-.326-.717,1.888,1.888,0,0,1,.293-.978.945.945,0,0,1,.847-.488,2.468,2.468,0,0,1,.685.1,2.111,2.111,0,0,0,.652.1,2.786,2.786,0,0,0,.814-.131,3.525,3.525,0,0,0,.75-.294,1.861,1.861,0,0,0,.456-.424,1.607,1.607,0,0,1,.391-.424c.294-.261.62-.521.913-.815.294-.261.554-.521.848-.815a1,1,0,0,1,.326-.228.416.416,0,0,0,.228-.163l.293-.293a2.1,2.1,0,0,1,.261-.294,2.039,2.039,0,0,1,.652-.424c.261-.1.555-.2.848-.294a4.293,4.293,0,0,1,.88-.2,7.16,7.16,0,0,1,.717-.065,5.864,5.864,0,0,1,2.738.586,7.571,7.571,0,0,1,2.087,1.826,7.859,7.859,0,0,1,.456.653,3.71,3.71,0,0,0,.424.652,7.3,7.3,0,0,0,.456.586c.163.2.326.36.489.522a3.038,3.038,0,0,1,.456.456c.163.228.359.489.521.717a5.855,5.855,0,0,0,.522.717,7.111,7.111,0,0,0,.913.814c.326.261.652.521.945.782.359.327.75.62,1.109.913a10.679,10.679,0,0,0,1.173.815.975.975,0,0,0,.489.163,1.588,1.588,0,0,1,.521.163,5.208,5.208,0,0,0,1.369.456,12.582,12.582,0,0,0,1.4.228c.228.033.489.065.717.1a5.268,5.268,0,0,0,.717.066.9.9,0,0,0,.294-.033h.488a.18.18,0,0,1,.163.1c.1.065.163.228.163.489a1.537,1.537,0,0,0,0,.554c.033.033.033.1.066.131a.35.35,0,0,1,.033.163.95.95,0,0,1-.066.294c-.033.1-.1.228-.131.326-.163.391-.391.587-.652.619a7.536,7.536,0,0,1-.946.066,2.165,2.165,0,0,1-.88-.2,2.58,2.58,0,0,0-.749-.163.184.184,0,0,1-.2.033h-.2a2.134,2.134,0,0,1-.424-.1c-.228-.032-.489-.1-.75-.163s-.488-.131-.717-.2-.391-.1-.456-.131a.873.873,0,0,1-.326-.2.773.773,0,0,0-.359-.2,4.16,4.16,0,0,1-.62-.2.878.878,0,0,1-.553-.293,6.525,6.525,0,0,0-.653-.359,2.459,2.459,0,0,1-.619-.392,11.344,11.344,0,0,1-1.174-.945c-.392-.326-.782-.686-1.141-1.043a1.825,1.825,0,0,1-.228-.294,1.617,1.617,0,0,0-.228-.26,14.342,14.342,0,0,1-1.6-1.956,1.179,1.179,0,0,1-.131-.293.657.657,0,0,0-.163-.294c-.163-.228-.424-.554-.717-.978-.293-.392-.619-.782-.946-1.207-.359-.391-.685-.749-1.043-1.075a3.474,3.474,0,0,0-.913-.587,3.376,3.376,0,0,0-.979-.131Zm12.583,5.447a.53.53,0,0,1-.294.1.663.663,0,0,1-.359,0H250.7a.894.894,0,0,0-.293.033.916.916,0,0,1-.293.032c-.066,0-.1-.065-.131-.2a1.208,1.208,0,0,1-.066-.392,1.61,1.61,0,0,1-.032-.391,1.042,1.042,0,0,1-.033-.261c-.033-.032-.033-.131-.033-.228,0-.293.033-.619.066-.946a8.74,8.74,0,0,0,.065-.912v-.979c0-.065,0-.131-.033-.163v-.2a.246.246,0,0,1-.032-.163,2.212,2.212,0,0,1,.065-.424.26.26,0,0,1,.293-.228h.294c.13.032.228.032.26.065h.326a.473.473,0,0,0,.327-.033h.2a.151.151,0,0,1,.1.163.362.362,0,0,1-.032.163.349.349,0,0,0-.033.163c-.033.033-.033.066-.033.163a2.488,2.488,0,0,0,.1.684,4.844,4.844,0,0,1,.066.685,6.839,6.839,0,0,1-.066.847,8.139,8.139,0,0,0-.065.88,2.908,2.908,0,0,0,.065.554,3.443,3.443,0,0,1,.066.685A.319.319,0,0,1,251.674,223.983Zm2.314.163a.122.122,0,0,1-.1-.032c-.032,0-.065-.033-.065-.1v-.2a1.455,1.455,0,0,1,.033-.359,1.487,1.487,0,0,0,.032-.359,6.3,6.3,0,0,0-.065-.782,6.261,6.261,0,0,1-.066-.782,2.835,2.835,0,0,1,.066-.521,2.5,2.5,0,0,0,.065-.489v-1.3c0-.228.066-.359.2-.424a1.917,1.917,0,0,1,.456-.066h.913c.163,0,.261.033.228.1a.923.923,0,0,0-.032.294,3.581,3.581,0,0,0,.065.619,3.715,3.715,0,0,1,.033.62v.326a1.452,1.452,0,0,0-.033.359.607.607,0,0,0,.066.26.922.922,0,0,1,.032.294,1.242,1.242,0,0,1-.032.358,1.579,1.579,0,0,0-.033.392,3.324,3.324,0,0,0,.033.554v.848a.167.167,0,0,1-.131.163c-.1.033-.228.066-.326.1-.131.033-.261.066-.359.1a1.073,1.073,0,0,1-.261.032h-.717Z" transform="translate(-219.603 -177.914)" fill="#b40019"/><path d="M263.47,211.467c-.033.033-.13.033-.261.033a4.779,4.779,0,0,1-.685-.033,4.778,4.778,0,0,0-.685-.033,2.957,2.957,0,0,0-.554.033,3.513,3.513,0,0,1-.587.033c-.065,0-.1,0-.131-.033a5.21,5.21,0,0,0-.293-1.728,12.107,12.107,0,0,0-.782-1.6,3.514,3.514,0,0,0-.587-.783l-.717-.717-.717-.717c-.261-.228-.522-.456-.815-.685h-.163a6.608,6.608,0,0,0-.88-.717c-.326-.2-.652-.391-.946-.586a2.69,2.69,0,0,1-.586-.424,2.743,2.743,0,0,0-.587-.424,8.753,8.753,0,0,1-.979-.685,8.449,8.449,0,0,1-.978-.847,4.66,4.66,0,0,1-.815-.979,3.709,3.709,0,0,1-.488-1.108,3.342,3.342,0,0,1-.1-.392,2.456,2.456,0,0,1-.065-.391,4.065,4.065,0,0,1,.1-.88,6.06,6.06,0,0,0,.131-.815v-.424a.756.756,0,0,1,.1-.294c.066-.131.131-.26.228-.424a3.386,3.386,0,0,1,.261-.359,1.624,1.624,0,0,0,.163-.228.861.861,0,0,1,.163-.2.39.39,0,0,0,.163-.163,24.754,24.754,0,0,1,1.728-2.281,7.55,7.55,0,0,1,2.217-1.761.846.846,0,0,0,.456-.293l.391-.392.359-.359a3.545,3.545,0,0,1,.359-.326c.1-.065.228-.163.456-.326a7.844,7.844,0,0,0,.652-.456,4.552,4.552,0,0,0,.587-.456c.162-.163.261-.261.261-.359a.4.4,0,0,0-.131-.293,1.659,1.659,0,0,0-.261-.228,3.549,3.549,0,0,1-.359-.326,1.7,1.7,0,0,1-.359-.326,5.509,5.509,0,0,1-.358-.555,5.191,5.191,0,0,1-.424-.717,4.169,4.169,0,0,1-.359-.782,1.609,1.609,0,0,1-.163-.587.333.333,0,0,1,.163-.261,1.409,1.409,0,0,1,.294-.131,4.59,4.59,0,0,0,.521-.163,3.189,3.189,0,0,1,.522-.163c.163-.032.26-.065.293-.065a.238.238,0,0,1,.228.2,2.506,2.506,0,0,0,.1.359,7.361,7.361,0,0,0,.685,1.336,2.342,2.342,0,0,0,1.174.88,3.177,3.177,0,0,0,.521.163,1.486,1.486,0,0,0,.521.1.92.92,0,0,0,.489-.131,1.317,1.317,0,0,1,.489-.1.678.678,0,0,1,.392.162,4.087,4.087,0,0,1,.391.359,3.335,3.335,0,0,1,.261.457,1.282,1.282,0,0,1,.1.424.766.766,0,0,1-.228.554,3.049,3.049,0,0,1-.587.521,7.331,7.331,0,0,1-.652.424c-.228.163-.424.26-.587.358a.961.961,0,0,0-.326.294,2.016,2.016,0,0,1-.392.26c-.359.163-.685.359-1.043.522a7.749,7.749,0,0,0-1.011.652,2.1,2.1,0,0,0-.293.261,3.543,3.543,0,0,0-.359.326c-.13.131-.261.228-.359.326a1.058,1.058,0,0,1-.26.2,1.316,1.316,0,0,1-.294.163,1,1,0,0,0-.326.228,1.62,1.62,0,0,0-.228.26,1.747,1.747,0,0,1-.228.294,1.289,1.289,0,0,1-.521.326,1.864,1.864,0,0,0-.522.359c-.228.228-.521.554-.847.945a12.673,12.673,0,0,0-.913,1.272,9.5,9.5,0,0,0-.75,1.369,3.091,3.091,0,0,0-.293,1.206l.033.131a4.081,4.081,0,0,0,.685,1.043,7.657,7.657,0,0,0,.913.88,5.634,5.634,0,0,1,.488.424,2.132,2.132,0,0,0,.522.424,4.872,4.872,0,0,0,.587.293c.2.1.391.2.554.294a5.152,5.152,0,0,1,.521.358,1.644,1.644,0,0,0,.522.294,1.627,1.627,0,0,1,.228.1,1.472,1.472,0,0,0,.227.1,2.694,2.694,0,0,1,.815.685,2.706,2.706,0,0,0,.782.717c.294.163.554.359.848.521a3.337,3.337,0,0,1,.717.653,4.61,4.61,0,0,1,.293.424,3.193,3.193,0,0,0,.261.456c.2.293.358.554.521.782.131.26.293.554.456.847.1.163.2.392.326.653.1.293.228.586.326.88s.163.587.261.88a3.406,3.406,0,0,1,.1.685A.613.613,0,0,1,263.47,211.467Zm.652-15.582c-.1,0-.163,0-.2-.033-.227,0-.391-.033-.424-.131a.92.92,0,0,1-.1-.489c.033-.032.033-.065.033-.13a.829.829,0,0,0,.065-.228c.033-.033.033-.1.066-.131a.12.12,0,0,1,.032-.1.244.244,0,0,1,.033-.163c-.033-.293-.1-.554-.131-.848a6.445,6.445,0,0,1-.065-.814,3.52,3.52,0,0,1,.033-.587,3.039,3.039,0,0,0,.032-.554v-.392a1.128,1.128,0,0,1-.032-.326c0-.228.065-.359.228-.391a2.443,2.443,0,0,1,.488-.033h.261c.424,0,.685.1.782.326a3.563,3.563,0,0,1,.1.913v1.3l-.1.131a2.835,2.835,0,0,1,.065.522v1.6a.754.754,0,0,1-.032.229.457.457,0,0,1-.131.228.171.171,0,0,1-.131.065.351.351,0,0,1-.162.033Zm4.368.065a.9.9,0,0,0-.293.033.894.894,0,0,1-.293.033c-.2,0-.294-.066-.327-.163a1.371,1.371,0,0,1-.032-.392,7.509,7.509,0,0,1,.032-.847V193.8a2.774,2.774,0,0,1,.033-.521,2.785,2.785,0,0,0,.033-.522,2.958,2.958,0,0,0-.033-.554,2.848,2.848,0,0,1-.065-.554.828.828,0,0,1,.032-.261,1.1,1.1,0,0,1,.033-.326c.033-.1.065-.2.1-.293a.179.179,0,0,1,.2-.131h.163a.2.2,0,0,0,.131.033.244.244,0,0,0,.163.033h.326a.351.351,0,0,0,.163-.033h.131c.131,0,.228.1.326.293a3.563,3.563,0,0,1,.163.685,6.158,6.158,0,0,1,.032.75v1.6a.96.96,0,0,1-.065.326.652.652,0,0,0-.1.358,1.646,1.646,0,0,0,.065.424,1.631,1.631,0,0,1,.066.424v.326c0,.066-.1.1-.261.1Z" transform="translate(-222.532 -173.983)" fill="#b40019"/></g><g transform="translate(91.821 46.167)"><path d="M314.533,224.479a1.7,1.7,0,0,1-.161.756,1.574,1.574,0,0,1-.435.542,1.9,1.9,0,0,1-.641.328,2.747,2.747,0,0,1-.785.11,2.779,2.779,0,0,1-.526-.047,2.95,2.95,0,0,1-.429-.112,1.913,1.913,0,0,1-.31-.137.844.844,0,0,1-.179-.127.317.317,0,0,1-.079-.158,1.51,1.51,0,0,1-.022-.3c0-.087,0-.161.009-.22a.568.568,0,0,1,.027-.143.156.156,0,0,1,.05-.078.123.123,0,0,1,.074-.023.357.357,0,0,1,.167.069,2.788,2.788,0,0,0,.277.155,2.508,2.508,0,0,0,.4.154,1.9,1.9,0,0,0,.543.069,1.238,1.238,0,0,0,.363-.048.809.809,0,0,0,.271-.137.575.575,0,0,0,.171-.22.711.711,0,0,0,.06-.291.513.513,0,0,0-.1-.319,1,1,0,0,0-.264-.236,2.708,2.708,0,0,0-.369-.194q-.208-.091-.426-.192a3.816,3.816,0,0,1-.426-.23,1.713,1.713,0,0,1-.37-.309,1.464,1.464,0,0,1-.264-.424,1.535,1.535,0,0,1-.1-.587,1.552,1.552,0,0,1,.145-.69,1.429,1.429,0,0,1,.392-.494,1.68,1.68,0,0,1,.583-.293,2.636,2.636,0,0,1,1.1-.067,2.733,2.733,0,0,1,.363.08,2.146,2.146,0,0,1,.3.113.727.727,0,0,1,.173.105.308.308,0,0,1,.057.072.316.316,0,0,1,.025.079.776.776,0,0,1,.016.122c0,.05,0,.111,0,.184s0,.15-.007.207a.723.723,0,0,1-.022.139.157.157,0,0,1-.042.08.1.1,0,0,1-.073.025.352.352,0,0,1-.148-.059c-.067-.039-.151-.082-.249-.129a2.315,2.315,0,0,0-.342-.126,1.508,1.508,0,0,0-.426-.057,1.013,1.013,0,0,0-.316.044.651.651,0,0,0-.227.122.5.5,0,0,0-.135.188.614.614,0,0,0-.044.232.513.513,0,0,0,.1.315.965.965,0,0,0,.266.237,2.951,2.951,0,0,0,.378.194q.21.091.431.192a4.3,4.3,0,0,1,.43.23,1.755,1.755,0,0,1,.376.309,1.448,1.448,0,0,1,.266.422A1.481,1.481,0,0,1,314.533,224.479Z" transform="translate(-310.966 -220.558)" fill="#fff"/><path d="M327.657,224.093a2.584,2.584,0,0,1-.147.9,1.784,1.784,0,0,1-.435.671,1.9,1.9,0,0,1-.71.418,3.031,3.031,0,0,1-.971.143,3.08,3.08,0,0,1-.924-.129,1.783,1.783,0,0,1-.692-.391,1.7,1.7,0,0,1-.433-.652,2.562,2.562,0,0,1-.149-.915v-3.321a.121.121,0,0,1,.026-.076.175.175,0,0,1,.09-.055.977.977,0,0,1,.171-.034,2.531,2.531,0,0,1,.271-.012,2.484,2.484,0,0,1,.265.012.938.938,0,0,1,.169.034.183.183,0,0,1,.09.055.113.113,0,0,1,.028.076v3.224a1.769,1.769,0,0,0,.08.564,1.051,1.051,0,0,0,.23.4.958.958,0,0,0,.359.234,1.329,1.329,0,0,0,.467.078,1.29,1.29,0,0,0,.469-.08.936.936,0,0,0,.35-.234,1.047,1.047,0,0,0,.221-.379,1.551,1.551,0,0,0,.079-.513v-3.287a.125.125,0,0,1,.025-.076.18.18,0,0,1,.089-.055.919.919,0,0,1,.17-.034,2.555,2.555,0,0,1,.269-.012,2.4,2.4,0,0,1,.263.012.93.93,0,0,1,.168.034.177.177,0,0,1,.088.055.12.12,0,0,1,.025.076Z" transform="translate(-312.624 -220.569)" fill="#fff"/><path d="M341.2,221.5a1.859,1.859,0,0,1-.01.212.745.745,0,0,1-.029.141.174.174,0,0,1-.047.074.108.108,0,0,1-.066.021.407.407,0,0,1-.177-.076,2.546,2.546,0,0,0-.325-.164,3.512,3.512,0,0,0-.483-.165,2.534,2.534,0,0,0-.653-.076,1.808,1.808,0,0,0-.717.137,1.562,1.562,0,0,0-.549.388,1.746,1.746,0,0,0-.35.6,2.372,2.372,0,0,0-.123.779,2.478,2.478,0,0,0,.125.826,1.683,1.683,0,0,0,.348.6,1.438,1.438,0,0,0,.538.363,1.907,1.907,0,0,0,.694.122,1.641,1.641,0,0,0,.367-.041,1.367,1.367,0,0,0,.338-.127V223.85h-1.035c-.05,0-.089-.031-.118-.1a.859.859,0,0,1-.042-.322,1.6,1.6,0,0,1,.01-.2.5.5,0,0,1,.032-.129.188.188,0,0,1,.05-.072.107.107,0,0,1,.067-.022H340.9a.3.3,0,0,1,.121.022.266.266,0,0,1,.093.07.316.316,0,0,1,.06.112.475.475,0,0,1,.022.15v2.173a.525.525,0,0,1-.044.222.315.315,0,0,1-.182.15c-.092.037-.2.074-.34.114s-.276.073-.42.1a4.408,4.408,0,0,1-.439.063c-.147.014-.3.022-.445.022a3.416,3.416,0,0,1-1.171-.188,2.3,2.3,0,0,1-1.425-1.413,3.325,3.325,0,0,1-.19-1.164,3.366,3.366,0,0,1,.2-1.205,2.544,2.544,0,0,1,.574-.907,2.485,2.485,0,0,1,.9-.572,3.288,3.288,0,0,1,1.17-.2,3.878,3.878,0,0,1,.646.048,3.693,3.693,0,0,1,.509.118,2,2,0,0,1,.36.15.874.874,0,0,1,.2.139.344.344,0,0,1,.082.167A1.455,1.455,0,0,1,341.2,221.5Z" transform="translate(-314.433 -220.559)" fill="#fff"/><path d="M354.835,224.093a2.544,2.544,0,0,1-.148.9,1.744,1.744,0,0,1-.435.671,1.875,1.875,0,0,1-.709.418,3.023,3.023,0,0,1-.971.143,3.084,3.084,0,0,1-.924-.129,1.8,1.8,0,0,1-.692-.391,1.7,1.7,0,0,1-.432-.652,2.541,2.541,0,0,1-.15-.915v-3.321a.125.125,0,0,1,.025-.076.181.181,0,0,1,.092-.055.965.965,0,0,1,.17-.034,2.543,2.543,0,0,1,.271-.012,2.459,2.459,0,0,1,.265.012.894.894,0,0,1,.169.034.2.2,0,0,1,.092.055.122.122,0,0,1,.027.076v3.224a1.768,1.768,0,0,0,.08.564,1.029,1.029,0,0,0,.231.4.945.945,0,0,0,.359.234,1.324,1.324,0,0,0,.466.078,1.287,1.287,0,0,0,.469-.08.923.923,0,0,0,.35-.234,1.061,1.061,0,0,0,.222-.379,1.6,1.6,0,0,0,.078-.513v-3.287a.12.12,0,0,1,.025-.076.177.177,0,0,1,.088-.055.942.942,0,0,1,.172-.034,2.531,2.531,0,0,1,.267-.012,2.43,2.43,0,0,1,.264.012.923.923,0,0,1,.166.034.18.18,0,0,1,.089.055.126.126,0,0,1,.025.076Z" transform="translate(-316.309 -220.569)" fill="#fff"/><path d="M376.917,221.126a2.026,2.026,0,0,1-.01.209.492.492,0,0,1-.033.139.181.181,0,0,1-.052.078.11.11,0,0,1-.069.026h-1.368v4.4a.12.12,0,0,1-.027.075.2.2,0,0,1-.092.055.919.919,0,0,1-.17.034,2.782,2.782,0,0,1-.536,0,.944.944,0,0,1-.172-.034.187.187,0,0,1-.09-.055.111.111,0,0,1-.028-.075v-4.4H372.9a.1.1,0,0,1-.072-.026.2.2,0,0,1-.051-.078.566.566,0,0,1-.031-.139,1.6,1.6,0,0,1-.011-.209,1.7,1.7,0,0,1,.011-.215.572.572,0,0,1,.031-.141.182.182,0,0,1,.051-.076.111.111,0,0,1,.072-.023h3.85a.117.117,0,0,1,.069.023.169.169,0,0,1,.052.076.5.5,0,0,1,.033.141C376.913,220.97,376.917,221.042,376.917,221.126Z" transform="translate(-319.34 -220.573)" fill="#fff"/><path d="M389.334,225.714a1.514,1.514,0,0,1,.064.24.144.144,0,0,1-.035.133.274.274,0,0,1-.164.054c-.079.008-.188.011-.325.011s-.255,0-.336-.007a.83.83,0,0,1-.183-.025.169.169,0,0,1-.088-.053.276.276,0,0,1-.042-.089l-.367-1.1h-2.051l-.346,1.068a.32.32,0,0,1-.045.1.176.176,0,0,1-.087.063.67.67,0,0,1-.175.032c-.074.005-.172.009-.292.009a2.755,2.755,0,0,1-.3-.013.229.229,0,0,1-.152-.061.165.165,0,0,1-.029-.137,1.411,1.411,0,0,1,.063-.236l1.684-4.845a.409.409,0,0,1,.06-.117.208.208,0,0,1,.108-.067.845.845,0,0,1,.2-.029c.087,0,.2-.006.347-.006.166,0,.3,0,.4.006a1.037,1.037,0,0,1,.229.029.213.213,0,0,1,.118.07.382.382,0,0,1,.061.126Zm-2.507-4.006h0l-.773,2.322H387.6Z" transform="translate(-320.918 -220.569)" fill="#fff"/><path d="M402.115,224.494a1.654,1.654,0,0,1-.08.527,1.391,1.391,0,0,1-.56.73,1.921,1.921,0,0,1-.432.215,2.694,2.694,0,0,1-.5.124,4.031,4.031,0,0,1-.6.04h-1.452a.339.339,0,0,1-.233-.082.332.332,0,0,1-.1-.268V221.02a.333.333,0,0,1,.1-.268.343.343,0,0,1,.233-.082h1.372a3.67,3.67,0,0,1,.851.085,1.67,1.67,0,0,1,.586.255,1.132,1.132,0,0,1,.366.432,1.4,1.4,0,0,1,.126.616,1.339,1.339,0,0,1-.05.373,1.111,1.111,0,0,1-.148.319,1.086,1.086,0,0,1-.239.253,1.2,1.2,0,0,1-.323.177,1.463,1.463,0,0,1,.429.148,1.232,1.232,0,0,1,.342.272,1.294,1.294,0,0,1,.23.391A1.413,1.413,0,0,1,402.115,224.494Zm-1.435-2.3a.817.817,0,0,0-.05-.3.538.538,0,0,0-.152-.218.685.685,0,0,0-.255-.132,1.471,1.471,0,0,0-.412-.047h-.561v1.418h.621a1.081,1.081,0,0,0,.384-.056.67.67,0,0,0,.239-.156.639.639,0,0,0,.141-.233A.817.817,0,0,0,400.68,222.194Zm.283,2.338a.86.86,0,0,0-.063-.34.643.643,0,0,0-.186-.252.868.868,0,0,0-.312-.156,1.842,1.842,0,0,0-.494-.054h-.659v1.553h.8a1.372,1.372,0,0,0,.391-.048.807.807,0,0,0,.273-.143.667.667,0,0,0,.182-.237A.764.764,0,0,0,400.962,224.532Z" transform="translate(-322.787 -220.573)" fill="#fff"/><path d="M414.167,225.7a1.678,1.678,0,0,1-.01.2.528.528,0,0,1-.032.133.177.177,0,0,1-.053.073.115.115,0,0,1-.07.023h-2.743a.34.34,0,0,1-.234-.082.335.335,0,0,1-.1-.268V221.02a.336.336,0,0,1,.1-.268.344.344,0,0,1,.234-.082h2.726a.114.114,0,0,1,.067.021.172.172,0,0,1,.051.074.564.564,0,0,1,.031.135,1.729,1.729,0,0,1,.01.209,1.645,1.645,0,0,1-.01.2.531.531,0,0,1-.031.132.19.19,0,0,1-.051.074.105.105,0,0,1-.067.023h-1.95v1.334h1.65a.111.111,0,0,1,.069.023.163.163,0,0,1,.054.072.5.5,0,0,1,.031.131,1.812,1.812,0,0,1,0,.4.491.491,0,0,1-.031.129.148.148,0,0,1-.054.07.121.121,0,0,1-.069.021h-1.65v1.54H414a.115.115,0,0,1,.07.023.181.181,0,0,1,.053.074.528.528,0,0,1,.032.133A1.673,1.673,0,0,1,414.167,225.7Z" transform="translate(-324.518 -220.573)" fill="#fff"/></g><path d="M238.388,229.307a30.664,30.664,0,1,1,30.227-30.661A30.481,30.481,0,0,1,238.388,229.307Zm0-58.692a28.034,28.034,0,1,0,27.633,28.031A27.867,27.867,0,0,0,238.388,170.615Z" transform="translate(-208.161 -167.984)" fill="#b40019"/></g></svg>