<svg xmlns="http://www.w3.org/2000/svg" width="29" height="29" viewBox="0 0 29 29"><g transform="translate(0.224 0.064)"><circle cx="14.5" cy="14.5" r="14.5" transform="translate(-0.224 -0.064)" fill="#fff"/><path d="M14.5,1A13.5,13.5,0,0,0,4.954,24.046,13.5,13.5,0,1,0,24.046,4.954,13.412,13.412,0,0,0,14.5,1m0-1A14.5,14.5,0,1,1,0,14.5,14.5,14.5,0,0,1,14.5,0Z" transform="translate(-0.224 -0.064)" fill="#b40019"/><path d="M2.849-3.416a8.185,8.185,0,0,1-.609.861,3.4,3.4,0,0,0-.35-.119v-.175a7.556,7.556,0,0,0,.994-1.47c.168-.007.245-.021.3-.077l-.5-.448-.3.28H1.9V-5.579c.161-.021.231-.091.245-.189l-.693-.077v1.281H.357l.063.2H2.38A8.886,8.886,0,0,1,.2-1.547l.091.091A7.1,7.1,0,0,0,1.449-2.38V.532h.07A.443.443,0,0,0,1.89.392V-2.534a2.715,2.715,0,0,1,.882,1.015c.413.231.637-.476-.364-.959a6.85,6.85,0,0,0,.672-.553.231.231,0,0,0,.266-.07ZM6.237-5.257l-.266.308H2.982l.063.2H4.27c-.049,2-.217,3.794-2.037,5.2l.084.1C4.5-.665,4.662-2.534,4.746-4.746h1.3C5.985-2.24,5.852-.525,5.565-.252a.309.309,0,0,1-.28.112c-.168,0-.672-.056-.994-.091l-.007.126a2.063,2.063,0,0,1,.7.217.4.4,0,0,1,.126.35A1.014,1.014,0,0,0,5.936.105c.343-.427.5-2.1.546-4.788A.445.445,0,0,0,6.776-4.8Zm4.13,3.409V-3.6h1.6v1.75Zm1.771-2.226-.245.28H10.4L9.94-4.011V-1.2h.07c.182,0,.357-.1.357-.14v-.3h1.6v.406h.07c.14,0,.357-.105.364-.154V-3.514a.5.5,0,0,0,.287-.14ZM8.911-.245V-5.04h4.543V-.245Zm4.732-5.3-.259.294H8.96l-.5-.238V.546h.084c.2,0,.364-.119.364-.182v-.4h4.543V.49h.063a.568.568,0,0,0,.392-.175V-4.949a.526.526,0,0,0,.3-.147ZM2.31,4.253l-.294.287h-.9L.581,4.323v6.216H.658a.4.4,0,0,0,.364-.161V4.75h.994c-.175.539-.462,1.309-.644,1.736a2.064,2.064,0,0,1,.7,1.491c0,.259-.063.406-.189.469a.353.353,0,0,1-.2.042H1.148v.105a.827.827,0,0,1,.371.112.6.6,0,0,1,.084.357c.693-.028.952-.35.945-.98A2.009,2.009,0,0,0,1.54,6.465,17.731,17.731,0,0,0,2.548,4.876.43.43,0,0,0,2.856,4.8ZM3.444,5.9H5.509V6.934H3.444ZM5.509,4.75v.938H3.444V4.75Zm.5,2.583A7.9,7.9,0,0,1,4.844,8.46a4.417,4.417,0,0,1-.518-1.316H5.509v.308h.063a.66.66,0,0,0,.392-.133V4.848A.572.572,0,0,0,6.272,4.7l-.581-.448-.252.287H3.528L3,4.316V9.8c-.378.077-.7.147-.917.182l.287.581a.261.261,0,0,0,.154-.175,23.472,23.472,0,0,0,2.268-.91L4.76,9.377c-.448.119-.9.231-1.316.322V7.144h.735A4.287,4.287,0,0,0,6.321,10.5a.539.539,0,0,1,.441-.371l.021-.07A3.876,3.876,0,0,1,4.921,8.572a5.791,5.791,0,0,0,1.358-.791c.147.049.217.035.266-.028Zm7.567-2a6.183,6.183,0,0,1-.343.805l.091.056a5.747,5.747,0,0,0,.819-.77.444.444,0,0,0,.266-.077l-.546-.518-.294.3H11.431V4.372c.168-.028.238-.1.252-.2l-.721-.07V5.128H8.995a2.2,2.2,0,0,0-.077-.385l-.126.007a1.2,1.2,0,0,1-.546,1.134.328.328,0,0,0-.175.378c.084.168.343.154.525.021a1.1,1.1,0,0,0,.413-.952ZM11.424,8.138h2.009c.1,0,.175-.035.2-.112-.245-.217-.616-.5-.616-.5l-.329.413h-1.26V6.577H13.44c.1,0,.168-.035.189-.112-.245-.2-.616-.476-.616-.476l-.336.385H8.771l.056.2h2.135V9.762A2.054,2.054,0,0,1,9.639,8.537a6.432,6.432,0,0,0,.259-.9c.154-.007.238-.063.259-.161l-.721-.147a4.752,4.752,0,0,1-1.5,3.129l.07.084A3.792,3.792,0,0,0,9.562,8.712c.567,1.386,1.456,1.687,3.08,1.687h1.533a.366.366,0,0,1,.28-.371v-.1c-.448.014-1.365.014-1.785.014a8.188,8.188,0,0,1-1.246-.077Z" transform="translate(6.776 11.935)" fill="#b40019"/></g></svg>