<svg xmlns="http://www.w3.org/2000/svg" width="300.001" height="337" viewBox="0 0 300.001 337"><g transform="translate(-141.999 30)"><path d="M-2911,8430a151.079,151.079,0,0,1-30.23-3.048,149.193,149.193,0,0,1-28.157-8.74,150,150,0,0,1-25.48-13.829,151.093,151.093,0,0,1-22.2-18.316,151.144,151.144,0,0,1-18.316-22.2,150.011,150.011,0,0,1-13.83-25.48,149.228,149.228,0,0,1-8.74-28.156A151.1,151.1,0,0,1-3061,8280a151.116,151.116,0,0,1,3.048-30.23,149.228,149.228,0,0,1,8.74-28.156,150.043,150.043,0,0,1,13.83-25.48,151.115,151.115,0,0,1,18.316-22.2,151.063,151.063,0,0,1,22.2-18.316,150.006,150.006,0,0,1,25.48-13.83,149.257,149.257,0,0,1,28.157-8.74A151.129,151.129,0,0,1-2911,8130a151.129,151.129,0,0,1,30.23,3.047,149.257,149.257,0,0,1,28.157,8.74,150.029,150.029,0,0,1,25.479,13.83,151.028,151.028,0,0,1,22.2,18.316,151.126,151.126,0,0,1,18.316,22.2,150.078,150.078,0,0,1,13.83,25.48,149.231,149.231,0,0,1,8.74,28.156A151.133,151.133,0,0,1-2761,8280a151.116,151.116,0,0,1-3.047,30.229,149.214,149.214,0,0,1-8.74,28.156,150.046,150.046,0,0,1-13.83,25.48,151.155,151.155,0,0,1-18.316,22.2,151.077,151.077,0,0,1-22.2,18.316,150.015,150.015,0,0,1-25.479,13.829,149.187,149.187,0,0,1-28.157,8.74A151.079,151.079,0,0,1-2911,8430Zm0-250a100.114,100.114,0,0,0-100,100,100.113,100.113,0,0,0,100,100,100.112,100.112,0,0,0,100-100A100.113,100.113,0,0,0-2911,8180Z" transform="translate(3203 -8123)" fill="#bbe7aa"/><text transform="translate(240 168)" font-size="24" font-family="NotoSerifJP-Bold, Noto Serif JP" font-weight="700" letter-spacing="0.1em"><tspan x="0" y="0">国内農家</tspan></text><path d="M-3053.3,8180.006h0c-.464,0-.886-.007-1.289-.007v-50c1.614,0,3.24.026,4.836.077Z" transform="translate(3346.589 -8123)" fill="#144d00"/><path d="M3386.275-8143.411l-.857-.515,11.95-19.913h32.919v1h-32.353Z" transform="translate(-3091.428 8146.503)" fill="#707070"/><text transform="translate(347.999 -9)" font-size="18" font-family="NotoSerifJP-Bold, Noto Serif JP" font-weight="700" letter-spacing="0.1em"><tspan x="0" y="0">0.5％</tspan></text></g></svg>