<?xml version="1.0" encoding="UTF-8"?><svg id="_イヤー_1" xmlns="http://www.w3.org/2000/svg" viewBox="0 0 163.468 163.468"><defs><style>.cls-1{fill:#fff;}</style></defs><g><path class="cls-1" d="M96.333,128.842c-.614-.831-1.815-3.595-2.92-3.683-2.575-.204-2.812-3.882-.694-4.378-.022-.06-.063-.121-.063-.18,0-.176,.088-.264,.264-.353,.089-.088,.265-.176,.353-.264,.617-.441,1.41-.969,2.38-1.41,.881-.441,1.586-.881,2.027-1.411,.617-.529,1.234-1.058,2.028-1.586l2.115-1.322c.97-.529,1.939-1.234,2.997-2.204,1.058-.97,2.027-1.763,2.821-2.469,.176-.088,.353-.264,.617-.441,.264-.088,.353-.352,.353-.617s-.176-.616-.617-1.058c-.441-.441-.97-.969-1.587-1.41-.616-.441-1.146-.881-1.674-1.234-.617-.264-.97-.441-1.234-.441-.264,.089-.529,.353-.881,.617l-1.058,1.058c-.353,.353-.705,.617-.969,.881-.265,.264-.529,.441-.617,.441-.176-.176-.264-.529-.264-.969v-1.058c0-.617,0-1.234,.088-1.852,.088-.529,.088-1.146,.088-1.763s0-1.146-.088-1.763c-.088-.529-.088-1.058-.088-1.675v-1.851c-.089-.794,0-1.322,.088-1.587,.088-.088,.088-.264,.176-.352v-.264c0-.794,0-1.675-.089-2.557-.088-.881-.176-1.763-.176-2.557,0-.264,.088-.529,.176-.794,.089-.176,.089-.352,.089-.616,0-.794,0-1.675-.089-2.469-.088-.794-.176-1.675-.176-2.468,0-.264,.088-.617,.176-.97,.091,.046,.221,.111,.381,.193-1.356-2.15-.937-4.596-.55-7.839l.039,.005c.006-.09,.015-.179,.018-.269-.812-.623-1.654-1.21-2.444-1.785-.265-.089-.529-.265-.881-.529-.353-.176-.617-.352-.706-.529-.264-.089-.529-.353-.793-.706-.353-.264-.706-.529-.97-.705-1.851-1.322-3.702-2.821-5.465-4.495-1.763-1.675-3.438-3.438-4.937-5.113-.352-.353-.705-.705-.969-1.058s-.617-.705-.97-1.058c-.264-.264-.529-.617-.793-1.058-.265-.352-.529-.705-.794-.969s-.705-.529-1.322-.617-1.146-.088-1.586-.088h-1.587c-.114,.019-.223,.023-.335,.034-.528-.14-1.062-.245-1.606-.309-.005-.214-.019-.452-.051-.739-.176-.794-.353-1.586-.529-2.557-.264-.969-.441-1.851-.705-2.732-.264-.794-.529-1.411-.617-1.675-.088-.176-.264-.441-.529-.794-.264-.264-.353-.529-.353-.705,0-.794,0-1.675,.089-2.468,.088-.794,.088-1.675,.088-2.469,0-.617,.088-1.146,.176-1.675,.088-.529,.176-1.057,.176-1.674,0-.264-.089-.705-.353-1.322,.088-.265,.088-.706,.176-1.234,.088-.529,.264-.881,.529-.97,.089,0,.529,0,1.411-.088,.793,0,1.763,0,2.821-.088h4.584c.441,0,.881,0,1.322,.088,.353,.088,.794,.176,1.234,.176,.881,0,1.763,0,2.556-.089,.794-.088,1.675-.088,2.557-.088h2.292c.705,.088,1.41,.088,2.204,.088,.441,0,.881,0,1.322-.088s.881-.088,1.322-.088,.97,0,1.411,.088,.881,.088,1.322,.088c.616,0,1.322,0,2.027-.088,.617-.088,.969-.529,.969-1.41v-.794c-.088-.264-.088-.529-.088-.794s0-.617,.088-.969v-1.058c-.088-.264-.176-.529-.264-.794-.176-.176-.441-.264-.793-.264h-.97c-.353,.088-.705,.088-1.058,.088-.617,0-1.146-.088-1.586-.176-.529-.089-1.058-.089-1.586-.089-.089-.088-.353-.088-.617-.088s-.617,.088-.881,.176c-.265,.088-.617,.176-.881,.176s-.529,0-.794-.088-.529-.088-.794-.088h-2.38c-.441,0-.793,0-1.146,.088s-.705,.088-1.058,.088c-.529,0-1.058-.088-1.499-.264-.441-.088-.969-.176-1.499-.176-.441,0-.969,.089-1.499,.176-.529,.089-1.057,.176-1.498,.176h-5.289c-1.674,0-2.732-.264-3.349-.705s-.881-1.499-.881-3.174v-1.234c0-.441,.088-.881,.264-1.322,.088-.352,.176-.793,.176-1.233,0-.794,0-1.587-.089-2.38-.088-.706-.088-1.499-.088-2.292,0-.441,0-.969,.088-1.41,.089-.441,.089-.881,.089-1.322s-.089-.794-.264-.97c-.176-.088-.529-.176-.97-.176h-1.322c-.441,.089-.881,.089-1.322,.089-1.146,0-1.852,.088-2.204,.176-.353,.088-.529,.793-.529,1.938,0,.353,0,.706,.089,1.058v1.058c0,.617,0,1.146-.089,1.675-.088,.529-.176,1.058-.176,1.675,0,.793,.089,1.499,.265,2.204,.176,.705,.264,1.41,.264,2.204,0,.264-.089,.529-.176,.794-.176,.352-.264,.881-.264,1.499,0,.529-.089,.969-.353,1.233-.441,.264-.881,.353-1.41,.353-.617,.088-1.147,.088-1.763,.088-.617,.089-1.147,.176-1.764,.264-.352,.089-.616,.176-.881,.176-.793,0-1.498-.088-1.938-.264-.529-.088-1.058-.176-1.587-.176h-4.671c-.265,0-.441,0-.617,.089-.264,.088-.441,.088-.705,.088-.353,0-.706,0-.97-.088h-1.058c-.352,0-.705,0-.969,.088s-.617,.088-.97,.088-.705-.088-1.058-.176c-.352-.089-.705-.176-1.146-.176-.705,0-1.41,0-2.116,.088-.705,.089-1.41,.176-2.115,.176h-11.372c-.176,0-.441,0-.793-.088h-1.058c-.441,0-.794,0-1.058,.088s-.441,.264-.529,.441c-.088,.176-.088,.441-.088,.794,0,.441,.088,.969,.264,1.41,.089,.529,.176,1.058,.176,1.499,0,.176,0,.353-.088,.441,0,.089,0,.264-.089,.353-.088,.176-.088,.352-.088,.441,0,.441,.352,.617,1.058,.705,.616,.088,1.146,.088,1.41,.088,.441,0,.97,0,1.499-.088h1.499c.617,0,1.146,0,1.763,.088,.529,.089,1.058,.089,1.675,.089,.264,0,.441,0,.617-.089,.088-.088,.264-.088,.529-.088h.705c.353,.088,.706,.088,1.147,.088h1.057c.265,0,.529,0,.617-.088h.529c.441,0,.793,0,1.233,.088,.353,.089,.706,.089,1.147,.089,.352,0,.705,0,1.058-.089,.264,0,.616,0,.969-.088,1.234-.176,2.557-.264,3.879-.176,1.322,.089,2.557,.089,3.79,.089h5.818c1.852,.088,3.791,.088,5.73,.088,.264,0,.529,0,.793-.088,.265-.089,.529-.089,.794-.089,.705,0,1.146,.089,1.322,.264,.176,.176,.264,.617,.264,1.234,0,.794,0,1.587-.088,2.38-.089,.794-.176,1.675-.176,2.469v.616c.088,.089,.088,.176,.088,.265,0,.088,0,.176,.089,.264v.264c0,.264-.089,.441-.353,.529-.264,.089-.441,.089-.705,.089-.441,0-.794,0-1.146-.089-.353-.088-.706-.088-1.147-.088h-1.057c-.353,0-.706,.088-.97,.176-.441,.176-.881,.353-1.322,.441-.441,.176-.794,.441-1.234,.705-1.146,.794-2.291,1.675-3.438,2.733-1.146,1.146-2.027,2.291-2.556,3.526-.265,.705-.529,1.499-.706,2.468-.176,.97-.264,1.764-.264,2.557v1.675c0,.617,.089,1.146,.176,1.586,.264,1.675,.97,3.261,1.939,4.76s2.204,2.644,3.79,3.261c.353,.089,.706,.264,1.058,.441,.353,.264,.706,.353,1.147,.353s.793-.176,1.233-.441c.353-.264,.617-.705,.881-1.146,.265-.442,.441-.882,.617-1.411,.089-.441,.176-.881,.176-1.234,0-.617-.176-1.058-.617-1.41-.441-.264-.969-.617-1.499-1.058-.529-.441-.969-.881-1.41-1.499-.441-.529-.705-1.322-.705-2.292,0-.793,.088-1.586,.264-2.556,.176-.97,.441-1.852,.881-2.645,.441-.793,.969-1.41,1.586-2.027,.617-.529,1.499-.793,2.468-.793,.794,0,1.499,.176,2.204,.529,.616,.441,1.233,.881,1.763,1.499,.441,.617,.881,1.234,1.146,1.939,.264,.793,.441,1.499,.441,2.204,0,.264,0,.529-.088,.794-.089,.264-.089,.529-.089,.793-.088,.089-.088,.353-.088,.617s.088,.529,.176,.794c.088,.264,.088,.617,.088,.969,0,.617-.088,1.234-.176,1.939-.176,.705-.352,1.322-.617,1.939-.176,.529-.441,1.234-.793,2.027-.441,.882-.794,1.764-1.234,2.645s-.794,1.674-1.234,2.468-.881,1.411-1.233,1.763l-3.702,3.702c-.265,.264-.617,.529-1.058,.617-.441,.176-.794,.441-1.147,.705-.793,.617-1.674,1.147-2.468,1.587s-1.675,.881-2.644,1.322c-.264,.088-.529,.264-.705,.352-.265,.089-.529,.265-.794,.353-.441,.176-.881,.264-1.322,.264s-.794,.089-1.234,.353-.969,.529-1.586,.705-1.234,.264-1.852,.264c-.705,0-1.41,.176-2.204,.441-.088,.089-.441,.176-.881,.265-.441,.176-.705,.352-.705,.529,0,.088,.088,.264,.353,.529,.264,.265,.441,.529,.529,.794,.176,.441,.441,1.146,.705,2.027s.617,1.499,.881,1.852c.089,.176,.441,.264,.881,.264,.617,0,1.234-.088,1.675-.264,.441-.264,.881-.441,1.499-.617,.441-.088,.969-.176,1.41-.264,.441-.089,.97-.176,1.411-.264,.264-.089,.529-.265,.794-.441,.264-.176,.529-.353,.793-.441,.353-.089,.706-.176,1.058-.176,.353-.089,.705-.176,1.058-.264,.075-.015,.136-.041,.207-.06,.029,.199,.055,.412,.111,.633,0,.441,0,.794,.088,1.146v.794c0,1.058,0,2.116-.088,3.174-.089,1.058-.176,2.115-.176,3.173,0,.265,.088,.617,.176,.881,.088,.353,.088,.706,.088,1.058,0,1.411,0,2.821-.088,4.232-.089,1.499-.089,2.909-.089,4.319,0,.176,0,.352,.089,.529,.088,.176,.088,.353,.088,.529v17.277c0,.264,0,.529-.088,.705-.089,.265-.089,.529-.089,.794v1.675c-.088,.529-.176,1.058-.264,1.586-.441,0-.793,.089-1.146,.264-.441,.176-.794,.265-1.234,.265h-.264c-.264-.089-.617-.089-1.234,.088-.061,.017-.106,.023-.165,.039,.119,.254,.205,.528,.226,.823,.286,.169,.553,.385,.764,.711,.819,1.269,1.974,2.015,3.285,2.413,1.724-.017,3.444-.098,5.161-.218,.226-.157,.454-.31,.675-.475,.001-.154,.014-.307,.046-.456,.311-1.466,.593-2.937,.881-4.407,.023-.118,.091-.208,.135-.313-.055,.009-.111,.024-.166,.032,.089-.881,.089-1.763,0-2.556-.088-.794-.176-1.675-.176-2.469,0-.176,0-.352,.088-.529s.088-.353,.088-.617,0-.529-.088-.705-.088-.441-.088-.706c0-.176,0-.352,.088-.529s.088-.353,.088-.529c0-.617,0-1.322-.088-1.939s-.088-1.322-.088-1.939c0-.264,0-.529,.088-.794s.088-.529,.088-.794c0-.441,0-.793-.088-1.233-.088-.353-.088-.705-.088-1.147s.088-.793,.264-.969c.088-.176,.441-.264,.881-.264,.617,0,1.322,0,1.939,.088,.617,.089,1.233,.089,1.851,.089,1.234,0,2.469,0,3.702-.089,1.147-.088,2.38-.088,3.614-.088,.088,0,.264,0,.353,.088,.088,.089,.088,.176,.176,.264,.617,.794,1.322,1.587,1.939,2.557,.617,.97,1.234,1.939,1.675,2.821,.353,.617,.705,1.234,1.146,1.675,1.234,1.322,2.557,2.644,3.879,3.879,.617,.529,1.499,1.233,2.557,2.204,.969,.969,1.852,1.675,2.468,2.116,.794,.441,1.499,.969,2.204,1.41,.705,.529,1.41,1.058,2.204,1.499,.441,.264,.969,.529,1.586,.794s1.146,.529,1.675,.793c.352,.176,.705,.353,1.058,.617,.352,.176,.705,.353,.969,.529,.962,.437,1.922,.787,2.797,1.137-.72-.639-1.355-1.356-1.942-2.151Zm-31.673-50.773c.441-.441,.881-.969,1.233-1.41,.353-.441,.706-.882,1.147-1.411,.352-.529,.881-1.234,1.499-2.027,.264-.265,.529-.617,.793-.881,.264-.265,.441-.529,.617-.794,.353-.617,.794-1.499,1.234-2.557s.793-2.204,1.146-3.438c.353-1.146,.705-2.291,.97-3.438,.028-.121,.041-.219,.064-.333,1.174-.034,2.312,.126,3.409,.547,.141,.107,.275,.206,.458,.359,.441,.529,.969,1.058,1.586,1.675,.529,.617,1.058,1.234,1.587,1.851,.529,.617,.881,.97,1.146,1.147,1.322,1.322,2.732,2.556,4.055,3.879s2.732,2.468,4.231,3.614c.353,.264,.705,.441,1.058,.705,.353,.265,.705,.529,1.058,.794,.264,.264,.617,.441,.881,.705,.264,.265,.617,.529,.881,.794,.264,.176,.705,.353,1.234,.617,.441,.264,.793,.441,.881,.705-.089,.088-.265,.088-.353,0h-.441c-.881,0-1.763,0-2.644-.088-.881-.089-1.763-.089-2.644-.089-.265,0-.617,0-.881,.089-.265,.088-.617,.176-.881,.176-.353,0-.706,0-1.058-.088-.353-.088-.706-.088-1.058-.088-.264,0-.441,0-.617,.088s-.353,.088-.617,.088c-.617,0-1.322-.088-1.939-.176-.617-.089-1.322-.089-1.939-.089-.176,0-.352,0-.441,.089-.264,0-.441-.089-.529-.176-.089-.089-.176-.264-.176-.617v-2.38c0-1.586-.176-2.909-.529-3.879-.352-.969-1.498-1.41-3.349-1.41-.264,0-.705,0-1.41,.088-.794,.089-1.147,.264-1.147,.705,0,.706,0,1.411,.089,2.116v2.204c0,.441,0,.881-.089,1.234-.088,.441-.176,.881-.176,1.322,0,.088,0,.264,.089,.353,.088,.176,.088,.352,.088,.441h-8.814c-.265,0-.441,0-.617,.088-.226,.075-.395,.083-.602,.085,.608-.441,1.132-.865,1.519-1.186Zm-5.236,8.506v-.617c-.088-.176-.088-.352-.088-.616q0-.089,.088-.176c0-.089,.088-.176,.353-.265,.264-.088,.529-.088,.793-.176h5.024c.265,0,.617,0,.881-.089,.265-.088,.529-.088,.794-.088,.353,0,.705,0,1.058,.088,.353,.089,.705,.089,1.146,.089h8.11c.264,0,.529,0,.705-.089,.176-.088,.441-.088,.705-.088,.617,0,1.322,0,1.939,.088,.617,.089,1.322,.089,1.939,.089s1.322,0,1.939-.089c.617-.088,1.322-.088,1.939-.088h1.322c.705,0,1.41,0,2.204,.088,.705,.089,1.322,.176,1.939,.264,.617,.176,.881,.442,.881,.794v.617c-.088,.264-.088,.529-.088,.794,0,.441,.088,.881,.176,1.322,.088,.441,.088,.881,.088,1.322s0,.793-.088,1.058h-.089q-.088,.088-.176,.088c-.969,0-2.027,0-3.085,.089-1.058,.088-2.116,.088-3.085,.088-1.499,0-3.085,0-4.584-.088-1.499-.089-3.086-.089-4.584-.089-.617,0-1.322,0-1.939,.089-.617,.088-1.322,.176-1.939,.176-.265,0-.529,0-.706-.088-.264-.088-.529-.088-.793-.088s-.441,0-.617,.088-.353,.088-.529,.088c-1.147,0-2.204-.088-3.35-.176-1.146-.089-2.204-.089-3.349-.089-.617,0-1.322,0-1.939,.089-.617,.088-1.322,.176-1.939,.176s-.97-.088-.97-.352c-.088-.265-.088-.617-.088-1.234v-.529c-.088-.089-.088-.265-.088-.441,0-.265,0-.441,.088-.706,.088-.176,.088-.352,.088-.617,0-.352,0-.616-.088-.705Zm18.159,16.484c-.441-.088-.881-.088-1.322-.088s-.882,0-1.234,.088c-.441,.089-.881,.176-1.322,.176-.265,0-.529-.088-.706-.176-.264-.088-.441-.088-.705-.088h-5.201c-.176,0-.352,0-.529,.088-.176,.089-.353,.176-.617,.176h-4.055c-.264,0-.617,0-.881-.088-.264-.089-.617-.089-.881-.089h-.264c-.088,.089-.176-.088-.264-.352-.089-.265-.176-.353-.176-.441v-1.411c-.088-.441-.088-.969-.088-1.41,0-1.587,.352-2.469,.969-2.733s1.586-.353,2.909-.353c.265,0,.441-.088,.617-.176,.176-.088,.353-.088,.617-.088h5.201c1.146,.088,2.116,.088,3.085,.088,.881,.089,1.411,.089,1.499,.176h.617c.176,0,.353,0,.617-.088h.529c1.322,0,2.733,0,4.055,.088,1.322,.089,2.733,.089,4.055,.089,.441,0,.881-.089,1.322-.176,.352-.089,.793-.089,1.233-.089s.97,0,1.411,.089c.441,.088,.969,.176,1.41,.176,.089,0,.176,0,.265-.089h.176c.089-.088,.265-.088,.529-.088,1.322,0,2.116,.264,2.38,.705,.264,.529,.353,1.411,.353,2.557,0,.969-.176,1.763-.617,2.204-.441,.529-.97,.881-1.587,1.058-.705,.264-1.41,.353-2.204,.353-.793,.088-1.586,.088-2.291,.088h-1.147c-.441,.088-.793,.088-1.233,.088-.353,0-.706-.088-1.058-.176-.353-.089-.705-.089-1.058-.089-.529,0-1.058,0-1.499,.089-.529,.088-1.058,.088-1.586,.088-.441,0-.881-.088-1.322-.176Zm11.459,13.222c-.705,.441-1.322,.794-1.851,1.058-.264-.088-.705-.441-1.322-.969-.617-.529-1.322-1.147-1.939-1.852-.705-.617-1.322-1.322-1.852-1.939-.617-.617-.969-1.058-1.233-1.322-.265-.264-.529-.617-.706-.881-.176-.264-.352-.617-.616-.881-.353-.353-.529-.617-.617-.794,.264-.088,.617-.088,1.058-.088,.264,0,.441,0,.616,.088,.089,.089,.265,.089,.529,.089h7.845c1.234,0,2.468,0,3.702-.089,1.146-.088,2.38-.088,3.614-.088,.264,0,.617,0,.969,.088,.264,.089,.617,.089,.881,.089h.441c-.088,.088-.441,.352-.881,.705-.441,.441-.793,.617-.881,.617-.264,.264-.617,.617-.881,.969-.264,.353-.617,.617-.881,.794-.617,.352-1.234,.793-1.851,1.322-.706,.529-1.411,1.058-2.116,1.586-.706,.529-1.411,1.058-2.028,1.499Z"/><path class="cls-1" d="M76.19,119.01c-.353,0-.882,.176-1.499,.441-.617,.352-1.323,.705-2.028,1.146s-1.322,.969-1.939,1.41c-.617,.442-.969,.794-1.146,1.058-.264,.265-.529,.617-.705,.881-.176,.265-.441,.617-.705,.882-.442,.441-.97,.881-1.499,1.146-.529,.264-.97,.617-1.411,1.058-.264,.264-.529,.529-.794,.793-.264,.265-.616,.529-.881,.794-.969,.617-1.939,1.234-2.732,1.763-.881,.529-1.852,.97-2.909,1.411-.264,.088-.705,.264-1.322,.529s-1.058,.353-1.322,.353c-.617,0-1.41,0-2.291-.089-.881,0-1.763-.088-2.557-.352-.794-.176-1.499-.529-2.116-.97s-.881-1.146-.881-1.939c0-.881,.264-1.763,.794-2.644,.529-.881,1.322-1.322,2.291-1.322,.617,0,1.234,.088,1.852,.264,.529,.176,1.146,.264,1.763,.264s1.322-.088,2.204-.352,1.586-.529,2.027-.794,.882-.705,1.234-1.146c.264-.441,.617-.794,1.058-1.146,.794-.706,1.675-1.411,2.468-2.204,.794-.705,1.499-1.41,2.292-2.204,.264-.264,.617-.529,.881-.617,.264-.088,.529-.264,.617-.441l.793-.793c.176-.265,.442-.529,.706-.794,.441-.441,.969-.794,1.763-1.146,.705-.264,1.499-.529,2.291-.794,.794-.264,1.587-.441,2.38-.529,.794-.089,1.411-.176,1.939-.176,2.909,0,5.377,.529,7.404,1.586,1.939,1.058,3.791,2.733,5.642,4.937,.441,.617,.882,1.146,1.234,1.763,.264,.617,.705,1.146,1.146,1.763,.353,.529,.794,1.058,1.234,1.586,.441,.529,.881,.97,1.322,1.411,.441,.353,.881,.794,1.234,1.234,.441,.616,.969,1.322,1.41,1.939,.441,.705,.881,1.322,1.411,1.939,.794,.793,1.586,1.586,2.468,2.204,.881,.705,1.763,1.41,2.557,2.115,.97,.882,2.027,1.675,2.997,2.469,.969,.793,2.027,1.499,3.174,2.204,.441,.264,.881,.441,1.322,.441,.441,.088,.969,.176,1.41,.441,1.058,.529,2.292,.97,3.702,1.234,1.322,.264,2.644,.529,3.791,.617,.616,.088,1.322,.176,1.939,.264,.616,.088,1.322,.176,1.938,.176,.265,0,.529,0,.794-.089h1.322c.176,0,.353,.089,.441,.264,.265,.176,.441,.617,.441,1.322-.088,.706-.088,1.234,0,1.499,.089,.089,.089,.265,.176,.353,.089,.176,.089,.353,.089,.441,0,.264-.089,.529-.176,.794-.089,.264-.264,.617-.353,.881-.441,1.058-1.058,1.586-1.763,1.674-.705,.089-1.586,.176-2.557,.176-.793,0-1.586-.176-2.38-.529-.793-.264-1.499-.441-2.027-.441-.089,.088-.264,.176-.529,.088h-.529c-.176,0-.529-.088-1.146-.264-.617-.088-1.322-.264-2.028-.441-.705-.176-1.322-.353-1.939-.529-.616-.176-1.057-.265-1.233-.353-.264-.088-.617-.264-.881-.529s-.617-.442-.97-.529c-.441-.088-.969-.264-1.675-.529-.793-.176-1.233-.441-1.498-.794-.617-.353-1.147-.705-1.764-.97-.616-.264-1.146-.616-1.674-1.057-1.147-.794-2.204-1.675-3.174-2.557-1.058-.881-2.116-1.852-3.085-2.821-.264-.264-.441-.529-.617-.794s-.353-.441-.617-.705c-1.499-1.499-2.909-3.261-4.319-5.289-.176-.265-.264-.529-.352-.794-.089-.264-.176-.529-.441-.794-.441-.617-1.147-1.499-1.939-2.644-.794-1.058-1.675-2.116-2.557-3.261-.97-1.058-1.852-2.027-2.821-2.909-.97-.794-1.763-1.322-2.468-1.587-.882-.264-1.764-.352-2.645-.352h-1.057Zm34.025,14.726c-.264,.176-.529,.265-.793,.265-.265,.088-.617,.088-.97,0h-.881c-.264,0-.529,0-.794,.088-.264,.089-.529,.089-.793,.089-.176,0-.264-.176-.353-.529-.088-.264-.176-.617-.176-1.058-.088-.352-.088-.705-.088-1.058-.088-.352-.088-.617-.088-.705-.089-.088-.089-.353-.089-.617,0-.793,.089-1.674,.176-2.557,.088-.793,.176-1.674,.176-2.468v-2.644c0-.176,0-.353-.089-.441v-.529c-.088-.088-.088-.264-.088-.441,0-.352,.088-.705,.176-1.146,.088-.441,.352-.617,.793-.617h.794c.353,.089,.617,.089,.705,.176h.881c.441,.088,.706,0,.881-.088h.529c.176,.088,.264,.176,.264,.441,0,.088,0,.264-.088,.441-.089,.176-.089,.352-.089,.441-.088,.088-.088,.176-.088,.441,0,.617,.088,1.233,.264,1.851,.089,.617,.176,1.234,.176,1.852,0,.793-.088,1.586-.176,2.291-.088,.794-.176,1.587-.176,2.38,0,.529,.089,1.058,.176,1.499,.089,.441,.176,1.058,.176,1.852,0,.352-.088,.617-.353,.793Zm6.259,.442c-.088,0-.176,0-.264-.089-.088,0-.176-.088-.176-.264v-.529c0-.264,0-.616,.089-.969,.088-.353,.088-.705,.088-.97,0-.705-.088-1.41-.176-2.115-.088-.705-.176-1.411-.176-2.116,0-.441,.089-.969,.176-1.411,.089-.441,.176-.881,.176-1.322v-3.526c0-.617,.176-.969,.529-1.146,.353-.089,.794-.176,1.234-.176h2.468c.441,0,.706,.088,.617,.264-.088,.264-.088,.529-.088,.794,0,.617,.088,1.146,.176,1.675,.088,.529,.088,1.058,.088,1.674v.881c-.088,.353-.088,.706-.088,.97s.088,.529,.176,.705c.088,.264,.088,.529,.088,.794,0,.352,0,.705-.088,.969-.089,.353-.089,.706-.089,1.058,0,.441,0,.97,.089,1.499v2.292c0,.176-.089,.352-.353,.441-.264,.088-.617,.176-.881,.264-.353,.088-.705,.176-.97,.264-.352,.089-.617,.089-.705,.089h-1.939Z"/><path class="cls-1" d="M134.19,111.961c-.089,.089-.353,.089-.706,.089-.616,0-1.233,0-1.851-.089-.617-.088-1.234-.088-1.852-.088-.529,0-1.058,0-1.499,.088-.529,.089-1.057,.089-1.586,.089-.176,0-.264,0-.353-.089,0-1.586-.264-3.173-.793-4.671-.617-1.499-1.322-2.997-2.116-4.319-.441-.794-.969-1.499-1.586-2.116l-1.939-1.939-1.939-1.939c-.705-.616-1.411-1.233-2.204-1.851h-.441c-.706-.705-1.499-1.322-2.38-1.939-.881-.529-1.763-1.058-2.557-1.586-.617-.353-1.146-.706-1.586-1.147s-.97-.793-1.587-1.146c-.881-.529-1.763-1.146-2.644-1.852-.969-.705-1.851-1.498-2.644-2.291-.881-.794-1.586-1.675-2.204-2.644-.617-.97-1.058-1.939-1.322-2.997-.089-.264-.176-.617-.265-1.058-.088-.441-.176-.794-.176-1.058,0-.793,.088-1.586,.264-2.38,.176-.705,.264-1.41,.353-2.204v-1.146c0-.176,.088-.441,.264-.794s.352-.705,.617-1.146c.264-.353,.441-.705,.705-.97,.264-.264,.352-.529,.441-.616,.088-.176,.264-.353,.441-.529,.176-.088,.353-.264,.441-.441,1.322-2.027,2.909-4.055,4.671-6.17,1.764-2.028,3.791-3.614,5.994-4.76,.264,0,.705-.265,1.234-.794l1.058-1.058c.264-.264,.616-.617,.969-.969,.264-.265,.617-.617,.97-.881,.264-.176,.616-.441,1.233-.881,.617-.353,1.147-.794,1.763-1.234,.617-.441,1.147-.794,1.587-1.234s.705-.705,.705-.969-.088-.529-.353-.794c-.264-.264-.441-.441-.705-.617-.353-.264-.705-.617-.969-.881-.353-.264-.706-.529-.97-.881s-.617-.881-.969-1.499c-.441-.617-.794-1.234-1.147-1.939-.441-.705-.705-1.41-.969-2.115-.264-.617-.441-1.147-.441-1.587,0-.264,.176-.529,.441-.705,.088-.088,.353-.176,.794-.353,.441-.088,.881-.264,1.41-.441,.441-.176,.97-.352,1.411-.441,.441-.088,.705-.176,.793-.176,.264,0,.529,.176,.617,.529,.088,.441,.176,.705,.264,.969,.529,1.322,1.147,2.557,1.852,3.614s1.763,1.852,3.173,2.38c.441,.176,.97,.353,1.411,.441,.441,.176,.969,.264,1.41,.264s.882-.088,1.323-.352c.441-.176,.881-.265,1.322-.265,.352,0,.705,.176,1.058,.441,.352,.265,.705,.617,1.057,.97,.265,.441,.529,.794,.706,1.234,.176,.441,.264,.881,.264,1.146,0,.529-.176,1.058-.617,1.499-.441,.529-.969,.969-1.586,1.41s-1.147,.794-1.763,1.147c-.617,.441-1.147,.705-1.587,.969s-.705,.529-.881,.794c-.264,.264-.617,.441-1.058,.705-.969,.441-1.851,.969-2.821,1.41-.969,.529-1.939,1.147-2.732,1.764-.264,.176-.529,.441-.794,.705-.353,.264-.705,.617-.969,.881-.353,.352-.706,.617-.97,.881s-.529,.441-.705,.529c-.264,.176-.529,.353-.794,.441-.264,.089-.617,.353-.881,.617s-.441,.441-.617,.705c-.176,.265-.352,.529-.617,.794-.441,.441-.881,.705-1.41,.881-.529,.264-.969,.529-1.41,.97-.617,.616-1.411,1.499-2.292,2.556-.881,1.058-1.675,2.204-2.468,3.438-.794,1.234-1.499,2.469-2.028,3.702-.529,1.234-.793,2.292-.793,3.261l.088,.353c.441,.969,1.058,1.939,1.852,2.821,.793,.881,1.586,1.675,2.468,2.38,.441,.353,.881,.705,1.322,1.146s.881,.881,1.41,1.147c.442,.264,.97,.529,1.587,.793,.529,.264,1.058,.529,1.499,.794s.969,.617,1.41,.969c.441,.353,.881,.617,1.411,.794,.264,.088,.441,.176,.617,.264,.176,.089,.352,.176,.616,.264,.794,.441,1.587,1.058,2.204,1.852,.616,.794,1.322,1.499,2.115,1.939,.794,.441,1.499,.969,2.292,1.41,.705,.441,1.322,1.058,1.939,1.764,.264,.352,.529,.705,.793,1.146,.176,.441,.441,.793,.706,1.233,.529,.794,.969,1.499,1.41,2.116,.353,.705,.794,1.499,1.234,2.292,.264,.441,.529,1.058,.881,1.763,.264,.794,.617,1.586,.881,2.38s.441,1.586,.705,2.38c.176,.793,.264,1.41,.264,1.851s-.088,.794-.176,.881Zm1.763-42.135c-.264,0-.441,0-.529-.088-.616,0-1.058-.089-1.146-.353-.176-.264-.264-.705-.264-1.322,.088-.088,.088-.176,.088-.352,.089-.265,.176-.442,.176-.617,.088-.089,.088-.265,.176-.353,0-.088,0-.176,.088-.264,0-.176,0-.353,.089-.441-.089-.794-.265-1.499-.353-2.292-.088-.705-.176-1.41-.176-2.204,0-.529,0-1.058,.089-1.586,.088-.441,.088-.97,.088-1.499v-1.058c-.088-.264-.088-.617-.088-.881,0-.617,.176-.97,.617-1.058,.441-.088,.881-.088,1.322-.088h.705c1.146,0,1.851,.264,2.116,.881,.176,.617,.264,1.499,.264,2.468v3.526l-.264,.353c.088,.441,.176,.969,.176,1.41v4.319c0,.089,0,.353-.088,.617-.088,.353-.264,.529-.353,.617-.088,.088-.176,.176-.352,.176-.176,.088-.353,.088-.441,.088h-1.939Zm11.812,.176c-.264,0-.529,0-.793,.088-.265,.089-.529,.089-.794,.089-.529,0-.794-.176-.881-.441-.089-.264-.089-.617-.089-1.058,0-.794,0-1.499,.089-2.292v-2.204c0-.441,0-.969,.088-1.41,.089-.441,.089-.97,.089-1.411,0-.529,0-1.058-.089-1.499-.088-.441-.176-.969-.176-1.499,0-.176,0-.441,.089-.705,0-.264,0-.617,.088-.881,.089-.264,.176-.529,.264-.794,.089-.264,.265-.352,.529-.352h.441c.088,.088,.264,.088,.353,.088,.088,.089,.264,.089,.441,.089h.881c.088,0,.264,0,.441-.089h.352c.353,0,.617,.264,.881,.794,.176,.529,.353,1.146,.441,1.851,.089,.706,.089,1.411,.089,2.028v4.319c0,.352-.089,.617-.176,.881-.176,.264-.264,.617-.264,.969,0,.441,.088,.794,.176,1.147,.088,.352,.176,.705,.176,1.146v.881c0,.176-.264,.264-.705,.264h-1.939Z"/></g><path class="cls-1" d="M81.734,163.468C36.666,163.468,0,126.802,0,81.733S36.666,0,81.734,0s81.733,36.665,81.733,81.733-36.665,81.734-81.733,81.734Zm0-156.455C40.533,7.012,7.012,40.532,7.012,81.733s33.521,74.722,74.722,74.722,74.721-33.521,74.721-74.722S122.936,7.012,81.734,7.012Z"/></svg>